<mxfile host="65bd71144e">
    <diagram id="lM72x8W_RzlL4xErtvKN" name="ページ1">
        <mxGraphModel dx="2231" dy="932" grid="1" gridSize="10" guides="1" tooltips="1" connect="1" arrows="1" fold="1" page="0" pageScale="1" pageWidth="827" pageHeight="1169" background="#FFFFFF" math="0" shadow="0">
            <root>
                <mxCell id="0"/>
                <mxCell id="1" parent="0"/>
                <mxCell id="3" value="" style="shape=image;verticalLabelPosition=bottom;labelBackgroundColor=default;verticalAlign=top;aspect=fixed;imageAspect=0;image=data:image/png,iVBORw0KGgoAAAANSUhEUgAAAGwAAABtCAMAAAEE40TMAAAAAXNSR0IArs4c6QAAAARnQU1BAACxjwv8YQUAAALHUExURQAAAAAAAAAAAAAAAAAAAAAAAAAAAAAAAAAAAAAAAAAAAAAAAAAAAAAAAAAAAAAAAAAAAAAAAAAAAAAAAAAAAAAAAAAAAAAAAAAAAAAAAAAAAAAAAAAAAAAAAAAAAAAAAAAAAAAAAAAAAAAAAAAAAAAAAAAAAAAAAAAAAAAAAAAAAAAAAAAAAAAAAAAAAAAAAAAAAAAAAAAAAAAAAAAAAAAAAAAAAAAAAAAAAAAAAAAAAAAAAAAAAAAAAAAAAAAAAAAAAAAAAAAAAAAAAAAAAAAAAAAAAAAAAAAAAAAAAAAAAAAAAAAAAAAAAAAAAAAAAAAAAAAAAAAAAAAAAAAAAAAAAAAAAAAAAAAAAAAAAAAAAAAAAAAAAAAAAAAAAAAAAAAAAAAAAAAAAAAAAAAAAAAAAAAAAAAAAAAAAAAAAAAAAAAAAAAAAAAAAAAAAAAAAAAAAAAAAAAAAAAAAAAAAAAAAAAAAAAAAAAAAAAAAAAAAAAAAAAAAAAAAAAAAAAAAAAAAAAAAAAAAAAAAAAAAAAAAAAAAAAAAAAAAAAAAAAAAAAAAAAAAAAAAAAAAAAAAAAAAAAAAAAAAAAAAAAAAAAAAAAAAAAAAAAAAAAAAAAAAAAAAAAAAAAAAAAAAAAAAAAAAAAAAAAAAAAAAAAAAAAAAAAAAAAAAAAAAAAAAAAAAAAAAAAAAAAAAAAAAAAAAAAAAAAAAAAAAAAAAAAAAAAAAAAAAAAAAAAAAAAAAAAAAAAAAAAAAAAAAAAAAAAAAAAAAAAAAAAAAAAAAAAAAAAAAAAAAAAAAAAAAAAAAAAAAAAAAAAAAAAAAAAAAAAAAAAAAAAAAAAAAAAAAAAAAAAAAAAAAAAAAAAAAAAAAAAAAAAAAAAAAAAAAAAAAAAAAAAAAAAAAAAAAAAAAAAAAAAAAAAAAAAAAAAAAAAAAAAAAAAAAAAAAB/MLD0AAADsdFJOUwABAgMEBQYHCAkKCwwNDg8QERITFBUWFxgbHR4fICEiIyQlJicoKissLS4vMDEyMzQ1Njc4OTo7PD0+P0BCQ0RFRkdISUpLTE1OUFFSU1RWV1hZWltcXV9gYWJjZGVmZ2hpamtsbW5vcXJzdHV2d3h5ent8fX5/gIGCg4SFhoeIiYqLjI2Oj5CRkpOVl5iZmpucnZ6goaKlpqepqqutrq+wsbKztLW2t7m6u7y9vr/AwcPExsfIycrLzM3Oz9DR0tPU1dbX2Nna29zd3t/g4eLj5OXm5+jp6uvs7e7v8PHy8/T19vf4+fr7/P3+zGbxxAAAAAlwSFlzAAAXEQAAFxEByibzPwAAC4RJREFUWEe9mYt7FcUVwKeEKJVnbVpeUbhpgASBEkR5iNCKtLZgawO2KqiNaYtSrYgVkIKvQEFF+/JBRaUgoVoqxhZIi9gK1BIBgfAwwIUEEiEhOX9Ez2t2Z+/u3Zsb8vX3fffueczs7GPmzJlZE8EHQKhSg2IdzAOoYNXaWyGJ/7/lkojYwRQBFOGPLKiuQbPI4vXVC/gr5EoAfxOTuOSfSv90Dh3IQf9vwJdYGcaaLS4+ogeZLlclFSrY1lvkhQCDP74RYNVwVJJwl1jpbnL4hEibgUnGLICVeDN448Y8hAXMfHGaJr5Z0VrIgdoDVAp/ciDkQBpeGZJo40sFU8kqK7YsjBeN9OtVUui2yAom9d60quknR+8U9KgQEk58g/6tRpDc4HEwYUyb9ZIryHXmMP6L61G9Yyr5OR7/kwelrIpNnw1DRboBvWF0Wh8e35PjT7QIaRZHw0dtcrxuhThF8aUgSZQaYRTLSFMD6knqjEQNvl4Eb8wYfHX4mivoPXtI10baQPtDFkzQYwpTTfOZcfiW7jA3qMVHWyPUYhHjCVtCrcRmtj1hoAJMI4l5vpdUfgxs2kgqCUiSnovKAurJB1kqQ/GMvvSGhrM7xMmuQTtQCmDMrQDvD5AyqbCRxwyYnTN5pI8vKirmyzRH8/myUCyD/Vz7y1ySfND8DsArxpzjdslkqTOmkN/7MoDaoG+lVh9ongj5+PLxMJDOeVp9FCPouJcPNGwRtV2Gx32s96Z/vBY2K/WOhh7XFfDRvbvP7KwxR1XkZ8bP2iT6k8iUJaiyyPyO/q0KAhRc9R1xGzYuIDv9aoj0iSdZbiLR6RPBi0XUalEroRafuL7LpOnzARZAF2NqAe95VbiFSObAKXMVXg8FGDiIvzozO+LqXKD+OtNMxZlXp11UCQd77loNDRFoGQFf5HAVBSdq+tD1CEe/zoYTKHIoNUvFTgxlg0MXsdPgikAmRTijqnJBrHC76lG0apl7VCfUlA7s/hyDkQe4PHI7qxm4SCXPqMLVTA+UtvH4jmGXMfkAf0RpM1ca8wmKY4xZg3OpPzlwNCBUxyYGcTMkLsTjUDYiq1HxquVSFYTnNeJaY/qeUvmf5Ol6HqVDXCgwFbk0iVsaewSP32YzhxUkXTXx2qfJOreWWm31CuRd+65o8kR+IDK1Zu+NxIhHoqr431KZ7m0Mh6wozqP3cZUD0JOU9xYFjoGo/iPvLX0v4Wq3qOLC1QjWDhUVFxfTTxkmPrSwsYQLeX0SsSOAkVTJZZd6GHcE2PFmzERYpxYfCsvfJXfKeENkdC+fin9eDqFsAHj2JpygkNDoJtijtDQTqjCRsYSA+uudyOUSG7mIDsRJD47Kh7OJyj7tifpBYJUx/WlUdIEFasrADZjR/ghgHD3WcZjVNaNtargHpAIw29Tp04Ba/F1tToIuFdLDU36ID9QbySRYm5vQghgZp72qEuCVXluf9pGO10JCX5k9fLRUiGA1zFnrVRS0VIBiqMhbpX5onIcXDBV7sIcMflJtWG3h5hot7eEFWYBlbJiC0kmWhttUBh8vG1zUARtVx3onVMIxqLyhBh+dTYpUTeEf4sWe6vBgkhMlgFY1hLmL/Zj328QfuUdscE71KO7VMrQ6sajpmKbHAU7VfJ/L/EzKlLMi4Jovljup0L9Y5PLEgEnvsyEOboOlHb8blMPVWMvEWCwo8RXgh1ztTtXiwYIjfZHYjCLN5bFguTZo3IaSHbMPkTEfTg4t+poUAfhoaBEybLrfI5eaUbDTmF/axni9hkeAQf59VovPGO9EyzANWmPMWBQ/wbziFTa+U4phNS+iGuYigjH7ce1KKTkrtrtBsh8qKsNWrmPMDNW55GoVgWcwvDXMIGRSYGsUV7Gbw4R2wQUki5i2mk39DqF8visKAym9AOgmZpZDtHpxkiIgwFNewdhq8Jh4bTW4uV2tAUgeLBfJrRnzCEm6KcFW5HgFJkHLj6mGOF6+N32SmhWwHdkuai9VAejtqFeepLy3l1j2qtnXvUl1WESayjSDSy+xqZoo/uvurzrP3G+ryJcsewhRfAW9KgbYh30S4ZuLAPuo2amyA9dBaLxFQdWeV9lB3/0dqoagasUqu0g1VcJQNXNWFQeJJWkjF1ezAcTiRS5E4uQYSv+cxFB6g0GJM0bpWGIT2EDLh0SiTE0u/eckekREZTsHMLgqSaGnehhnDvBmHKhpgEY1+ozCVbsugQIzDsHz23R6cmrwWQcT9T6C8xvBZhwHO8PVKmkbg/2h2VTm7nPffBZgg5osI9AxdTn7Q3N3IFNomqdWkylTIAJ5Cee8LaowWipEMJ0JoaVCYM512WAtE6TZjE2fcxEdyPCYiHzyVOZ8MpC9jm9/9spknyv7ZJ+ZR5K7ZL5KGLNoz5V4eIldancutHqhNV+X1+kZv06D4X4UDrOzc7gNoJJj8HPUBOxJ5O9mAXbnF+xh4TnyjtkIcBsJlwRP67Dwey/wMZIXZmCGg2T9fi39ysp5Qdk/MNziaeFdx/HlZTx/ZgGP1gsbSt/l0wRoe4YKPEOfCVLYUvonXrynXfemISY0aODyN+BCtLux/IlX0OEarRfgQFUVbR+tH4CPdz0KyaqqA+xI4Ro6wxUT8+kQh+SX+7XHeZyonlwgBW7yFnP1U8VSMLn6uJosuzFVRaImuwB0xUHO/mqw+gRpruFmVYXBi+lDSZD16kvPZPrY43N4VkSEKJozJ2J1lzuLNy08Pp+sjgi6Xcksdvv6o19VZzvJk1EptCyWM2paG+BpLeNzt3qy4m6t7PO0elwu/0idyu9HTJjYLiaN6NPlC3oSwi5clV2RnzrzPlV3hzi6qI+eJ5jJHqSsN0xuxiViJn6sZzIlR9SC687UDlaS9Hf6L43ZesYv/lUNwsWkJO9EUUzoyZI3bTLwphqEg85QyQkP5Y7yNp8w10vymPVeDs7MJFtbaa+cwmoUGvbWHjly5GBwmwm5cOww2oXaI/6GtsNJjsIvobS9MKfXTJ4bZnITyoDRlZxOcwDlgrLT9HMyumzjIO2Q8BZzHktwFP0aj7L645VGsnI0f2szZjqlbsJ79MBn8XcBDruhHf1q7/uDpR99f3OhmFlAwqlZ6O7Bn6yZOszwzRCJ0AGOS6oYbuxKtvt0/YN6PHjLfXbqNIDsH8I18gL5RcMKb7s61NjpP693CT9DeLm71h21IjAN/MYf211lDYZPNxCpQ41lJJhgTdaFFRzye+M0/nDN1AZCdJaNbZWvcj7ddF8D2fgdMgzaqypzCY21/EJr+TiNIXuv7rzGEC82KqHGkG910mPEYOWPw773lpfPPa12+xiZHNtBagOTT6ix7b3Vg32q+6ytanX4i3pxuKqFcTqI2/V5t8kSaixlUN8i21kObfery6xVi/KidP0hgQ9sL7NNydSYuVHtPmc0vBf7cUnZR4N6RtA8v8QntNGze4p6Ruleib9Y96hfV1LycMQXwroZUmWgBuL2c5b3c9yUNY7Tm0YPlPICTzHtp14bMx+rIZZSLSxkPXl6jTkfQGJwJ8/s0wKvsV7B6T8dTlqQfcLjNWbM39UUh5vwCG4qF7HSC3DOb8wMD+9OOtVDqZzgJqmt96mxQ9znZCfRSWpq+v14+dwtra1Y7Vi79lEmHMNLbG3dMrc85UN7ZPodXlhYzvkRMS19dIMxgqiFRXjJVDOyZ/fEhyis1CIxUJ74YaJ7z5H/5apE3JJJcRaDhWzAROM1FmJ5DWATC4VaOX4xqDjDm79a0Kb8Z7qeTk/BZ1hsIUnOJn7GZa4s4A/oAr6xSY5Q5y3gwxRMqaamiCZ9c7tlEyHjAj5ua+LTqqqlQ/I9hi66xK0JS4b92Hg6tMNz4a3S4DorAx3dTvq/bpR56BbgrbFbgI/xscNbgB7t3dys7IzNTZ+UbVuaDzt729YnckN6fvs3pI35H69rqSNlWDfXAAAAAElFTkSuQmCC;" vertex="1" parent="1">
                    <mxGeometry x="-140" y="42" width="108" height="109" as="geometry"/>
                </mxCell>
                <mxCell id="15" style="edgeStyle=none;html=1;strokeColor=#4D4D4D;strokeWidth=3;" edge="1" parent="1" source="4" target="3">
                    <mxGeometry relative="1" as="geometry"/>
                </mxCell>
                <mxCell id="4" value="" style="shape=image;verticalLabelPosition=bottom;labelBackgroundColor=default;verticalAlign=top;aspect=fixed;imageAspect=0;image=data:image/png,iVBORw0KGgoAAAANSUhEUgAAAPoAAABFCAYAAAEUd8sLAAAAAXNSR0IArs4c6QAAAARnQU1BAACxjwv8YQUAAAAJcEhZcwAAFxEAABcRAcom8z8AADLdSURBVHhe7X0JvCxFee+c6Zk5CPqMC164nDMz3XPuWaa75168uMRoUOMaY5LnE1yeL/GpTyUuiU+ee9ToiwsuiXF7PnkQJYIBoyKCIi6YCHHBgAohIWIkbuwgF7lyvVze//9VVU91TfUyc+eA+vP/+9V0LV999VXV99XS3VPdmCMWPFfjd+HSNhbaUXq79ttwmUxknAtaUXpqJxrd3h5spxBuIbzaBVYVXpRezIO1b4fpz9oQAkFJbPXSXcbf7qe38AownM9cjmarn+5qd5P/ykAbPMFrt6TYaA9Gt7fC9Ey7GyDQ57UX6dIyjcaWLQc1w+FT6Q168UODfvIPEg+0eslFreWNh4g/TN4nkcTKyn/iRcqIktPFryo6RmeAFujFT84JEKXnMlM7TL7Eq44WtFbWj+zoONDtM/kUfXw9/Rmi6O68kN4IYPLmsNjdFjW768/WQbbAuY1e79fgXWiHkxlsAeQaJlfzGoTpUbw2ets25HoPJUBjaekuWgDwS7LWzWAYAU19JUx/u1ebhoV/j1co86USMYZPX6bRofrorO6cbNZJ7HfhRTUyzsAO21c6tp6JU2j24mO014bLwAc3jeEy+jxk8PGPgAaGYR2m9Qtu9JJ12iIL72w7XGnzWNOlwE4//ZkKClzmdljolRca3h/tavXim3W4wYEIlvFXOkhtH13OgqVw2L+OFhvm1QhEYED5J+0VYLB6nnhWVhaD3vAxje76oRLfjz/LazvSA9ZodBAvQT9+lIRtSOEouNUffkFHTcDYOOz2NInIwzbBDn/aK9vBMz9WYCh/IC8qpCG1htPBDNbI1Oys6C4xw6+FTji6tRMlr6a/FQ4/rK7JxSZ/B4LwamqOSp4RdDd+i34bWX/pq4Eb9qIVqvEeqEVfB2RkM5tgDAW9ArpznQ7aKBNC0gyBXBe7o1BCkyhjZFBEUyfvtCDPWfjm8mQB6oayuryi1oQRxieQHWf8ZfREUfyscPmNw8bi7Wujm0ZI8glhxxm/e50XqvgVpdvxrmzjNIwMl8naSCqdXMeRp0gDkL7LHcIaW0YHcZbSIRdFwu03RA4sm3QQso1lwJD88WA1zUa0CZkNMOu8TnocDhPES8x028mv9wWIPxcLyAuCMDkOQUnDyvaDmlYAHieC5xt1EEO2Tjt054EUEOP9qQwG/Y3fa0fxF+lvRfFvYGl2Cf1YUx7QHuzI+JmhmgANloA72/RLZfXi1YBy88p1JFbgD6O/E8avRPxn6Peis7JDKtzuJ0dnau9BgMrzSvrGwcO7QgBO/VisCr1MdlpjskYDz/eggV4G74KrTShH1rNBN3kcGvQfJBIQ/kB7ZbLHsjTy0lsHg7ZOk8rbM3o07ELGW3XIj8XllQHMwDvTB9H2N9iTrBGCoB/Cf10HRQj00md47SyPHi9xveEOakEzTJ7BMNKPN73K/LIq2IYrljRYulyIaGlANN5XoE0/g1w/QmPtYRywwLySD41gKs14/sjgzbKR1gHPVjiSJQ8125qP88Cu7w3aOw/kTEbDF2evXFSFIbCEFLx5NGqXYaE03U6k3zgbZfH21YUdb+d3/QZ141yUpc0ddQojje2KYNJsGjdfkZ9w0wx8cTm4CYWEcwB5l/EvSi/KU8Yrh4wQg8u3rVG4qrCidDfejnOv80AZL19aPq61nBwh0xvndGsuBWxC+suY+Wh99EWYhpYw9L6rcYWQRO6a5c4ZFgri76+tSWp9uAUV+afFvPgYZDwWsDz9iFm+suJydRYeADPMo2AXhuc0vPdHjnFeWUSwwlwU6FWcfd8EEOJWP7m51R/9VGJsgfsbv9nuJbuwbPwzCSvwahxh++uglJY3k9Rd52Q35Mrd8uSqEuuSXYjfjQXQ9ZCvp5OIMd9MzcXpBkDlW/31IzWJAIPfCU6DEAvScPlx4Q6BvaJsY+XZ6qef1MHcZgUafXPQHap7xjZIpFR9XGmp+CB5viYRYHNxUqs3fDla9Gs6SrCINbK1fBSgtV8Q9JOv6mAOvH3fCuPcnTYCDfuiIIzPby2PHmxu8QMLjXB9FcvOC81GxMAZhHNhe4/Q7qY7sZb/Ebx5LRrb97jyknF15701iQAtJ3flckyj0Y1ytSrupJ8TdNMn0t/qxa9Az+yVBMDuFVtomxfodzWW1lIdBN34NqWrZZDvHFTwufRnMmD35zZQBmXjqDSIsYm4UtQeYZ2cAYw/ra97UMAR9MOGruBVM1+AVvwxeudYxhl0zI5rED8alf+4+IFcY9mVHQyfjQq/WfmdytmNpdKysQMa8zG9hc7RwQROwvbbvqE8BivKVkKl/p5+VOhynZSBadorgkLtX6SDWetzq9k+bHUkkRq69Rek4lFyvIrNVXahaAc4UXG1j1f3e5000YaVlUX67YoTthbmgNb6bmeAbWZ34wQ3kwFs+zztFeG49dPBRmebEWJnuzVQ6m+QVaSPive9FefW8RKM0O9Gg39TRwlcgWmK2ptX9Xut3S2vQRmdaIPRYGjS03jNAYy4//07HbQhmanOUNU/ob+1PHzwgd37yq3+IBy9ma2v97wL6PXXdyKGk3+yt5kIfxsC3KaDoqpBNHq78kPb0GNsjIneWoV29ePTpKG3rt+LccHK6P1KQ+G4947ivxFiAFPdcSpNj1lWgwS9jd83jyJyQI/8KS6Z3WgYvx3vXgmTbhxh+w3ssPj1s5Us3rLfIrg8ymirgaH/vtrrMrZRVshM+ezRmqDZ4VLGqwyGdpo8tUGmRYzdeDvsT4PpsNf5iJamInH+fP78k/E+FNLYTOowIuw87tXmYZ7C2XEGvjiiKL4KM+WbtbBfVJj6ltXbTWPYjivj4YuzUZVOlPHl1U53/XbYiwki3upuR/H5OljJYE6YZzl3lMwu7qxya2NCwHY/fi+XANlTNiwVOtHGNp1cB0WVLou/Mxvqzix7npitHnyap9Z92mXrwPT2oB/nFtUlKOpEN86EXfoiv4FNX0bry2ujKv2XHNjecSVld7LqdHPNLP8mnaMM03SECbt53Hg7nXDDhJuviMa+Ej66X3RU14m7uWw45+5OrgzDrxXBxLd7sTxG15i1wezGL+Jh0lwaO1wUXwdltEVpVfynKd+Fm3cWXr48k3HY2r9KOpcdaiybLkx2cZufdbZxiGusruZuTwI5xu0wPZe0VBzs/F+qowlvRVqDlK8FgDd254PBso4uwrSNYeinzbcZaMqtE7RzEMXn8gVqvozbCpNTuGGXW0D9+CWaNgf0x9ViiP3kCrijm1H6lCAcHof4PZIvSj6lSUshjYAOv1x1rLrfLJ2FK5h8e2K4p2NamL8Z74JPJUB7higNb4wdknvMkUOnPzwFSnIN3G32DToHm9Vhd7giSJtSuZ0XfQzQbt+V/ugN/7uOEqA/Tmde32u9UJ4nMg8M7D90VDnUDULdudBAM8wH4egvlIAMM105dmIQJo/U2W1kDQgBT6O10y9Th+rMgGEb0PInm45WCpJ1OnlZ/NLjZc0RJT8G3zOh3V+kjPICUG81/9p6dzXk3Vl5DnDooQdCAa9Cvp+gnp+DXBeywaUcdZvalCHXZnfjWN4QBf/bkO+TKOtrpBUjCJNPdQbpt9rd+L9JDp0ngOVRNsj4r50w/VtcL2Qe3bFLQmnVRwyLhnBPf6cT6MAbVZnx/XRUaadjx/X30j/9Yfb3jVK0lzdiCiidrp08bAnTZ6GgW6TTKah0Phs6f9/QgmlAKFKMBtNzfzeNhP+4QxUOWTl4cRW8Dt15IINSBjtKQfEaDjuqs1P5P4kP0sHZbX+NfvxoJfP27G43kMkneVAXHRRgyLxZbv5203voqAxBGJ8sbbOcHK2jGs3+8A9pXbCy/6Ojso4V8FU86bj0OzpGoOWaeJ/RRqu7cbLwjpL/q6NUp7P9V+97e2dtp3KrcFSwML4Z08UTNGk9YB45USol1qw7GVYIgS+l3zxxE2GX17bqbOMKOoCAnwZ9tuCTBhJFSv5NRzWkw5fGmixljztdgIqcT423Hy26CKLRu9lAnd7w5TpqgZ0ulmI91LIh1jv+X5EA8t4qnX7w8K46KgOfEYnSox46Cp0HxSH9JLJ2aQ1G35Q6QXkRlHixdN5gLxjeCRjcl1VfJNkQD//pzAtLf7SOMhC+UExZR/HFXIkdo7CfONT+kd3pfG6ETv+ohOHkOU+vdwBIDRNeXYYShtDntcORvcqn9Z+qp4p347ob4VfoJJPHjAbZX49AcwyVpRPJYyAbWblojDOkYfsbD9BR8viWdYCleDtd71ZMp2e8Frobb1V1T69pddNXQUnfIgrCG1Th+qomE8BQrlSdrp5mamS8CKYzvw4K2HGST3V6jp5oDuInsR/IX0cJ2OlSJzW82/mUv7fWF4WqetHXQsYE881uacT19Xth7n6LCIDhWicbOl6NmwDmtYvQcJ/TwQxQnivZ8eCbvSQMCA/MmXvdBiIwh76djYRdRjbUGSDPNzm0B1H2bx3hxTDzYKQY/7nSgrxg7Fh6q8/5HOXvVK+U1wF4/JBt5b7VAQTSufII7cjc35lkqmOnh8kWHSVohhvPFAWDW9yyOvF3GzW8j25vWtZvgOH9z9QIQiVUaC0PX7rQj9/aWl47orFy/8JRhcg6kgKjoI/Qr5GlWddJ9JL1Rj9da/C1OvUvESKjhzKcoL1jZHm0y28JszKbYfwsLJY+CMv/IBTncSbeui6IBdm8BnF+C+iWZQFWsgfuR7Sacf7DV1r99G9kgWs1ag5YlAW95Di+qIER8gSXr8ZCvmy0D6/c2dxr7W6axoWqm+TT9LZbiQeNQye2z2P04g1XuUoB6/5eq7chr94AWac5KIr3QXWKgvHbYftqYNMQJuw6wlwN3DDhixOoW9CJe8cxo2+Fo4/LQ6juOh+8M76QlwOb1s5Tl8f+5K2FuoyqCjVpNo3J48bZV4M6YV/eIj/hhm0s8KaIDJHR6KZOdzhEXIuLOqzOH8G5lFu5xsqOgxV5Ia+yMlyQ1kdfl3dZWWVpGcoY1mFQq5AKFJVJv3EuiuLvCExT7p0l41xQJXydyrk0DPvi9heGh3sl7DjjCB8NUeQnGDbOwBe2Yacbv0tjw6Z14cYZXm4euZrAzzM2S0a3QVyUlTttHl9ZvjgfivL44otQmD7BMAjXzerYRlUB84Zd3rRl183LNF96nfLq0BjMwm/aPLXk8RJle9bedjl6R8VuCury3kwZ7ijMUodNq3eeMfaEfFihNvv5t7CBKiGYblwZfOl2XuMIc3Xh0tkoy/PLBlMnu26V9cwR0MLNrVe6VpheppOI/W00n4A/T/h5lasIdeQtp2mH6bW886T2q+Nr0Itfq0ls+Dqwys+rcTbcsA82jfFXXW3Ycb50Ax9dGf084ONfp8w68nlpJNDqJS/nfXF2tOls3usVJcBwf1A0uo9QK3ovowrYeYp42H6DMjqXvij+Fw13jPy80S+djo7mXK4ep+rOR7jFP/qOUSQU492Gd2l9NIQdT/hoCF/YjXPhS6/KY1CXzsY0eQxtVR5fuh1Xl48iaEXpGWo4V/O4PFxwHTt+ZZ2H4NmoLABwaYry2PH2oXyMN2m+vCbddj7YaUU0NurSuHRl4To8DerQVtEUp3P4Vp3L4VxZugmLozLAQTmu1Vl8zNw4hk1cUeF1+BShis5Or8uzDsirDr9p5CuDoSuir0on8mmtMH6lsmzV0WohZ4Z5xo/D6nl37nlzWUFlYL4yYe30Mrg0ZTyrUJSnjJcvbZayNwt+WdpRcr3M4dLxurNxbUXJ943Fqz27Sm+FQ3Uo6yT47+xHtvvJXh5AwqOt2734HSZNO8K9chF5FQ8JkffUzKGuY9iCu36Xlx3nQ1maQRWPOpjI3+oO/xn12w3H47lZ11taPBSlF1+Jtn6p9RpaDnxTBu2zR9pT8iY/aXfBp5fcgva+DP038VIFUC6/vOslHa07llbN+TtMv8BOzpx0uizoeH6HjXwBW9fvpXiCnm/gVKCzMhzyLRelUON36CwY/lUdwfQqmv3FLPyzPGjT57GebO9mP/0f7d7oye1+/NZ2mPxAv+17TaMh79Pl0N66cbjZVfF/BM0I+QbIH8YflVe/4A7UJyIXICd3kM3n2pLNqj0I4w8pJTCjgLJ6CGjOKiwE3ylDBfawcrR+He1F0E8uVBUC7/zhNL4GtuPc9KrwnQ508HYxsDD9dx2VAe06khtjnELd16N37mxL2iCZOMCfL0rKSAy+OsqGrw2OGne67YRJ/IaJeJ2mMxdicXXn7c1e+keqgs45/A7knfHu8NWiIP3UeyLRLwvY6WI8YSpn9LhYHAxXxMjGr2WpTsNgyFET7T/51QbAjAKNpaV76qgSHHVUwKF4smO38wW854zjqATmmut0rzWZU/8zzS143RejyWsh7L7W1vhBrGxZp7eWVx/c6qdntnrDizB6fKC9tJ7oJBtKHr67fliq/miABsOQ+BrMnd/A3Hl2eyktfJ2aaPFc3l5yNqaai9rh8DieMNNaTh9CF3SHD9dkOQTR+hOCKP4y5LoQZbyssTT0Nr50uoxouU43bShXGMkFbGtzwo2A7/+XdLr0DTt9fAOtDLR0DsWcZ9TQbubioLfxWDOPjzudbnwkVhH4Qj4EvWurH3+UGmifJgVkikK+QZi+Log2HiujwmSnL/BJH+jkTdlOmF7UCZNTMDdessgpJMy2kBkwBJ6l6pRcB6X6HcqCrSY6fMh38X9KhQ56w/dr8pzSQtabmBcd/q3WIPkI+F8no16Y/hh5z28NDleHNGsE3bUnUqllTdJPzkM5n8AwfZXwyL9USiwYSwd/r6UTqNtD2GbtcDSuW7mlyyF2VAodroY7vMvcSqGX145g4SKAlY7GdP9tkms4gv++kNduDx7elfx9ArX6oweYf8sE0ejhMuJ4DpyTzlb5819GwGpXZA/TvBJ2V0PJE6W38Rxl8w8aA9Rhj7zD74w+aOxbpZytzvvtYSqK21SHV2doHbbxAMqMjnY/pNJo9uNjmQcjzCd0lMBYOngWdjohiqTbRlBk6Yds9FD/XSJ3werfC2gmtFh1rFqw4YpC1d+R3A7nsJNmx6c5UJ1PAWnpulFRwf+QESNM5SNAgBnGfoBOlqPZ2Ok+S4dsX5TK9rbtQHBCueRlRsgEi36djhIadATqQn7jvyEZYOH4v6Ve3XSnjmrcBVOBxPVj+SKOC8pgzbMCdPg+mboUjGyZjLDma2T3Yg317HRp43ynM0+ubmx/yauwkFk6R+K1I7Tj35ruK8M62uFkS4lzvLzgFkA6WoZy7Vjg6uq9s043aazkkfmX9yewtHQX1enqBftWd+1BarjKTQuBaLL+P1cQDWHp4O90OmmYVwddLFAWtVPIH5YgvJxOMoAczxArDIf311GwzORo1g9tcbKOyoFpMjooLKAjZcEFHsbKJzq9ubxxtKb5gI6yLL14eCfE0m2FGg/v5lNeGVpLyZGiDEiH/M/R0YXIBNQNN+54djo6TwpnmE4J+0OdpQhoEHT6trGlE+RDZ/aSsPJ3wBp/IokAhIXgtDSr00ejg2SuDHPblAktbqMsUUYFSYectmXm8mCufKbqjO1Zp/NPAyouyf3Z0EBZ3ni4XQzTR0i79FL75pOB8q/sOFg6avy9gmxOtyydtDn55KMObHf+109BOt07vBtIHk6jbIdCo8yXE/TivxJrNMM8Ox1ob+OQgjg6MDxgqxwY4FbQhJU/2nl3Edj6Kw34v0kNa8mXGSb/pvqAnORtLaW/qawvNn93WuDfjKXR+ok5dpiwyxNwNLC/fEGI5hdaevxMtZgaWzqB6WAvy7vbujqX0QAd9B6ZKsLkLToKC7iN35L69JN36agJ8ExJrbSm0/WWbWJOz9UH5T2LvLH/Nvm0pdMwJ/fpgORHObe4I1glZCHFiqjOESsUjcvismNHckI6WOB2yZ7TNRbUSQvonOXkke4xiVmnR/nTgWV41wroBQ+7xSjViZIbdIygfHhHp/saZ2VlEfXEPC3D5Pux43gFLP9isXKtrBn4H3jwR7p7BzFrm2Zv+BS2HXnpKFj6Dul0Z07PgXzZFvyrs46q3LIRaLvdrFejZqcrQZcxxCnGrIych2vCYGb/z9tFXgnY6TK85/80h4b7R82LC48TdTTzLrDTVUc4H1/rx2exATBSPFRH5YCt1+vJsxkmL9ZRApRVw9Kt4Z1Y2n4YOzgIh3+B7Rb26Nh6hemH25H3fgC3m/bJGROGAB63SDq2rjqq0tKhIJ/gqNLqD812T9rHzOlQItPpKl4BV6xtqCwij3og1ukl683xAQpeCANo59NF06OEn4tR/+4kI/1BSsY5mIw7ZMfBYulLDzRfUCLNgmyxKJhaENnPyzEHx/djWjCIL9BRGV9WRKzd/SgRP38jSjn6sY7K8ohyMY8H7f7oD6hg7d527ggySL0LPtXjRXfHUFvfD3RMhiBM38T6oB1z/xVnR4jC9dPc35D5vAJx3yA/DOvZYdM22A4YwSZPse5276GmMzEOnrIv4OI46CUfbvaH8r2+UsC6jm0NRrJ1kc7L38j3dXyGVi/5dVjSBRQAjfFVzu86SdCOtt+Koe37OihYxEoYZcp/vWXeGmw32y+DJuaymznUw0KuRcecjOtu+VftYPu/aBpCZAui7W81itJaSeXDhAZBP/1dlH+rDM1seH28BxrrCTKqQW4zDclaQa4c3tO9PCpFmFjgFwBUWTs4jF8Mnp8UhZM88fhbkwC3uqjHLaoMXRY7C361LklvbHXjB2ly084wlo0Yi97vKnqTj+0LxzDzwu+eRMGvf0GmF2I7mymCjXEB2o/txjHS4UM5Wtyk28horSuGSOxJ7b/Sjv/rLTRBlPy2/nMgofJx+LPz8G+5Cnn+29IISvV+NOxJaNB3NNa3mgUX0w1tY8xrzealcJ9kS66se4yVEkPqq9l50rk8gIDp4WiV3/SUXQ0aGo34Ak2eA5TmYfz7NIbfk/Tt04nzdbgOGP/dWF/Bv9EbHoLUsfwueDKGkdd1mJK4FtGUeWwZHQRlLbzlPFFgcFj8UGvL4MI0snEGvrC5us6GCbs0drx9tWGn2c6FL45Q8b37HSKWPj6COoe76Lt/GGH4+et5wZWpSEYfpqU1rhAL/E6PfUS9A5uBezWwaWyUxdl5bDo33TjCXA3K0mzk0jBlnChDfq/4HUCZevQHtIEi3na8j8bEFdEVpdtu84Ch6ivaWwVXQIMqAd10E+a1KG8VT6IOTQ4Ytv+U8ySu9qIn49Puxm+V9Pz9d7ecMplNWhGNDR9N3TgXhTR2wrQF8mr7bfjyuSjKU5W3iI7hqrw+LHA+p7UH/eTP9SPKBdmPh8ln9dAv366xMEs5dbG/vGfOX5TRjq/jd+GmlYV9fKrSidyWEKiTBxY/Og2r732dbTyn7QhZWWMev7Qd5r/FA5TJVcgfKMtnwHAZD8JOn4Y2g1uI8ZfF+64u7HSXxsS58YSJ8+Vx4dL6aH4esFlyzczXbjDjbNRlXJeO8NHacfSbsPEXpdsoirdRll7E04Ypow4t4YsjXB52uCzPpqKsAF9alUDT8psGzF+Xx2bKsVmYR/3q8qhbjg9uXjtcxneWMk0eXxl1+ZHOzV+UtyjNF18UVwVfvk2DXdA8Cp1V+GnylNG6abPIUhfkXcS/brk+uml5Mt64KszCuwp1aOqAfAyvujynKdumLSpnGn5l2B8+PjkNKvnOXvChOw9s85znQXpjYyDnJxLkZ1wRTFrRtQhMN45wwwZ2ug2XtizdpSXssE3nuxL0G+fCpTNXN95Os69VqKIrS68qq64MVSAfm5cbLkKdPD4al9YXtq9FKKOrykvYND5e9PtoymDy2Hltv8AOuETGEebaaPTXHwUj32WeC/KGdNAbmhfFDOy8RJH/V7hj8au2/xUqsGXLQW1+wwSGrV+Q0E4/yI/Sm6r+qGhhXgpHPsa5mKdS2+UYVwRfehW9gY/OxLlXAze/7Qg73aAozo1343z5quDj6cItpwyzyOBDFZ95lePCx5dxJt5Od/1lYYOieG9CLtwK42P4kIkfaTLGLS/IysskqfYjDYNAC4OB8wkUw9/mWeQn3LALm1dRXkPjo6PffRbjwtC4+ewrYfsNfHRFKOPlC9uuDFXpm4E6ctmYlv7OxrxktfncofV3CxuHo+juQX94nrwamM3g2qitsLzaJ34MADIYjHYFW7MvqhDk6augW7YLH52bp4oH4ePjwqbx0ZXl9cGmL/ITRXx9eYpofSBtGb0vrQ7/WfP5MGs+g7L8RWluvI+uLt8yOh98Zfv42fF2ehnsPPXBF8rbYYq9OJflyrAzYzf7c23cythxNXG8YgWwYL2AXQFbwKoK2ulVM7MN0htnZms6wk5z4wzc9Dpw89QJG9jxmwHDf15luPx8fO30eaCK36xpRTDlmbx1ecxSFuHms8ueGnZG8QdR+lgY7B6zVFcztjZkMWjlaPhZvBi9MnKhZzpXAuqvSz6DLBLYrYwddvO4YRs+2qI4X7y5uul22I6vgo+PfSVcGnv7YMdvFtzy54Ei+avKsdNnkWna8u4IGBl4LZLHptk88Cub7Si5Td1wo7OMWAxZG7o26szIdZw9s8tAsE3+6WP+sDkr6lZ63o0zr0afh1zk4fKZB98iFPH2yWDiquQxtD66qry/wtzQS9ZbYXqd/K2OxivOGDWX65YxZ0v2sVEreisPHWd3vkDcj1+lSzGwO9b4izqb8WU0RfkM5pHHDtNflk64YRtlaYSP/y8q7uy6lJU9b7lcftPyn0Ue5jGuBlZWFjHzfoKfJlbLby7N9fLczNpiuMrIxbCzeMTpQcDQZHl4VWm38C+dujQDI1yRkCqe3+3ml275BVq4Aw4ddhvG8bPD479ruhV2+frSTXgcv7TtsANYFvizLOMWu6OQfwIHhZ1nnG8Sbrovn0vjwkdbRm9Qh2be8JVp4jZbHpe/HITQ2AK9oZ5ol9Md1wn96CCdf3oYPbV42uW5ZUt4ZWWJBzloDrNgunYNeslvy78xacS2YWsnRo94Zfij21thfEs7jL+WGbht6NqZFYCk8dFblJxW8E3yUmF5nCdWGqcg/9fla8bkZ5w80ouvdo7FtPn5eDPOWyb/taoOBmB9TTk8Lya+DP7TgnD0XzSpi5nLnBLz4FEXs5Tl5pmnvFW87PSFdpgc14pG52ArulcmrsF26VPpV94/0n1r+lnOLFq9r3L853KU/nM7TN/R6G3b0DzLsbQGPY0/2u7HV5v3TcblqSNhTFliHyZu9XCUjTKpy4P0Msj8ap6oprna2P+2hIBn8Q67MWaj4Mbos6W5aZgouQGGd4Y0kKaxZm84xOcGB6wU+snNcgjDJGpXAGW+T04ByeSAW4Fhhun51gkn5JfrdO0I47fDAp4KYozc1JmNH7gHSqk8RXfuiTK/udrxNspo7LAdb6MonrDzuyjLV4SqsuyrwSzl+EA+dcpvdMLRqjE4pYfpNQ11Ip4fPOVFnaN5pRgj8/BeU5h8qNY5y69pNKGnn5C81M/B6LZmGB+jU72QE2Ki9DsyIFBO6GGrl3zY+XgKUaf9imiObLEQ2ZtnSq6uYry82o40/eRqGNd7swFA4pXxiYHocJZfGnl0ezMcmlNhZwJm9hMWMeK2w9EXYYAXyyjN8mQ0TP5akxFuZRkubCSuaFDnfXSYCb6TzQJoE+cQ8mkburRcjTo8iTq8NgPTlDmvuvpQlrcwTR3ISoOjfoqhX4Elc+6Qu0IcuvPerUF8jpxKQB4c+Puxe0xkvmwe+hYlp1MnlT0lu+u+NYoJ92NSFm0GV6wkP1l5GG8FLOGOClrh6HIxdBZgGWnOkLM0KD9mUJ7SJwas43MGLnGqcdV2gHRY8kfJC3WhMwED0v/jVwPA59PcD2Hk/ZY86yd/yN8J41dq0vroDXeg/tfKKBoNTwqW1x4vstOxs6q/K1IHzGeci7o8py27qLx5YDN529jvcoyhq9kVusLTGusaugZ4qAMHqeM0wHB4eeOQFf/eGoYO/Tw9GxyidDe/uKRTS2FOlFS2A8dt6TTnuJfjqACjznfM7KhGPmWcyuBVBcXRv032Lye1o+FTZISUdJtGu1xY80OD6UKr4O1cNOBp/CYM+PJs2qDRizcwA18vRi6GyUFo+ERFnfFweY3Dvd6vcQankXfC5ELejAmW40dJW1BedtbkFyZ8yHhiYDgay7zPsu6yFSBvcViJZGGO9tj+hPFfN5aTI3RWokhmQbsXPxl8z5MVTJieak55boEHR39pZ+73cuViH8gBK0pvhMK9EeS+s+YK24g3UbF3PFPqAz6Kp3ayv4SjHjAdfYClsroOWEfEc2DuDX3fBRiX2U2joJ+8C/37I7a54T+uA/w8yFH0LPlHLIWfqXMaFLYbjUfpMmRif9LQ75E/cdTCRH4DTCovXKQcuh2gF1+g7ehk5lN5taGLTkq5MPSVeoaOAeR5soWWMqh7yZfAcOKLXRqFshaiFcXnKMFQAIVDQVIhJagOq3hWEkuR17eWNuTcXpMuwkle7SSNfmXo7Si+mefh6yINxg00CROfpdPQebMEnXWuOWM46K0+RjpRZGdHJignO7fX5uGW00TnnUVlBb/rqGyMDAbxw0TeFciNNgl6NZbuW6L7wPC+oBRS3XQB74/wvQRNMcbORrvZW3sqDPMbYjjsUNIvr79UUxhkMndW0qOgAFdhyzJu2yj+Sau7cSzq+z2WC37nwCgnzkoOwvjxGJj/XRSI7ST9lx6lkwvRjNb/JGtTyIi2v8QaRMeI1o5A3c8U5Vey7WPdMYoeoCnkDGPtJ7I2bIcbT4NsN8vKSfXd5a3+8DmNgw+2/y+hwJtdveT9ok/UVTG65MuLvNOt4O0bd0aHrFe4RwtXQPHloZtR+lXpX+o6B+sofbqkKSi6zNBZJ/YTl+7pIyStBPJpvmh0q+Thqbf99DP8ZJFOnhkUKmuYoD/8XTMq00lFtN8NswLYDz+/vbwRw0Bukw4S4x7T5xwHAioKZgXrUdhMgAynuoZOtHobx8gnCFge5MNA9M2iD2MZtPujP1fKgr15d/1xOrqRfTYogmNneT4fZCPoDp8IHtjTQ/nYNmF8ekU9xwrJD4GE6ffHeZN/aWzNTrmdhAxCbFMqLvoCyhZEyVeq6gq0oXBfzWaZKPkZj17WaXmoR60fkqOQhTbd2+xvlB4aLhhQH5Kr1GBCg4ovLbx5haUzBqAvs84yKA6w2uituY9fC4EB7Z0yQFLv2G799I910gTsGV0MvZ/YS/dxX9QA+upjsiob69mbdRIxYeim/VrR6GNYAbyNpxiDBxyvyV+iv8/C4HWjMm7UJ+RN7uFrnIFxflhaeuBdUMhZckZ1idEa5YKwT+UHWKAwN6gGZHo+n1q+wa8qu8vzHJ2o39D8iEyUnC1LYMfQCTTY8bJcZNmq8z/jHjtt0O4Nn65m0u23NaON5+pogRg6jFwUloNHydKdN1lQv58JL9KGuQ/O+WDkGMvT27aBFdU1VEJlIOkl8kzWA6w2Ho0ZUBSWgwMU5ZIaRi5A/z6D7aL7A7Pu6AE6KYfWSnJkJ0r2sT+lXmHy+bqKhyX6y8hf+h56grpMfn2ZA0mUfCQbSPh5sMOSstMYvTrCLzqIMVHvwKeJ1YFOyiEzdN1u0J2iGd1bjg1s7042ZfKKQXbyrc/M0FGW2EKyF/10didMT8D1xLxjXHoCZPo0JpS9sloQvWS7pBcEy6PHa65zBL+71k+uUQWxUbQTYbWjADSm5fhJXFZA6b47rpBOxzVrWOkEjqLxsbqU2aEM/dMyo3OP7hg6FQizxLmZPOzUyTuksudE+s38qhOWosfp6Az8AoKRX3gVG3qA0fdvSaPok72ewaxSeYign76Tgyz50LV6I+/jGBq6qptqV6zEjtdJlcAg9ExZoai67Zv4fImGDF5huo90HDihkJ8qMPSJuoH2f6oBH47bicFkv7fC1fup9lJ1wAx7hk6aCjCmI6B/12aroX5yDqInZBov3amXLC93M65W/xigfmeLocMu1EA2fL5OGsOa0XVb174ZRyyE8WuRDytl3T7h6KaiQXlmtEPsg/QJMqJQolT6avysgPqSRcBRJ1Me38CAtKC/8QbFfSpMdgAMHQ2tDF1m9Mk7pwdhqYgO/5aMjOxckTV5hk5uNA5bWYJyXEkeqCcVbOLRBb+bC/6qTiJ/gaEPh3fFiP5VUTTShulPGlvTNZ06FYJ+8m69jYDMmOn6yZ/qJAPVHn3M6CIbBiAMMKiDz9C9yiufnzN9VWLoPCoM7fw5o6gwkFt5spBOtZEvZwvaPkr/1ciGMq60PtqRoROOfkfzVQNpmL5JJ1UhXx76H/X/upRFWaP0fOeLqkJvDJ26qcub9q678OHR/2h79aldujDd5b0HA0PHoC8zuhq4a92My9WNH/aCLmBVpfQQ/XEtZN6fN+gmwW84gPEPdWflHJUa131BL30saWl4arlv0i165IfARV9h9cGuLP25yvNDX2jc8/XNs8kZ3WBlOET6j8X4ZPBBQ0XDByOlCXkvFoMKY37ex7sclY+DwZikk+QJg3wZzv4HnpELM3r6gaxDo/Q23rHXaYbGrZMXUIx3yR1skRnLUN6QUmCeLJ+Z0dUsVmjoXtDQ1XJZ9WHFJ/qamIXeZgYGVVZ6Rru3cbhOH2Np22Hg9xbIrlYBKAPG9bWix0/8oq2a9VU9MDCfhejCtikCtmq/DplukPaXMrFV80At3VnnzECLDL1YhpXHLGJQ/6KaQKjb0KnJ/28o6Bld0Uo9OaM/WqeWYVw+t8Vhskv0SmRO9nClpVOnhlGiyQoeBSUO449JAyphlWPHhMlVbDySgebkTBkMHRtVRrtsxjD8J8vxx/mhDP08ZagThp7j0+nGmDW27zMNBYX4twB5ZIkXpdc1lg7334gCxjM66iH0E4aeIehtfygU6KdSDhTOUbZadVP//cc+VXhwCZryA3j+8mDo6r4HymJf9Kcx9NKlu1fWYHnj9zIDoUFxMMJqSAYMbjXol9c3qSfpldj6vV1/sK8MART/JOHBekSjXa3u6m/oNB+8eoNt2jvYXsoQ0tuD3sbv67QclKEr3ZTy6s/oqtww2QKdv4R5hQ8Hvckl+1jGzNA1/ZRLd4I3P9lHkl/qF98gnxXbLATdjUdACW8WxWJDSSXTiw9U3w2TJacojxkI6Of30fxgY9jOoMhvoOKWhvfErKRmdN8e3QFm8ZdRbjaWOL4nH6a3BhgENImNrFwzo2eGF3oNPaMPlte5p73VKAH8n/e8q0z6ibqJkUfpNUo+GVS+UfpIRWZ0fj6UdZrW0LF0N9uDsqW74MgW6n0qZeKKDf38Hp3Q4J30xcFwZXElHtAIdOx04A253vBsNfBIW+8Oeuv/WadWAoZ3irS13DTFtTvkh5m9yGZ002ZR+l1+qFknFwOzKic7KUf6ViaY8xvdrv0hykkoQ/84V4OiEzR0/41oL7BS+F+Qc69ZjaK/9na6o7zOLm2/P/T71c1+/AfNMH0qH0k2e+vYTmfP9WcDRrAXodB9atkcn4/ayLIXFXitKA8cZ0x+HlQyeJR6fwGjjdGA39d3c7/Nb//qpEJQQUVZZbm1A0vi9A91UiFQpyegLPWffA5s0ejbja1x0bvRqp68fyCzFGcYdLAYfPIlftFT3mxCOqiaYsTRsIv2fDEMVl4OUQPl6Kft/rBSNmyFnpoNXsiHMj+K6LK2ztKw9Hu9yKWXzeivyWfigHpsmlwv9YBDvvNgLO/FSuMEcbxTbK7GP0hOxGz+Lgw8L+TLOyWDVU5WDDiPhTw/Uu3Gdkiux0z9OulbpUstDgo0uqA7fDgM70xjsFwRNHmjsOgNNQ0YwFPEYJTRYJAb3dbuJR/nUhjyHon+fqj4w+HzoF8f4PZOytB6jba6Ce1xXI2ViqB92OoIPLD1ZVl6exIml0PWp3ELyfc0xMH4pewI+hbFb0P5F1Ef1FaEbZHuwQrxjRw4NGuDJrZ2L+A7/NTvdg/bpEG83Bykz26srd1N0+wfmuH6s9AIN0LwC4MoPR7+vejkU/TfN4k6Bu7S+PJkcRiBXyIV5ydwscRF490IP5e6e6BkVyz6DV7l7/UOgKyf7azf33eHPVdu0BvBwKWBb4G7MXMsiy8yyIju/wCnDX4Ol20Cpb1BjBLKwtd2O2t0XOpKGXvRud8B79c1omj8RXQl00R7NLsbTyMvyLGbMmH5fiOUkvLdhLbZhw73fnOZQP3fpww83QWZkEfy8XqLKGGUmPsBCny/m/deBqMrUZ7cENL56b+BfSBtYjvI04mSPcpgjbLKIMHnzJNvjymM/VitYYB4Kfr6Ura18OG2gO1GxzZk/VFWKxydyS/d6pxFCDAIXiay8AlL1p+67pSZ7cHVKrYOrBMGrauR51LIcGozSp7b7qbmmwUGE/0CZHE0WKk3+ghtocuzHI9mY3mhyIOr+BnHNyS/j4H3fLg3St38j1fH5XM70Ru+WF6G6o8ewFUA71no1JkwUTksVR+FxkEHcBaPX6ujp4GvwYii+LqYNj/p97dMg82QfRaec6mT/G15sF0OIYHRX9+Y4mUWbEf+Ug8MMqhhMC7ajuy3nBqGz7z4GZi23Cz+m4U5ybkU3w+df5M8ourHL9Gx+4MiweoKXEU3TcXn1Ei1MO+y9odflhczzDNkJpTtwfZ9GMzN/rA2f8yOf6dmYSyXw2RvAY9p5CVtGX1Vug92Hl9+O+ymGZTl8WFa+rliusL5/DJMLmrD0LEcrnpnuoiXL55xJt5OL+Jh4Obh1Zenig9h07j0hm8VHze98EbeDKiT19CU0RbSoG8/pPaIsq+9zTxK9cDPX17rTb4ngwXvzIfxBfoehQvmr5LRTndpy/IauDx8qKLxpVXxvCNh5PfKVCW8N1MF6uRxyzBhn9+ECTdMuGGiKg/h0pirG+86F3a8TVcWb4zehAnbb+BL88W5KIovQz5PtJ5g7/hTY+zYw18f9DaKjN1G0OwlL0bePbIa4IovjM/kV350eplss8jtw7z4+FCXN+kMrZtnGh6bijIhq+DL5/OX8WVaVbqNIlo7vi6NS1eUj6hD6+NZhao8dnoRnR1fROvLyzgTz3/2vRqGvltujBkX8rFc8k2kndYKRx+C/7PwXytpvEPNG5bq81zHWTdoCV95BkWy+fKU8TEgTRkPG4bWR1eUt068zbOIflrYPG3YcbXLmjZTbcYlIA8fnyLeRbRFfAg7vYiGMGkujR3v89uoE2+nc5Z34+30KkxDW4RyHlF092Y/flIQxW9o95J3tfvxO9v94bvb/fRt2I8/jycIlzzD3R/5ZmkPG5vfNtOjDr9Zypw6j53B+HmdpfBfZrjtMUv7/Ly1qS0P/dPIV4e2Lr9pyrVRV+ZZ+RNFeU28kWF/ypgDGo3/D4Eg2vYgeKJKAAAAAElFTkSuQmCC;" vertex="1" parent="1">
                    <mxGeometry x="90" y="61" width="250" height="69" as="geometry"/>
                </mxCell>
                <mxCell id="13" style="edgeStyle=none;html=1;exitX=1;exitY=0.5;exitDx=0;exitDy=0;strokeColor=#4D4D4D;strokeWidth=3;" edge="1" parent="1" source="5" target="6">
                    <mxGeometry relative="1" as="geometry"/>
                </mxCell>
                <mxCell id="14" style="edgeStyle=none;html=1;exitX=0;exitY=0.5;exitDx=0;exitDy=0;entryX=1;entryY=0.5;entryDx=0;entryDy=0;strokeColor=#4D4D4D;strokeWidth=3;" edge="1" parent="1" source="5" target="4">
                    <mxGeometry relative="1" as="geometry"/>
                </mxCell>
                <mxCell id="5" value="" style="shape=image;verticalLabelPosition=bottom;labelBackgroundColor=default;verticalAlign=top;aspect=fixed;imageAspect=0;image=data:image/png,iVBORw0KGgoAAAANSUhEUgAAAGwAAABsCAMAAAHPv5dpAAAAAXNSR0IArs4c6QAAAARnQU1BAACxjwv8YQUAAAK+UExURQAAAAAAAAAAAAAAAAAAAAAAAAAAAAAAAAAAAAAAAAAAAAAAAAAAAAAAAAAAAAAAAAAAAAAAAAAAAAAAAAAAAAAAAAAAAAAAAAAAAAAAAAAAAAAAAAAAAAAAAAAAAAAAAAAAAAAAAAAAAAAAAAAAAAAAAAAAAAAAAAAAAAAAAAAAAAAAAAAAAAAAAAAAAAAAAAAAAAAAAAAAAAAAAAAAAAAAAAAAAAAAAAAAAAAAAAAAAAAAAAAAAAAAAAAAAAAAAAAAAAAAAAAAAAAAAAAAAAAAAAAAAAAAAAAAAAAAAAAAAAAAAAAAAAAAAAAAAAAAAAAAAAAAAAAAAAAAAAAAAAAAAAAAAAAAAAAAAAAAAAAAAAAAAAAAAAAAAAAAAAAAAAAAAAAAAAAAAAAAAAAAAAAAAAAAAAAAAAAAAAAAAAAAAAAAAAAAAAAAAAAAAAAAAAAAAAAAAAAAAAAAAAAAAAAAAAAAAAAAAAAAAAAAAAAAAAAAAAAAAAAAAAAAAAAAAAAAAAAAAAAAAAAAAAAAAAAAAAAAAAAAAAAAAAAAAAAAAAAAAAAAAAAAAAAAAAAAAAAAAAAAAAAAAAAAAAAAAAAAAAAAAAAAAAAAAAAAAAAAAAAAAAAAAAAAAAAAAAAAAAAAAAAAAAAAAAAAAAAAAAAAAAAAAAAAAAAAAAAAAAAAAAAAAAAAAAAAAAAAAAAAAAAAAAAAAAAAAAAAAAAAAAAAAAAAAAAAAAAAAAAAAAAAAAAAAAAAAAAAAAAAAAAAAAAAAAAAAAAAAAAAAAAAAAAAAAAAAAAAAAAAAAAAAAAAAAAAAAAAAAAAAAAAAAAAAAAAAAAAAAAAAAAAAAAAAAAAAAAAAAAAAAAAAAAAAAAAAAAAAAAAAAAAAAAAAAAAAAAAAAAAAAAAAAAAAAAAAAAAAAAAAAAAAAAAAAAAAEXXt9AAAADpdFJOUwABAgMEBQYHCAkKCwwNDg8QERITFBUWFxgZGhscHR4fICIjJCUmJygpKissLS4vMDEyMzQ1Njc4OTo7PD0+P0BBQkNFRkdISUpLTE1OT1FSVVZXWFlaW1xeX2BhYmNkZWZnaGlqa2xtbm9wcXJzdHV2d3h5enx9fn+AgYKDhoeIiYqMjY6QkZKUlZabnp+goaKjpKWmp6ipqqutrq+wsbKztLa3uru8vb6/wMHCw8TFxsfIycrLzM3Oz9DR0tPU1dbX2Nna29zd3t/g4eLj5OXm5+jp6uvs7e7v8PHy8/T19vf4+fr7/P3+pStIUQAAAAlwSFlzAAAXEQAAFxEByibzPwAADDRJREFUWEetmYl/VcUVgCcvLE8IEBCsikFE1gZkkbI9raHSBigUpeAChdCiVaq0Ci4ELVoFFBogNlTTKoFSoVBlkUILNaxlBwOCQCAJWwhw/oue7d47d3lL0O+XvHuWmTt3mXtmzoyJYBcQqlQD1OyDMQAVrDr20yxISUTsYGIAMfwnC6oJNIssXk/9GP8LuZJrkuOX/Eulz5+lQ+eBolbAFDrAL1lziotPWWErPrhkrsilKJ3tBVA+jB2DxEonasXFCAPFxhTCK3gznchTigXMbPWtAnPD03L51n9LpfAf/9qrQ37xMJ8bqCSFTnOEVVbIS+xIiMan8NOaigI8AqalWhykKl0A457CmGWoXiNhRzf6JS8dCZItxvN7FK9YbCaba/grrr16x07J/XH4G6lNxaZPg6EicT4WeD48zpXjQtF87VnaY+RrpwrhFd1OLmMS5QBPfvO6KMbcHHsO7965/UFSeEvbePwXLPVTh1IMZWyGyXwRYX6oxwDjTEPtcHwTU02hWjzkhIxaHMR4yimhVmIPd5MiAxVgDpOY73lJvY+E6/TzDqkkICT62yDDmyyNZKfLZXGyq6hBbB5NTD+A+onou6kWC644BH0PgFk5jr/mDrFYbCX7rqIXXShugVXc/O3UBPsALgK8ZsxJaFCTw2rWexq61yq/7+dafbbpGvJBltOV0FqvPmqPjhf4cEAUtdFH8gEJE+bR71tqVmosDT22y+dbS87+qhDGTFGpE7nMP1HqW/kpy0R1JT19kRMJFHurggCe6EYiz9GwmOu7u4F1h45yBSXxeLyEJTNZPQTMZJvwuVdLgPnqsc7nUTUrhs3iw0zN65BtzAnAa10UdZYIpkKd6YJtnqGGKZScNzMir8AD6kdxXBHeG3hFJXxordZBgZYKoWWEi/iYVRSs6OexW50A2+5mw14UsQ8iE8VO3MMGixyxL1c1gIYm7C42dWKFB1SP4mstM1p1Qk1Jwfdhsll6RioYM57VdFDJ/1kygtLc1WJJyl4a9uBpfFDvch2O2U8as4bO4gZ5/uKJ82oA+naby+3sz0GHPo8LA1B2qw3uwfRza9Fb+VDl2XS+ESRRDEDsIcVGpiGGRx7Y2QQjNpvTVbtT3BxOCJKp137FVq/aELrEn/5dNYA3yPu0yPeSvEhkEiMeiaoAOHCb7SpDDJVptaoEuYnOZ1S2WSDf6/OqBuEeqLIFnQ35saohuFpLVWy4GtKCNfzCUvEgF9qgGsEGhzZq9LiqHuZtNQr5bDOmGZSrxQPWG9Od3JfU4IHGGvz/Cv938jzHIYdHeLJfBpimRh/kT05kLCHm4Jd7XQv5uQsnFk6Ej2QC4LwCC+bvx59uBwEWG7POfeSpaYYjKnY0EufRT2NIMptJAV1ZHpygsDNHTWkoxEEXh8fhdH/DTQ2P/ePCPSAIwAyOHzRq8PhxP0aNqepMis52A+xSbyQFsL619DHiysD3VKJJcmF90pfgH2AweTiloqClQoTGJZwSWWgpH8OgIh/ntMLhMaYnBrlvYJ/JLaIOzrQv3VOtpV3uUR/yBBt6oLSPpTu2iR3ZzQYbdcA7qpuu13eoZDo7I/MyNXjotbRTNYDOqin2e7wpRnzHaggzSEvYT2a0Wg6rHsVgLVOnOqGmG3oMsJDL6OsZxYoQFXtt/kiF/sIilycmFtezIRUfUkGWGnYXteJqrKUDkzL33fLk2L3Z1GDBUSLpGGDexQFdh67k8LC9+g2UtBZlyPgLV0zMveCtWZgAxGK5P1CdptY/g5XcYl+qk0OBDas1B+jq3edWchHfUwO8gr41xjxF8lxjXmNjHaWS8Yhqw9WAJ8bsY+8WRzEvi2Q9Y6SSpxc9enCiQpxH54ALIsuAhp8WYNrCsDmKZuweRknTSRazd5K5KctJqzkfRhUpI1DQuQHeFyFKEE7TGa4GR5s6BVNWgz3idarBQ04PTV1NZ5Hx+AlSbnQn5V4S5Zbdaju703N8VjXE8p5h2RwgWfMTtiPOe1MVYKyl/QhFWRmSLypc7TnVYR0qt6sMi4x5S0UppgpsEZW6nLLK9FYJQU/WApVDdEBvxFBeq9OFx1UP0h59vEDlRypF5tIMVStQ2eJ5qYVz62ioWkeVbchuPeQg7MYpRpCfcDVjOrnTUh93sDNwd/2tcL+BLQNVS4KMdvZaFRsARg6srKzurDaLT89Wzu+r3+hnakPeFotwRY0ebdUjqBHJSyQSHP/P9R/rhkGP1+Gb3k9ylXIsqEblEplxIrneOp1STt8HV8tXiwebsds0cDbj4wgtWbLfyVlcpvHkFI6Ts8w3aHanN0BfNY23avPAD64f1RFKpsWJdiVfqAHBLqNLmn7885IQWioEVtv0Hy0TgNYjtFSIvGJj7pJiAa7j+J56YomFZOnOoQzHMTxfGihqLAY42A1r7Kc4QJkhrXClJ4sKr6A07SUnjcwIno5z5vqaBtBbp9k8muYTszQZRl6d963PG0UW9a9ZKMTwpgFWUHr6EgpVaVeIMmcChnHOPvCdIAfzu/MMAd9Nt94SnDDRMObhf0CGLykVxXzC+VN0FhpF2WReSM2gIyUhb04xr9zcFZ0CRnIdE0Ps78VzUiaHEcjXunFmRKi+8SoVeDVilrtj5ud8TJrAJiFFaDguJThORZNxY4Mmd6SDFb48vigpofnEpgeN6b8JhYMldkjz4MX8jpMjA5wNhlfksps+KTvLumms7XNITXBYl+xyupX9V00ONRSikywh2FRwMZuDk/y7NdLjD/VRVWj5FM+hfIQGihD5PE65bKIVtiBtEomo/HsAPVqPS+HBzIXGUaTc6mXVYylMNIKsMdVaFblBAy4S9SH4xnri3FD1NIph57S6i3+dSaG1e4ulk2b8JiNenJTozRNmZahOWhRr7mLRQiZNt8pnOK9XCtVEbAjuBRLtOvXfof5bZhmtN/PJvKe0vX8nf86fdGmx0SzRlCobB3gfzlTVmPZJZ8eNZp/MmzmVtFjrmInnk03hG00ln6+Zr7fd1Bm/A6cZh2gD4g/4oZ36U9ny5cuXBKMQnP3rB2gXyv78ZX3E+HOVErHYRvzMqMvn8Ybi49SCklW0QGKhRKClKK3hCOHk0S7/CgWOF9Xj8XvMztbhcSn7+7KtdkGRTB54302oexRTzY9Y7EKu0NL8VncjwaHDEXU5fHWf4Q0mgI8wtX3U2WdBaPIV08V4m4Vyj6HGttzGdo+h/JhseCO1T0TSuFhDX4EdsUtpi1QINZaep7SqMUOWqIk4QGmy0pl31ZAq3yyw0Y1tpmzXo5muGcAZ3s8gulqBvkqXEITGNXbyV8EZZNxpDPvmxxQ+dbdG+RaN3fx3L63mYjVGPGSazrb707e5M3yKgZXPbNphcDg6m0NZ9gheKSLSNFZfdey4cCxiJgdwQdJx4uEjVVUn3I9+54gmajeml7OleKqtWphQY1taqIeIP+Z0Kw9v/fwJtTBfe0/4ZevL860NhxoLfNRtQl8Z/E5dwYnTRUl7ZE3QYaP92DE18rPVd+PYkcPLsnOasycU6QAo4cqZq2mJsG+zxzG1udRtU8/aXD6l7I4G2bzZeSsW++e6SX7fUrVlSI2OT633qSElpbwa6yFJT8Y4jZn1akiJ7BE7DG7s2Ok29n01pMGLtxlugtu4jZlnIz+4ELL0TrSaWFS8q56WgzPFa8z4lzLCNNTvLi6aKNsDFtamxMkXZqRkuj2wtXlOrQ4vnNTTILL6G2KkupnTw9Q6YLAKaRns5CAJ3stzsPdYXEZbccTPKl/AjOa2VVo4RB3n5gHc/SeLet6Gr8VpRTq68KXWRm308EQhmhwv6fw16eOx33zCnpR8gj2BNn6sF1/j30yLYpkWRXqS3hzTjcwa28BRkbdDhPCGX4B7dmtJ5NTUnr2mXyHp/dCqp58736dSV6b36jnF2j/dTXPeVAyrhj0Vpfnt3W1Rh5ojRWMCMZ/IHVN0NJjtQ3n7/NKKPVDt9Oh0JF0HOVnlEhHbhe9w0SU9jW2sAPv9+tFtTL6zvZsB13qb1iPXYe8v0JM0ltxdeqYM2KUj6q0zFc9SNwO/2vNyxjNuLDqt853z9xszg77pqVrl1mldOE5S8Ck0KtQOd3cqUXqE+mGDtNFyXGHUQsytMgczEc7Q804AnOCllGzMgFIvp38HPOQtQ2SOMf8Hzig0+mYTAuUAAAAASUVORK5CYII=;" vertex="1" parent="1">
                    <mxGeometry x="450" y="42" width="108" height="108" as="geometry"/>
                </mxCell>
                <mxCell id="6" value="" style="shape=image;verticalLabelPosition=bottom;labelBackgroundColor=default;verticalAlign=top;aspect=fixed;imageAspect=0;image=data:image/png,iVBORw0KGgoAAAANSUhEUgAAAGkAAABtCAYAAAHVFH+6AAAAAXNSR0IArs4c6QAAAARnQU1BAACxjwv8YQUAAAAJcEhZcwAAFxEAABcRAcom8z8AABVISURBVHhe7V0LcBzFmd7dmdnV7mof2tXLkmz5IWNbkm2CbYwNsTA4EMzFOSpxJZR9Z+4ChtwBB+bC8+pUB6HCK3UcJCTUwV3IAUdMXoQDp3Ikhgo+kmAIDwOB8DBPW9K+JFk2RtLufV+rZz1azUr7krQ281V91T39/vvv7ume6emxlQcSXu8facbt9pRwyAV7WludMZstZeTHoPTOjnhGJJ3SeyyGjgQYE0m6m0MPkBwJJAh7sg8mLlLbbbZhEdAMxhx2ikIcSUR3ZzhTGCObUQbLjpjH8ydjBFaa9Co99JRTqqr+ym6330o7CdiFjxmcTue9NCsqKr6jKMrdCOxAAvuF5zECNI9UauNGp7wcH0Z96ZRe2WEWKeJ0/lJ6jwY916BU/4v2mBnJtIX0nXJKqx4Al4JX2myD/TDZCxQk1qtpr4jARpikjJ4zksCTiET37Rs3In4GYm73t42RM9m1YkW9DDoWqY4O9UBGhD5VfVt6Fwk01B+jdb8Jq5CDDRbmLZWVlaiTdAWNhhvyoHU/53K5XgCfkZFsiHS+w+F4UtO010VACwWhF5VuVLeR9OtR1atl0OLQqygHzTIxY85dPhO9CxeGf2Sz3Y5ERBfJhWhzY5tdNvQvX77OGPngSOQ0B9FPjf5mZDo5g6OEWSIdGbfEbER3FjXR73DwOjdwHpGZYSbZOFi4bA0orih3yeRyR8zrvSebxNn4CSijlw4Jmy2U8Ptbujye7MPlBBD1D4y5hdfU1FzMcQzj2i5ew654vd7rhecRQAs5AoPkoxhZRTXA/BAD5a65c+eew8zr6ur+hplxbiECAz6fbxsGT1HAERfbPmlasHA0od/r3RF3Or9Ee9TnW38ITTqqad8RnqVCrKZmi9nQo/PjfBZu4+GwSeJm7AkGvyijFAazRM3ItZ+Mkj/iHs/3zBLNRhktd3AN3Hf66ayKVDQjsfE4EjsHdGnaUn29jFsCIwoOSLeJGG9tvUIkNBG4IDBGXILbNpxFZp241TNzo38m/wMUCU2EzOk9uShjLuHFJOYpuLE18m5MsoC4WYlwTAPm+EhUVm7NzIhEYumVzETU48A+PuJ2e8yYiZF8+rAKay4EG5OBh+svmHpYSgz38RHB8GLMwIxsNHrVZfOXyU0MFN00kVzIliqTyR25DkNG9obDC2T0/NFbXX0ph5rxmjmn2h9u3QqVlRhdLtc8zvXMpmplA9FcnU4nWqspdCVnmgKYXH4oreNDn0QCKUwqv0kTE8d74A4VjBSCntIUD6qwAucsNoXl/Z3SXQ+THcxo27Zt1ZgCv4XLFGasf0ACz9MuApiYmLEOIMyzsO9FPI4iEwMZvSTNF2lCmkRVVVX7pk2b/EhkL5xeprvRRHV9Dpm9CvsOFKwF4f484mXBggULxy4OKEr6jsvJi1hPeb13RZ3OnWZzR/GoSFUPxsLhTTKJ8kJEUaKZhc6XnK1xjdcTCJwqk50+RF2u6ydaDuTLXrudM/vpAQoQYDPLLFSx5MQ+Xl39GZnN1OJmuz3nJ9D5EguQHpnN5KDH672XnZ1a4QKC9nWGdVt3Ho/XcyUHm26Pp/TaGkLHNcuQfM6wzNYJQbnyTerr/mKJvvo+0i0doPurJxoAuOgNjbPS/jpWlVEIT+3mO5ggUaabjCvKUDwcLt2I+Mk4mjKSzfL2jGcW49EBQRvAVsRB+0qRbaiAGVIQY9gHca3nw2b/RkuLC+7FATW1xyjARBR9AQX+4oiQWbWYC29EGmZNOaKqO+FfPPocjtcLvR9xiOY7fhRw+NcQ9A5o5WzYT0BjgLZS7bCfAQF+CGIJNsx3PWbp6BTl8PtL88aS6GlvX9iPZlmqwaAQirw17SZZpNIj4fH8opBHPsUQM47se38mA4na2nMTDsdHnLBme2dZKPmALurxrJdZTT/22Wy1kYaGzh5V/VVU05IYCcSjfD5D0x9Lkhz+WXj6R93uj6Kqet87NltQJmNhUtHc3Lyws7NT7GcpG/DJnNPp3FVZWfkln8/313DifURsUVq+fPlcj8fz/UWLFuH+eQRtbW1n1tXV3QhegssU3zfTXb5zZnwBuHPHUsrv918H097e3n4O8rt74cKFn6N/bW0tr3m/S9TX12+kW0lAoWCMYigU8tOksJqmfU1RlCd5DSFx27Gl5s2btwomC3Uhr02EGkUplK2jo6MFFbIU6b6Hy3fphrQ52pX2JTuFqqio+Antbrf7BhipqqqqNmQm9lhBwFv4GDN85Mm8KCjC/Kduz0FTl3CnAIS5u7GxcS0qimH42JRxuEUhBa3/O68tWLBgwYIFCxaOMuhToaMGWHFeEHO5Xu91uR6Q87U0+hyO9/mYjMv6uKL8X6Kp6UzpVZ6Ieb2bjbuq5Hul16KK8i2ju07uR2KYQ273fak9ewrbLj6ZgAbGFDpXCq05HO9GGhubZHLTi/3B4BIzLeRLaqzP6fydTHb6EHU6f2NWwEKZsNuhtGkEn+yYFaxQ8ulQ3Ok8RyY/tYh7vadn7ogsCf3+n8osphY9qvqKaYFKQJnF1EIMz5NApiuzmEK4XOfx6ahZgYolR80DJ5+8VOY0edhXV+cduOCCFUmb7QK73T7Ed0elHhR0RhTlFpltaZEIhdYlVHUvb4AsPAcBTmPgJfg1m214Ut5UqCqyKzGiqvqC2SjGJgHvNNE2hnL5biwfykorHaIu1zezvQRjp62EZhDMKFiSn22zIGZx8iXTSbW2lm6eB+0cNstI5ztjBRKcCXe+iiy2b7EZ2xSFW2xLA7PdWZl8NItQJDSYfBgaQwDR78ziZyNfqD1ksw2eYbenDgeD4pF00cAokzDLzEg2ySdRaAQ3FUoyOR9heNxABCYcRB80vgjTyWaG5jx84ZE0h1khfEnW7fOdhevCEa+t3Zbri2QUhnsWcn31nwyALeBiFFzucaDQSTeYGR4OIg824W5NK24oH4DKMwufjXx9jwnYkN2kUIUSKhk2bj9g04243RfDrzDsr62dO9E+g0xy9kDBalAYJGFa0ByZNPvag25dra3oogUC6531hdw4ObR/AKGuQ+euzVO4L6BCUJFZ72s9LtfTCFc4YtXVnx1vd9d4ZD/kIIB2mPwjBHsEAv4j5rUnwWyDG3efrLDZPrnSZjv8a/hD8uREu1wG8vnGOhvizc3BQwUKlUkWOHOEy2erDitXFqt4HHA4fjopc7c8eLiUAhGxVauaMWHtm5TVag6MOhyTc+BLd1XV+hjacy6zilKRzbOrvv7zsgiTg3g4vDauqj2lmpiOx+jIB0ZTg+TmzV7M0u/nkF1qrXHQ6FXVj2RWU4/Ipk1NmLE/cAAdmJpjUzEr6ERkPM7nYhUVpdskWCzeO+kkd3zNms9E7PZHYl7vaxiixI4sjpbUJGfXLLi+GqYfZyi4qT/Rt2TJKTKZ8kcymXS/73Y38WtLElpojpx4IrfhWLBQKJYsWeIFuWurPFBfX/8gDE410nS73f8CM1fwi9gfSTvBr19/Ie02TdNekVvaTBEKhU6Uu8NmSafiAIF41lyqsrLyy9wYqKrqHl63yicyM2bMuKy2tlbsf9Nx+eWXu+F2U1tb22pcUqD/HvERSCmKkhbQ6XT+gdvMaF+5cmVdMBi8GfncyneyEKZRVh7z34o0T2e4oqALNHIl9s9xDxvyEy+B01ojly1bpjU3N3MzoLjWNxNmCgS+BvKj6FsQ5kMKBPCb8nRaJATna5X0NcKJ4x+LgkGgNFGIZ1CTnbSjyZzPXY7S/TZoMIGC4MaehplAo6hriFiwYMHajRs3LoOVbk5ohvehlM/nC9O/aOgCXXTRRbV+v/9u2qGlplmzZn2fdjSZp1HgZ8FdgUDgBgg3CMHeYVyJMQLBP32N8L+jQI2NjXw4n/J6vc8jTawJhUBuXK+T7nUwi0dmkwNYo4dQkw20QxuvQFs3wfwtPVHA79IdhXoGbr+nPVMguI/pQ6iMyyFoqqam5hTDVk837Ho/fMrj8fwT4xSFuro6dkr9s3me73cVjBfnzJmzoqGh4XgU7jUwhsxuh7vYXAH7NSgcT6h6GJcvw7yZ7hIvI3z6cRQEegACic/3YX8C9gFUEPspBx/xWQ5axA/gvg/NbvK+j7BgwYIFCxYsWLBgwYIFCxYsWDhq8Mbjj7sOzps3s/+003J+ptXl8SztD4fviTU0PBMLhx/s9fkujQWDHYlZs6pkEAvFIrVxoxLRtNsOORxidxZ3ZvE9bgrstdsHo4ry276ami8PhMN8ViiQXL3aF/P7L44pSl/mvgrubuFbQ74lZBoJRRmIOBwv94XDV/c3NS2WSVjIFbFlywI9dvseVvR4J02z4qk8KpEVz/C5bvnTyfB83cv4farKzzBe6A+FLulxu9PKt5ABVJY94nI9arZ7bqpoVD563Otxv/+qngULfLKIFiLB4CW5HvI1VeTWFjaaAYejtysQOE8W9dOJ+Pz5x+NeMzBd29lyIffadjudzyZvvdUri/3pwb7Nm709mrYr3w3K00HevyIez6hNAZ8KxKuqrh8us2EuG7m/rEdVe/YHAnNl8Y99xGbO/CyEHyr1OXCTRd6juFk9MW8ez9f6FMDvD73qcLx6NAxzRnLNFpF/Gjj2gek2FiSpV2wTH8xZTmRvEqd5OxzfkJIcfeitrp7f7fGsj9bX3xjVtJ1xRXmDHwPAfiCmaYPcJ3wbiKBpXghFYchLFvvp4lRRrOX8/sdTHR0VlLnsEZk/vzHhdN6TcDgOcpc5K5qtzUw4ulNJy0FEHUN+v/0mFMbpbr5PEKaSuhzdFRVrUO7yRf/KlXUxl2s3V+e5Vqi+or/BZv7/KJ1Y4g/fiDCRMlYYlbQP6yYUuDzPOerq6KiM2u1vsaBmAoxHMaZjaNuGXoOkxigokwEo6lKE3QOTn/aVy5DIcnygafFzzzxTHD5adoj4fJfxaKNCp858eMoe8hQqPt8PSucj/DXoZS/BREUNsycX+iFQoWRDO4wGA+2kjnc69yRnz16zc+dOFeUrH8SPO+78uKqW5JxrVvL/jCgLVnPFTMDkasT/ByjuebAL11jLiCOpOWsslQKpGN5zOQo8jHzk4f6pOpi/h8n8DmjaQKSi4rtvrloFcaYZOzs61Kii7OaawUygQsie9QYq+yuoAGRRqMKM5MkCQ2uR3nkwLwPvtdk+QYUOvQs39OYk7nnJnhGmMpik/16ERQMavBLl2gC7F6ZJPvzzgmhslIP3TzaOAbt9IOb1ou1MIyJLlzZGnM63M1+yFUu2fE5xd6NCzkXFlPJUhMlgJcr4BBRpttbjYyR+tR7xem+R37xMPVKdnWq0ouLHkzUDo8Kk8MM/QGWcDiLbslGaC+X6OSjWTeOQkwysF3ujNTUnI970INLYeFKvouwrda/KJF9lUGkQmveBQf5N9yQQc+C8Jh/FMoT8vo18ee/L9Z7He9pBPkiurd2MNKYPH3k8Z/Upyn5W5FStbfjAU9wDQFRE8gVU3l3g5eBfQJHNI0pk7yuoB3K4XYI0/h5pPQYTSkmyMbLSzcozHjn8RRTlQHz16uOR9vRi38yZbVG3+zccBks1uyqEnH1yLcdykJyZoTdyUiAmB5w4GPdSGNxZoeIgHMZjAzCmWyjZcAfRm+Ka9m+yqsoDfYHA+f0u1140y4Ja37FEoSQwqmn8m3D5gdP2WDC4pV/T/jyIhTC7vpkgxzLFqOJwJBPBYHn+9DMTiXB4ea/T+RDuYYc4pBwtL/6KIe+d6EWlOYtvqpHavt0Zra8/K1ZR8bNeh6Ofr9NLdR8oB3KY49OKqMu1HcO+JsU++hEJhVoTlZXXxRTl5YSiiNMkqbipmjWWipwJouHFon5/eR+cXypEvd62WCi0JaZpOyKq2sOHvPJ5WllNSlgeHuPWq6o7e2bM4AEUFmLr1zfvV5S/RO+7FFP/JzGFjkUdjkMHoETe73RFlnI5wB7Nns20xbrQ4fgE/FM0EPhGd0PDcbJoFvLBwLXXNsbq6r4A5V2EXndx3Om8srel5e7e+fN3QKkvYn3UhXXSx1DAEMw04Z6A/9txt3tXYt68/4pxCEb8bofjb/tPOw3rXAsWLFiwUG6YO3fuuZWVlXfwnKRMVlRU/Kvf77961qxZk/Kofvbs2WuQz9N2u/1jHi61ffv2Uf+RQt5/B/87Ub47fT7fmK8jeF5aIBDYJsPcUVtbK/7kmg+2bt2qnXDCCYuRxl95vd4rkF75fVnI07t4qhasgoqipGl0px0V8XXYSwZU6vkwRPpUkjykLg3jH2lRHuOxgQIIr/B0MFp5Qpj+p9p8gIa4hnFhJfkn2/JWktvt5hmMmRCH4ZEQ5q0tW7YEuXkDYXnsWg+VSSFpgjFU2l0IO+p80qampg4oYTcq/RCYIhF2APliRpyzkn4oHDOA/HbBEGVAI7qSb1JRtoeQ9j7EH2K5dH9cH0SPeYTHLML9LLgNI9yoVyFwS5I8645pwW36YVQSKw18XvI58CUIg6XKiAC4vgPmqTCxxLBR6A9DoRCPT6xGr9iA6w/oTuHhvhJ2ViKPlRc9Ef5dGE4uwPWC5ubmi1ARb9OPnEhJE5FKgJKuhZ15rkd+Ty9cuPCruJxRVVU1Cz3mTrhxHwbDfwC5m9vb21ehPFfAXVdUrLq6+qsLFiw4dc6cOSfiujyQoaQBVMxe8B3Ysd5LVwBbqwe0tbS0pP8pPR6Rxk+Q9maYuhv/VT0KUCwVJvxzUBJP2L4PfEDyfvBBlBPLodFKgkK+ggbwDOJ3syeBg7h+D2EOMSzItNwMy9Mf4a8raT9PnqR7WcGoJAjHAxUFFi1a1IzCiwogIQxPkuRhiZfo4eH/Glrd6s7OzuBVV10VWLx48bK1a9e2bdiwwdfR0VF59tlnN6KieOI3G8BhpP/PULIYCtHT/LhmzxRp5TDcPSQcDeBwlHFPuhjpXkM7y4hGsA1hNIZbsWLFpSi7SAtMKwnD3xlIW3fv5f/06c4JBc2yAJR0v0FJj424jqCurm42BOZv4oU/WuMv6U7BUIFiaDMjFPpYq/wdyLp16wJId4eeh5FGNyjpZ5lKQuXxqFHhj3I8IhwNQHhOHHjCp96TrsHwxTJzAiDioczDCJPOR7IbFEpatmyZB3n/XLobWdzfP0oJjNcBGPy8vhEM0s2I3bt3a1BKPawkh4IQ3XVwbOf9B614xWkTHK6B1hlApbWHw2HRWiWYNzkmb4AzrfH8CZ66S/8ZYPq7WJYbPWkJpu4rsYSgH8H0KGcNOGZSgFFhNhrYEsSbm0wmxTGrFixYsGDBggULUwSb7f8BOfhYTNRTv7MAAAAASUVORK5CYII=;" vertex="1" parent="1">
                    <mxGeometry x="700" y="41" width="105" height="109" as="geometry"/>
                </mxCell>
                <mxCell id="8" value="" style="shape=image;verticalLabelPosition=bottom;labelBackgroundColor=default;verticalAlign=top;aspect=fixed;imageAspect=0;image=data:image/png,iVBORw0KGgoAAAANSUhEUgAAAFwAAABcCAYAAAGU6OLOAAAAAXNSR0IArs4c6QAAAARnQU1BAACxjwv8YQUAAAAJcEhZcwAAFxEAABcRAcom8z8AAA82SURBVHhe7V0JdBXVGSbLW5K85OVlIQECAbSgLCGeInCoJFG02oo9VQGLirhgcYtSERBLCSDW4ym21lMFcTlu2Da2KAcKLqC4IChFNkEwLEFFogJFloBsf7//ztzJzHvz3puXN28J5DvnO/9d//vPP3fuvTPvzrw2emRmZt4EQZLp6emnOD0YKD8/f7AaFkhLS2uE4MqmCMgoKCi4GUK2GACzCqMhZIWAfFMtOij5ubm5l6uRUGRI2YY8Hg99smkbtUlJJcbdEyZTG4eLziptZ14hv10nUbDysl8JOaBysKgwcPBlgRVcLle9GglFhpQaAhL8EH0FBieasrCwsA+kEegK/gWDwiyToGCFGjbAtDDTrELQwioNMCusAdfCTpb62mYU0Aoz7h93J91z2w005sZrRFxClAREYa83RybS5g2rqE+Ps0V89Yp3hFSKNtMMCS3DDBEVdjqdtWpQQN+0GYPCrLAp3W73QkjLoJSUFK4YDmNArZHU1NQPOTEcZIWQ8BvbNIY7ElkwLLxe75UYlAQxEl8H60VdXAiGM6mHZeVBwHOCplwoy87OppycHBHO9eVR7149ZSN01k+6U2lpRy0uy0kJ6hGonMnwte0gJMOT6RJSn8/D6qrlb4swQ83Tw6i88qKL6e7quzQl942fQFUVF2jxkaNuohHXDFfiGPB79TxXhPv37y/L6GFQ7g+zCpEgQcrRnXj25+5ExcXFpVaJ7ng111MZGg6HYyOELBzAjIyMpyEjAyy2MpfqGRGsVoqsAYypb0JYK2xUHr4ORsO1EM1VHrqeDcqZ5rBJOTMQkSivqalJl8MtE11zGpLtUW4GXJnxVS4TmkXcPDwBKWCq3IOJgicLDjOrqqq0MHPwYCyP1bBugqCsrCwZFjBXjsW5HPilfOzJOYa4XjI4XPfFZ0KCAkHdIivoce2t1bR21fsi/Yv6L+mqn/cX6fMWL6XZsx6PXHnVoJ8Z4qGkJeVjx46losJ8kdGzdxlNmzpVFhKcOXOmFtZNbdSnT5kMCwS1vLlU1yoCZso1oJ+vhjDPtIBwylvWFaoBkwVfbc1WDgRXrkIUwNU3wmyWN2O7du06Ye49yfX0JzgAuLzPgpAWNIeRA+vuZyDMlDWb8M5YyNgAI+pjEIYG0anYtUdNeMSfKKsRcYMeSbOb5qgAj1wLoTWAuyB+1BIVMNM+BGEwXBIH8BFk9NBdrpJRI9gtoJ5Rn4FEGS7Z7ANItOGS6LJ3QlpHLAwvLCz0QOh1WiKujRchrSEWhkcIrW1Mb0FvagOQaMN1c7G54bW1tWlm0yEM34RsrXL79u07+peLlmVlZVlsgxlCGq7PTDADEM7jWqY/gqUzbr95hMgr6qA8mfeHLydTqe9QHjExVq98z6Dzy511WhwMgGXDJSU4vLl+lwgfP3aEJoy/l4qL2mrleverEHnHjh7U0pgnRSpR144oqxq+edNaIRlchqG7YWAGICrDJQdeUEEvvvyKmkNUX7ee+lZeKsIH9jUYyh49cUqk9+jWWTOcn3dznh62GN54/ISqTsGsv0wX6YoJgUhPVepVXHK5mmJE//JzlEZVwz9d+a4SB7/dd0Ckbdu6UUsDAxCxxxPEAIQznJ/AHYTQK4kb0faJAQMG5CEcgLCGB0PST0DB0GINx2lcBSEq4iDibrjapiBs2SoSraC0tLQYQquMo97F6fEA2voCQmsby43unG4ZuHAyIDQFiWCPHj1ML17LgBcWQ5gqt5tOp3MZpD3g1RwW9HNx538IUdMGw9Htdm/3er0XIhx7dO/ePTvYo4XmEhfbj5CxA3sZwrRxOzhkyJBMyJggoDH2Phj2YRATQ5p8GCS36QQQo1cupH3ABTIXQmsAF+eXnN5cqEOawWhJW43XTwDwGEs7oOn0Z9euXb2QtkBTitFgnEiJHgZj/ZmXl5cDGTU0hegmFSIlSqhnLiTt6DaaMhheKVKihBXDmdEarymKt+FMn8/X7D6vKUmE4Tw41NTUpCIcMTQliTCcqY5sEUNTkCjDmQ6H4z3IiKBVtstw6OEbAoNhFhkRtIp2Gc7weDyD9BsZJLFqHIaV5y2Ysd9CMb3RVF1d7YK0jJgYbgVYPhu29I0aNcrN6VaRMMNLSkp6QbQ8wzt06FAGcZoajoVNB/3DdiY/2EeWVhGLrOH+ZaIlZkZuwxRhDW/OuGong00wVjyuZSaKOJsB3dCy4XzkvHmJNzoxHbrHX8w+5eVUUTGI8vPyDOkKU6iq6kKqRL5/XmaWR+jLyszQ0jDUGTZKmV0/lg1v17FUPLOWmDyxWqQ/+Ke/qilGyHoffLJGTWnCW//5t5Zf93WDmkqE1ZJSZ/VmJa4+Y4/KcPY4e2bWi38XSu8fdzulpDlFmJGWqtzGlZWfJ+IcHjdlhgifPHaY0lKwpnC5RZwxeuRVosxn23aqKUSNh/aLtKUr1om4LYZLPv7sS0IpG57mzBBhxsL58+iSwRcZykqI33rUtN79ld+FTh47JOLS8Lp6RY4cPoTeWblehGNmOMc/XrtRxPVY+HqtyJPQ109zNp0ljkvD9eVfe2OZkLYa/tjTLwil0nCmOyOT7hl7L22p2ybyGJwuUeBtuvA6duutJJ46JuJ6w8fVPCzCElEbnqYbQbarF1P16N9QfqeetOSNhZSi5jEluE8/8UKtCDfsqtfy9x04LNKm/+E+Edcbrq/PiNrw/KJiVVUTON1Xcq4aM2LRa3M1hfsONqqpTfh213Ytf+OOr0SajPuKSkScEbXh6Q4HMm6kB37/AF0x5HKtMDM1zUHDrxlBM2bMoNvG3EqeTLchn9ntnB704IyHaNrUGurSuZMhr6xPuWGjJbPv+f0Mabb08USwxRpu9jNJWMMx/T6iLnTiTm4X65R5CAfAisdDQauI09lXpMQJdhoe0A9jiVbDWw23CNsMx5I36n21kQCj3QAIrX1+G4bTrUKr6HA4louUOAHD5HwIrX1Oswx0j8MQWuWioqIunB5rlJeXF0Jo7aYpu+qtQ30nW1PAdLlc/8rNzS3jRwtmjxyaS34cAsf0gv6X/dv0er1VkJEBivz3rMSVOOs7IJsHp9O5HsJUcSwJo7dDRgecrsGp6nufsSb6NI9iVyAcX/DuCHhrEQ70ZKIWcGbkp3bo+u/n5+efj3jLBpzcFZfCOgRNDzbZyB0Bc9wcvoFEvOWgsrLSjV6zBkHTA0t2suOxJvjAzu0PMUPbtm3LMG6FHB95XMMJmcdvQmG67YOpsTNkKUtcFSIcKXnKDkV+rYDHbgxrhtcNwhG2rrB9x49d6NKlS5H/AkxP5H2DE9IV4YQCw1zE2w3h+JVJ53gcyN8gTA2O97I9FHDiqyFM7QxHTLLL7dqsFDXQC7Q9znrymIjLPq43eKEAp/l/dStisuMTPsbDsUHvLNCr4vooIBT4NUZeDiIYNRM6xp+JDpdkx8e9x5/JDpfk5eTQoUP5RYbYo9XhTXS73bMhY4tWhxuJYeZHLBZ6IxwbtBSHZ2dnD4GtpnbaTT6xWEZejLD9aCkOZ/AdMWxay46PlOxEllBjiejpGyDtB4xoMQ63Exg2KuHUBgSDHfvOSH+hsoQz1eEMr9f702DzQqvDYwD+zRXHGOzYWx1uNxLl8E8hgjXKP16ftoja4T6fbzTumj7HuHQYDHhz1IyoJr70ZkacjB9RptG/ThKyERPg17yXa9iwYWmw3RKicrjL5UrIL8TJRjj+FO8fQDgsou3hphXPRMLpljZk2O7wguL29MX2nbR79+4ANjQ00J2/vSGgTsXFl9K8+Qvou+/3KHt7ddi7Zw+t+OgDeujBqVRaov0Fg8Y0VyaNm/QHWrNuAx3z+/jP0SOHadXK5WhzVEA9wXQnvbvyv9Sg2dhAX+3c3vTRHx1fXbBE2L8b/Gj5MtzUGPPhLEuTve0OL4TD63bsVIzDQRxuPKIevgL97vcRo+9QU5uwZfMmWrxoES1e/AZt3PS5mqrglpFDtbrOTA99si5w6/+mz9bTkiVLDTvqJZYummfYuM5fUdK/cKHHpN+NbioHypcwGPxpqKRxuD/lawYS0uHunDzatVf5RJTEdVc2ffzYnwMHVVBZL6XnOTKyaOvX36q1FDwyfWJAHeas5+eqJRSs+2QZYYZT8kM4nLF00auanhbjcPlCioS+h8+c9Zyaao4f9u+jNxcvpOtHDDPovOLaW9USCrZuWt3kRD+6c/Jp1579akkFVQPPU/L9HP7mgn/SL64cpsYU7G2op1yvhxa887Ga0oIdzszI9tGUaTNoG4ahcPjzHyeLOleNulNNUbBxzUcGnXo6MrNpxzffqSUVXFbZV8n3c/hq9QNtJWefS4eOHldTGafowMGDajjJHT7nJeWlHokH7rtDpHtyC2jo1b8OKC+Z7nTRhCnT1VoKdn9TT6kpOEk5Pvr+gPF9m5uuv9pUz9gpxreb6us2kCtdfZbh73D1U37MVKeb1m7eruYYkRQOLyhuR9vq62nRwvn06KMzafbTz9L2r3arJkqcoLLunUX53PbdaM9h+elFog3r1tBTs5+kiRMngBNpzrPP0f8ONPUqxvixt2ntte98Nu354ZCao+DA/r30zFNP0qRJk+j5l+bS0eNN+hm76j8nX472MfyQDpd86uVX1dwmJIXD84va0dEgH1/c+/23NG3yeO19UaYjI5tqHn6UNm7eopYyx84dW2nSfXeJV+D07Ul2711Ory9cRMdPGJ0rcaTxMNW+8gJ16VQcWB8O17/PumH1h4FlwOvH3K2WUMCfDE3aIeVMYVwcnhqH3/taCl0uV+zvND0ezy0pEfyEdLpSfcvFEqIdUgSgpATOv4CfJ6BSZTjiJAX9Yg7y7wEH6csnG/k44eSKiL+oCdji8EjR+gNEq8PjhlaHxxmtDo8zktHhtnwgM1lRUlLSO+4Odzb9B6OBOBG8xLLrU6pJiezs7JF8nAgGEKsf/hc2+5GVlXVdsEb5ZqqgoOCXCJ92yMvL6w+nBv0BPSMjI3Z/LIZe/gqEacNMvrzy8/MvQrjFgx3tcDhCvhWH/LchY4vMzMzHIUwN0JOvBu756vaEFkH0ZMsbOV0u1z8g4wN+5xLG8b9OmBpzOhNX8R6fz8cfFY0/+vXrl4MJ8zn0DlPjThfy8aFH1/K7qognD9Dzu/DHfDGRvMLjH/+lBF+myEp68lACuxth9xZ0olc9Hs/tzXnuYkSbNv8Hjj2d2KusUuAAAAAASUVORK5CYII=;" vertex="1" parent="1">
                    <mxGeometry x="179" y="310" width="92" height="92" as="geometry"/>
                </mxCell>
                <mxCell id="9" value="" style="shape=image;verticalLabelPosition=bottom;labelBackgroundColor=default;verticalAlign=top;aspect=fixed;imageAspect=0;image=data:image/png,iVBORw0KGgoAAAANSUhEUgAAAF0AAABcCAMAAAFM9HnCAAAAAXNSR0IArs4c6QAAAARnQU1BAACxjwv8YQUAAAELUExURQAAAAAAAAAAAAAAAAAAAAAAAAAAAAAAAAAAAAAAAAAAAAAAAAAAAAAAAAAAAAAAAAAAAAAAAAAAAAAAAAAAAAAAAAAAAAAAAAAAAAAAAAAAAAAAAAAAAAAAAAAAAAAAAAAAAAAAAAAAAAAAAAAAAAAAAAAAAAAAAAAAAAAAAAAAAAAAAAAAAAAAAAAAAAAAAAAAAAAAAAAAAAAAAAAAAAAAAAAAAAAAAAAAAAAAAAAAAAAAAAAAAAAAAAAAAAAAAAAAAAAAAAAAAAAAAAAAAAAAAAAAAAAAAAAAAAAAAAAAAAAAAAAAAAAAAAAAAAAAAAAAAAAAAAAAAAAAAAAAAAAAAAAAAAAAAAAAAOHKN1wAAABYdFJOUwABBQYICRAREhQVFhkbHB0eHyAhJCUmJygpKywuLzAxMjM5TFNUW11pc3R1dnd5eomKl5ucqq61try/w8bIyc7P0NLT1dbb3Obo6uvv8PHy8/T19vf5+v4r/UrcAAAACXBIWXMAABcRAAAXEQHKJvM/AAACfUlEQVRYR+3Z/1sSMRwHcDAoOhQr+0YhkFYKofbV4qxA0c4yS4tq//9f0sbeHne7fcbdeRQ+7vXDPdvtzecZY557IKdyR1dndFU6ec7vPOX8zj6nf83omqzDRvKyEyTHZVbtiLn5HTE3vyPmpn+NkKyTl3OTHa4k+1IJNwXHxdvgYVeWkPjAJ4gMtCAy4JuhgS4aXDc4QMFqSLgn0O3fCP8yZMZY7iPW9YNyX2wNQc2vY7nXlftPxPbhHiv3x8LtHbHDuJ2Y+bHL0B7iUxSGuDe2sqq3gnGFw7z2s6i2x/Rb0GGB/RvgmvKDw7C9CXkNY/4HVuPMacb1j1H3zNeM6wc/UeFnxvU1bF666PkytkxUGYl/C0+bCAwrBphrxACBsB7bwvMpZIv1EQjrsQJaIQUyXkQrpGiIP8J0fQ1j/MERHoBwVDXGNTKMVz38dwfvnjHexDv01c2TwRHBl+ncnQ5OGtC5bow3MGXfsjF+bQ3nFVi7muXcNUzxhFvs/gHOTnBw9z/OXcPGbdzGpx9HQ0HE+3i0ROwiENbBaMQGAhdCfkM9dk8y7Gi+QiGUyTUl7cY/sTk9xgJfF0zUZayvPz/qiOqudr9pFd101SsvXpo9X+CptNUb37CslONlnkpbvVCtPTSpVcXRM231eNJWv7K4dMtkaXGOp9JWb55ifSkndZ5KW/3m6+03JtuvbvDUbK57PGmrT3e/17+wPybsc42nLuO633n33uztbZ5KW715gk+P8v08f01z85UFk8r8eZ4E8djqFFudYqtTbHWKrU6x1SmzV137hbZWIXl1b7PVjqe16SWqXtrDcSW+QfDH/0moHz0pxI+h05TL/QWt4fGDaY0clQAAAABJRU5ErkJggg==;" vertex="1" parent="1">
                    <mxGeometry x="706" y="201" width="93" height="92" as="geometry"/>
                </mxCell>
                <mxCell id="10" value="" style="shape=image;verticalLabelPosition=bottom;labelBackgroundColor=default;verticalAlign=top;aspect=fixed;imageAspect=0;image=data:image/png,iVBORw0KGgoAAAANSUhEUgAAAJgAAABWCAMAAAFz+Z9BAAAAAXNSR0IArs4c6QAAAARnQU1BAACxjwv8YQUAAAKUUExURQAAAAAAAAAAAAAAAAAAAAAAAAAAAAAAAAAAAAAAAAAAAAAAAAAAAAAAAAAAAAAAAAAAAAAAAAAAAAAAAAAAAAAAAAAAAAAAAAAAAAAAAAAAAAAAAAAAAAAAAAAAAAAAAAAAAAAAAAAAAAAAAAAAAAAAAAAAAAAAAAAAAAAAAAAAAAAAAAAAAAAAAAAAAAAAAAAAAAAAAAAAAAAAAAAAAAAAAAAAAAAAAAAAAAAAAAAAAAAAAAAAAAAAAAAAAAAAAAAAAAAAAAAAAAAAAAAAAAAAAAAAAAAAAAAAAAAAAAAAAAAAAAAAAAAAAAAAAAAAAAAAAAAAAAAAAAAAAAAAAAAAAAAAAAAAAAAAAAAAAAAAAAAAAAAAAAAAAAAAAAAAAAAAAAAAAAAAAAAAAAAAAAAAAAAAAAAAAAAAAAAAAAAAAAAAAAAAAAAAAAAAAAAAAAAAAAAAAAAAAAAAAAAAAAAAAAAAAAAAAAAAAAAAAAAAAAAAAAAAAAAAAAAAAAAAAAAAAAAAAAAAAAAAAAAAAAAAAAAAAAAAAAAAAAAAAAAAAAAAAAAAAAAAAAAAAAAAAAAAAAAAAAAAAAAAAAAAAAAAAAAAAAAAAAAAAAAAAAAAAAAAAAAAAAAAAAAAAAAAAAAAAAAAAAAAAAAAAAAAAAAAAAAAAAAAAAAAAAAAAAAAAAAAAAAAAAAAAAAAAAAAAAAAAAAAAAAAAAAAAAAAAAAAAAAAAAAAAAAAAAAAAAAAAAAAAAAAAAAAAAAAAAAAAAAAAAAAAAAAAAAAAAAAAAAAAAAAAAAAAAAAAAAAAAAAAAAAAAAAAAAAAAAAAAAAAAAAAAAAAAAAAAAAAAAAAAAAAAAAAAAAAAAAAAAAAAAAAAAAAJarI6QAAADbdFJOUwABAgMEBQYHCAkKCwwNDg8QERITFBUWFxgZGhwdHh8gISIjJCUmJygpKisuLzAxMzQ1Njc4OTw9QEFCQ0RGR0hJSktQUVJTVFVWWFlaW11eX2BhZGVmZ2hpamtsbW5vcHFyc3V2eHp7fH5/gIGCg4SFhomKjI2Oj5CRkpOUlZaYmpudn6ChoqOkpaeoqautrq+wsbKztba3uLm6u7y9vr/AwcLDxcbHyMnKy8zNzs/Q0dLT1NXW19jZ2tvc3d7f4OHi4+Tl5ufo6uvt7u/w8fLz9PX29/j5+/z9/sfg9/cAAAAJcEhZcwAAFxEAABcRAcom8z8AAAf5SURBVFhHzZmHdxVFFMZvQgiJoIFQEpRmAbFRFbsICDxQQbEhqAiKFFHpNhQLUsQKFgQkBAVjLBRDoqhIMVaUl4IQvn/GKXd3Z9/Ovrch63F/57y535Tc3NnZnZ2ZpbZQJZNUKjW4MxFSqbtSsuyULHTpIRPVTvGKTDLKjkEkTtlWaelzlaqy9TKpqan5QFqiUm1iopathbT8ib5dIDOpsSnZN4ksJ9DTKsOoMvpRpZpGLvPDZQe0eVul1aJv+4XdoXIaeUHaQne2WenLNjtfstVUFbFwe6dCvU5JPV4SMY4NShgXYanbK7MZHZHCaNbf7buvmcJrJhrlTdKSm33oNDvhNZusUu1QNbu7YLTKSG5hm5M8trkYx7a1DGWbnXPYxsIdbLPjjkRWxrJl3D/aJJ4dgVPQZ5DIiDkipa/7t067F9hStUx0qfePa+k+Ldxmt4nfSS29Zt/Qg1q4zUTlRTxwXrO9TmapShX42xFsifaI3/1SPCMTDVY6gi3R1+I3Qgrvn/5Gb7Lymn0hE5l1m3W8wq3XZuawS3jGm240U3W6Aafozje5uJmdZrrq3Esd/St2ALROZmWBmFwkj+g87ZZJcNKbyTYm7mKbi8fZ/h/wlBULC9nGgHFntpkmtjGweTiLIBvUDG5Se+iwwSL6fT5XKApBT3KV066Oq8RU/xnuZcmkvadLs1bf8YrKd1gI4L4vHKpqabF+DTkEnIk/u8ERZ7OQWJzViDeB8a+tzuj7ZpmualEZB4szMRMRHZ+qMgqbM+qFrgSe2RwszuR8RTS+URlJGiZcKN6MvvAlFmdqhhC4ba2REeYPxHmsGYuzr1jQ3mna2pw9qv4VflAZB4szPUNKBug72zaaG7W9HflaKExnoErxqjGcySJBwNlIwwX0Uk3hd0ZUR1U7dU6z9gHhbPt9BrfSKV/nXvDGwXAmF7aBTlP+aRbx8A3beGi3gEU8uOu8WCiNdcWUm/aFLOLgGrZxYKxi2kzGZNQmug1iEQefsY0D7/FsO2tivAuHOmvQOIizk77JNoPDb7Bw6M4vfc0RmnaYKzS7H6YjuuqQszzwZkWgDyumHGJj7jJBbDvN1chYsROcoKu2No7XwtnACmejMq5BWeCawFjJGpUv/8XCA3RgC0tN0NkItGNFMDafNmd5BN/uPOiMPnGKNvzEQmJ3Nsj35+VBZ4S3lBnsq7J2k2iXPqLR2Jx1wkBp4NvYhjgj9FNaYekm0RxZ2OB/N4Q56204sDqjY/W0PKMizBm9+7EyErszwlPoxZIJdWZ0tJwXZhq3+HKooy6DcGed3XhsAyBoNNZ9mnBn9OI2FvZuLgM1/8mayeKMcL62Vmdl6C1aPMY5TTZn7VlZu4mXRHINOumcJpszmlOhjM3ZAX2o8KmvynQ2pIhWPms6oxPqaNDibLJThF0sJKazWSUHqd1605nWwWvWDjey6ojrWQl8zrpMa7zbFxnduV0kQWfwHqPZRqXpbIZYhw6t9zmjP0RHA9183yz44wQLz9m5z81e2ET7Zs1d4ncmc+W4h9fGkql5Q/xjiOdYmJF1FL/i9pmnFzftoG58xqHZTz8+zHWay+q6sFqQc5HwuRrRuMi8Ym0iTx43xcbEi1nEwkG28bCPbSwUhx9cnAHGhj0GfJ8Q2swQtklnZE8WyeKSGSwSxtPO+VSyuLqiA6tkUelfWiSFMS0Zh2XJoOD791gli6kYySpRlP5yMJF3/SI8yao1FBYVswolr0NRKHItVlLsbaeD9E+fvJQKirl9CB2Cn1d3i11RxleATMpP6c2TldfFa/9r4FpuG2AF5H5nDbcOJfjEVuHnemzmjJ2yNJazDGEy4Hwk9NPrGKawNFmBYzlPFqvwHT2LdMbhiI/yNKwH+QZnH0RTf9YGT+C37ix9vIy/gufVGVShLp9GAPwV10aEwIjmA4tZOpQexassM4gWWK248drvgf/UxkQMZe7AqO9xHJVH9y4PAWHfFqMFtl89EXPQ4DsCMogWGNEq8zE661vUhN5H0QKr0WJAM0LWwVEDo6tO48sCLScB87SyES0wd8ewFebZlEeke0xTAbXhLqjGiWx7pGiBqc98iiloMA66XFoRGE0A3qWbkWMCam1g1ON33M/SQAxl9fwFNp6YW8JtXM6qk/PlZM6FEC0w/S2TWQPvBM5BBHZ06zYbFZuC/ieeBHbmmD6jBeZ8F9WMRCOfcrmIoVzBMicFXwCjK4FxnLdzJoFR8QHwt1aHVtxjo4BKYe6B5cIbRAvM/fjrsFi9dz2iB7YJSCnR+TBOX6mUlTMMjAa1NJnDGXUeG9aCGncB9BSwhmWQaIFVszLI24XpLAURA1sNPMRS0u840mEHW2GBzUUpjcN3G49gqAjM/Fru8iD0aaok0lBe2ID6bqyZ14BFLDMIC2wWzqH6XfIwsFtYYNQ73ewMZ5TAlgBLWHoMb8l4rzuEB9aF6MZ1v6DxWhFY2LfsDXhAi9yB9fgVDRey9rEF1hdwIDCxQJ8uru48FJV8NFrkl0IEZp5I+xivHn11jy1TIoyZ4Tf6GGBPcLbNDKxs/0LKX9qECrFeLV3d0PLn8nzai/DzzZL6f+Tt2/O0WpbbaczrehQInxoK9wETWbusxskylmfIMuT+Ip5zl0WFvBaKkz7NO1kljudhva0TQF/MZpU4Xq1jkTgGNF3OKnGsC3m5/P8M3pLM81PBMyNYJI5h8X5/iZNx1rXCfwDRvyRJdBFOdsOYAAAAAElFTkSuQmCC;" vertex="1" parent="1">
                    <mxGeometry x="-162" y="688" width="152" height="86" as="geometry"/>
                </mxCell>
                <mxCell id="30" style="edgeStyle=none;html=1;exitX=1;exitY=0.5;exitDx=0;exitDy=0;strokeColor=#4D4D4D;strokeWidth=3;entryX=0;entryY=0.5;entryDx=0;entryDy=0;" edge="1" parent="1" source="11" target="10">
                    <mxGeometry relative="1" as="geometry">
                        <mxPoint x="54" y="708" as="targetPoint"/>
                    </mxGeometry>
                </mxCell>
                <mxCell id="11" value="" style="shape=image;verticalLabelPosition=bottom;labelBackgroundColor=default;verticalAlign=top;aspect=fixed;imageAspect=0;image=data:image/png,iVBORw0KGgoAAAANSUhEUgAAAGYAAABmCAYAAAFO2NT0AAAAAXNSR0IArs4c6QAAAARnQU1BAACxjwv8YQUAAAAJcEhZcwAAFxEAABcRAcom8z8AACclSURBVHhe7X0JmGRVfW+jCS+JCy6gmBeBPFZNgvkkJmKi49MBBqa76t5bVT0bmwpoDPLEiCKGjFmARA1ojPAURPARxJGoLGIILw4PBGaYrr5Lbd09+8A4DDPM2lN3rar3+/3r3Jqq7qru6u7pdpjw+7771b3nnHvvWf77OfdUzyFFyvZvSjlBjeeL1lXld1Kk81FNN92/4LlueoOS2An9I7Ua35DCTelCtbZoHa7t+hvHoR+Z/M2U1O9QrZa0/T9IF6Na0tz9Bqb1D9fzxmHxxnoG37ZoPW60/IclA8gMtWlbOhfVNCeYl3KiRuZZA7VfTzlhbfGGDm9pRu8a91x2Bs8NO9gliZOBNySfLb+d5+j+TZLYCUufr9X0XPBdddnDdvUOluepy1awzrxBXXaPdCnaZlierS67A7sbo7+e5+mnq78pibOCdK4ibeIbFzq1Ny54ZOS/ScZEIN2pU1D2wXPN2nuaOh2PTCmq8UYSqm55EUmpHzQ4b2PtN1SRg9Cz/k3qVMaFvzEv6ba/Qf3+nL8NZEoHCXHxplrNsPyh+Kb4ty1AX1bMFjGWbK7VMvna8ZniBIPer25agrdJQjdo7r2YwomE7Z2uTttj0dqDNxq58LyOVUuatZPYAeqyLQwr+KE6rcMoVE9Up4LF68KIv6R6HstrtVc1D7Zg7E0kocxA7ZilW2q1ZVsxuCtX/tqibtid0EzvGlLE0udqIspUcgPkQfYB81lOJU8dzSMQAxJ6dzofjktPWsFdFJPqcmogratTQTzcmRW1V2eKdc6LASFeUafdIeEEf5QuVGq67fkQdpdotv91ppNypUATNNP/im65T/Cc/ATSWZHOV2qa5f6DFOgEFlKnDVC2p3LBDjkv4By8xYOVYVqv7b87Pm9GzMgdQd0FpXG2uhQmTpfQQqv6Fl6DZp1ULtoqmQArpzveVVCYH1dJPf0gkL7B8hfU5eRgrSBKbsKDa/JCjBGFAQ+2gpRGajRsf1f/8PhWdY12VEcl3E5j65b/RNL0/1BdTg3N/YyHXMrxUpfSpRi7krqU8VOnhxHGihUQxVn8TZf8PwC5XyeJwDzYLbj+gboUpIcq96dL1dOXDNWOFV3jhLrKGo/4RWA+SxIAdhG7kEdsEJEYEqafyahrwwn+jb8x2omrCVA7at7KjaL1tEJ4vmYHd0oykLTc8zTLv6GnVjtKJfUkB73PxuXnD5RPWPis+z8k47AByZhSmf1t5KIWY0c3/WWpXCj5tP5U8tSQtLzPQlbdoC55nYrHhnyVyld2SoZCO16bFGICQMupywZY66RZ/ry6bKCdjJsUoJwDV8AQVpeCResrfsLylqfHqAQiU+zSc2hGwgyuTljlz6hLmErBdenh6KVMrfbqXtv98FjjYHEblTEpDMe/gV1Agcn+5q8y7jz+xrKN3UqpDB7bom6dHLyZA6wNlq+NdVAnKyumKhoaC0aqx8XMK5mdwNrqz/q/ry4hcb31fVn/zEVro/28Tg+HYjzSkpH8QfccwwnXjTU82ilIgW67l0EtX64uG2i2RGPNySNh+Rczje4UXnSBFGhCW2svabonpYrBi+pSQIehmdGaXxIb2xwXOBhPSgEFo1A+ERVu3xrUym0Wchwf/sY2KUzlo6EhD0CTXsZrUNx62N+LmrsHFbi/o4cZY8Fg9ThaMBzAmPZhGOY0M7hSCjQh5nK8aBcdGIqZzHD4TcnsFmDItdCCo/IAdIuQLvU/+ptdJhrT9kO06JMpx/+Fuq17aODssbo89pkzQ9FezSr/tSQqTM/NRG2XL2+VXUY2uoj9nSmGnkpqoCPZTgSQ5cAKiBB1KUgPRf9BwljchuGmJbskSlAIQ3UpXI0xKvI8MeDpfOg78/mj5TrrJeC8/ZLnUwbMoB+LcdfBP0kVol0kBioulXSYgNKUtV72y1otOeBeqpKnBPiIEvLpCHCzWPhEcxdA5N+vTgWa7d2hOdWG0W4UvFNpg/E8lXM/CB5qdTSbEb+EGjEOC2WGQgncaLnRXvm1gj/jL3HOo9tekzT3f1BdohW737AUPqe6bA+8RARkuthEVSDZWE8kB8vvg9xaZ1jli6DU9mjF6pvB6QdUUQFDAeq0PeKW9Nn+EkpSnkPHjPA3BsdLnfac+/SeN/Xl3VNg6YsOShSCP5n0Jc24YOPBwtCS313o7Gl0A5TZXepUcNa3Bn4dVuYX1SUY2btbnc4cWjY4O1WMttGBggDdBUH540T2wG+r7EnRP1xdjHu3UfiCWPalimEjJjenoAagjXFBdlfD+yA1949Ez9PQYX5yjTdOM0M6baU5oSTVtzGMr1VZPUY+eJjKGOm3q6TZh+b4T1A30txTSePAQB8rLHaQEzxChmBIQs8F31FF2sKwvM3siJ4xymbWQBHclTkPj0nMTBgB1Nu6HT2ocjoCHXUzR1Yf9N+lkmYXEDNfFZU8sOsYlTQOdM+h1NCAQOKb2uq9b16CHucIJfOdYwIMeLeL/cwaFj5ZeyPtP93x/nXeytpvwNC5FmLwNtD6dtqH7FmOBEeEI9g40AGSjoMjhsa6uO9hOOM3L1TiULzFySL4M4Xu+MvStADQs+QDCfngF5V5VLfcv6d1rZnulWwAGpVVt7UFI51xgJLXiUF3ftJ2b0QjPEo2Npp5VDgQz9fLTTMFHvRtYXT2dqmyqndg62+pLAErBK1X5TlI7ylGglApsdBjJAeD93HkMiPVT6ikBjg6PGjdQ8fM44gm0TkqW4A6XLWEo8VOKgQSM54S5uW3v5YSZbI5sl4nODszVJGeTMMIRKUbsw2a7f9vitmYrOJjLD+A1PYznaOcHqm8pJLbAkry29Rphh22BJgmhGb5/8CH9xfC+SqpIwzb28rKJAfdh1SSgGK5uRHxkUYPJ23v06qYSDxxk0C2WnHvm1VqR5AaupKkzUgVgg2imfNhTiWNAyTVHaJH7OAxVhK+8mqVBb6o/RpHoaUhKIuOekAV6aFXSv8BblgVvLeL5TMrVrTVXdpq77S4IXpummIbWvlH7DmRULkwNJzoSs5vJErV0+mawTWWUHmfGfxppoQy+WCcB9UOaad8dj/uTw9X4/JHLdnC94QStE7mym83ctETTGNH0NpImmHDnD0kQAUuM/Lhnri36ciKZAKPgf5fIKOK2WuHXzJMT+M8Ansyma/9ISTeBxO2fzlGMs97oe2rdC1lROgQ4954BDFSO3m/eu3swbCjS9N5MLya4BiLdDHaxEoh/5cQ15cbpnsFjwTOOXoU73rRf7cq3gLx+vPh1GZeZgL0qEPaXQ6+UEnj0Duw71gKAVaOlrRRCIfIgxAYz6oibUHbjM/uHagdq5JmFySJbiUKlO1THCWORjfGo2a5D8gEz9zZZsF1DC6A+ReqpHFIFcLn2Ai4BKJUjbx3LWMIDBLpdpiQQm0AvnE5H6ou5wYgh9V10R1VYOJ/F+RjcQKDzMsgk1GMxoXUiHeuqB0Nh+5F9n6dP6IXNCe4W7e9QY420+JVFr8S6GtG35ZZedDJmgre+/SW36RTp63Zc7JKOvSg0tPWuCdrOffkvqx7Sl92zymGc7jN2nQJzpEZjr9dXTYAmi5Qr6jLOQEjJNRH6nLqkMY0RbaawVA/pwDUZU9muOLR2ITp/0N0wO4LtzPfPUVl0367m5ocfHEf8m8RN6IQBSpbAOv459Ty4MMHYRZ9mR2GtCc0O/iekQsCCpOU44/C7f6suqV7sDE0/RlX4kHmFOcqF/m6tV/mzAlWMg6ZNoNmu5bz3qEuGUdflLLDf4Ykk9U3rDgU75skz/a34Gis+hoLjoyI9umi3chQ0mimd5+6FLDSY/2cZpw1UPutZdtqtQWPVFtWMrExjOzxXDf9/4dReEoy2mDGjUmWaieBJFpCiISRj7bQ9lKXgv61VdpSIZf9wff/LF+Mkfi/KpuVHaLYpkmTNt2PUyzXDceDEdykGXyeFMBgOBy9NXSfQZ4SyWE4itc6non3SCD9FUyEdD78AUZvFL1V1Z1wG1yCfpU1KXoHyifAt3kYzL1LrOVCtK1ZqMwpRHtDwlAAkARIWmL+QwolzQMTmu4oV2LAgj4S7+UhQQwImXiWb84As/4BxsSMnN+Ys+SSCPgtX6XtJUG8XNgSbSe4ToCdwMBH/3D0UhxeIi4Ak9OvYb5KmhtM9lIjByMTowT9Ey4YqUsxoxDcxfWNvA/e6xVScAzgjH2O0VIt646L5MwKMutrxwhJTRKoA7ncRMua+gk89SwjNWxIcmV92XFbMJxLUhszlTFr4BSt+Bt267R4O8BFuBo+vfAWxPkelTwh2BiId3EbZh10mtgYuMSTBsHRmO+IpMJB82Re0/RFJzAoSFJTl7OLXsc7I4OXgRQ2q6S20LL+hbG/L8tp4OcsWluZMCLJlZhCZo63VyXNPlT45zl1OQ50rtgI8giXuDFNs71fSAwAekUKtQHdDmmM6X5NJc0+GFZqXnk9FhTPnFhKrHH/p6x7VZNSXI9EkoOx+VUpOAYQ9R8jiSXt4HMqafaRsoJSY8VPLnhPulS9GRbAE7TPqAzr5jr9f2Vtq0P4B+kkOc4oQFdthpT7GtzmKzk1Avf7DpbjjIK8aLbBqKLu+M+TZCSCzxkC8gPFtWpEfY6mKsF08FaEw4OBWk/jgXNpLLU+7qOSZSOYRz6DUm6rhw4JSCpGoXIvXygryNjLEgOjpex/LaE+kpHKUWq1+4ygCVCqTwu5Of6Xec1VN4YV3MNG1Zf7QD+hozBSI4lB751y06FAqlD5ocSaIY75mypVvs8AH0NIzVaAbgZ3SQUt/xsqaUJwzR7FdTzv3+e4N3PEuO5MGyx/AXosYufwMJxwP98pN04H5z5dfRN7ieRABwwuccvQo9d+wgamVDCbFYs/OGoGJ5k42cRJJ5UkSGRHP0obTbfrS5PTQ2E0NrawbKT6enRelvVgnjbo/rnKmhpkNEDDeFlb5Zgo7Xid9JrtbYWfnuMXUlz+p7J7+DkAhUQLHw2HQypbwGWEFBgLs8FZDBCCbNsufuTKZtaHz+gbGJ3aUh7YVULTmlO+RSW1RXqosjOWUJwBU8mCsXMz9SPkF17fUkV6zre80ygk2Clk/F6r3FiR0w4UFnxubLx2BQ4re0JddgTDs8K0Q9UavzRQyTD1/YuYPr4xEMsYQVVMADtsh6SjU1RSR6DcJ8S9cKKMSpoc7Kmx9NsOnNtvNLwpKJ4wD1zNyjU3Ij4o7VQxAacPmQ6Gb3wZ0QlGIZwvQsLyuhIyAvDBKDX8udk9jdhXO+iDMFFYSYhpGJ6NUBEVoEi+pkbEB9zsFr6R1ZZoOCXjJZOI9FQh2EY+Pm+yD6eaQduKc418QSe/nLqHFWEMIJWLIpZvroxm+g/EyjE+SO+0v1QRdEZ5NRuCzrtThI3lNfhpLFLFaDWfkS4EUzdCMfyXkeGoIGEcPtyzfHnL3ApnjFlZzfJv6bMOGELLdiDfFsaAu3AZGroVUuoARLuDDmgEC/ue2f9WSrLMcN3Go/FKaSWZTeAUYqyk24n+rmFkyydmhqMqpRB71chXnmJUhXnooe1iFavRSBcij+JVM4M/5vVkAMn4NEYhduU7T8YV+tGwPsv9XX6WgUZchg6Q9evk4VQ+ekZunCm0QvWjqUJUqZsadfJjA/GyvfxShWUYsWQPkvTkpgmgZYPPcHGCZgXytQVXzerD1XfJ85WC5Kgru22nbu1vBD4OGTTnwFmaHa4Cn8jnnKR3vpwkQjuNB9Ohc3IQCJez1znLTFLpHTzwHjhdOtzuv4mFA8rv44gLuXG2mc+sPzfQnMrtfc7+t6pXzx5SOf8ZfucFHvkLMO02LuDhqDDkSlJjhUT/oIJxb/MgyYhQAP1zBOt+j/T+KBT1rUgvjRXdsw5qa/aoumwBAx4kD5bhVHk8bc4pdE6lS88Xwo2qeAsw6l+hxQylu0glzT5kztLxd6vLcYAneSONSC6qV0k9fbDbaCnQS1VJ45By/DP5Ja/meC0L8WcN6cHqcSKuJwloQKOb4vMUoyGuA6DQIGNz7bAqMg5cV6Ce3fiibVbRiJtZvqyZmQiwwxqL4ahD+G2YymoLftHAxpCPVNLsIm4MFx+opI6glUD+IZ9gpDpOJjWDjaGgUJezC07dSdBikvAsZ94oghv6Ah1g5KNHVHZb8DMQNgbu9KhKmn1wCgK6wFWX45DIlheTR8R5ywXXMI2za3WRHbWVZETS8S6QlR92+DcqafZhWEGBfgm/YVFJgvfK51vBOjpcbIxuhQtUlsDIRRsp5WiUwhG7SCU3wG9nGMg4b65CTcQ526qvoUtMkkhZgcXlIjB3XhAzhIqxGG1tto6bYQwF19JiIPmJULADk5/EctkKhQV0kez3MKdIPuOeRHuN/EOtT9KDGz2ctPdPvhVAZsWrDct/mPoqtgzIVzB7WnydOQdngvXi6NvU5ZTB6KVW9E7jDg8q6RVMiDT8Cq404gIgLh3hoqA5sWJnA7C9JGIpSxNxkL6pN+AZvqCKzBkYuh0bRJwSuKBUnTaQtMvvZ4OaP8ifC8Dv8WE+LVaXUwc19jlW9TXqsgH0UhYPb5kweueK/NHcYSBVqNzfZ1Xh9o4HzPvz4bfcD7/lS+/7yY7XqeQWJOvbW90PU+kfVRKXzJ8Ba9oFpaxasrna+bu/iTBBYxw0prFmX7O8z6g1L9tR0Qfr5kjQWAPAvWi45hKVKSet4FMwVbbRF8J98l0hwTU0S1EGrrSn2+4n8fwXuHiIAZD+dVVZnoW0cPHm6vTMnHGNqdWOYoSeegWK7momyQId8NLCZ7xTpYxCuhRUmi3kxJrRloWpIJmVqFzDhciU2Ajve+pSkBz0l6pTfqdW1ga97rdGGQvD9gL2FntdloPQNIetBXL6F1WE4abvwG0e92VFIut+BBVo2qWhdhRn1zKF6jdhgJ5a7/1AGkPDle+QYh3AxiRn8h0NRyaei9Tt6u9QsiWzre4sev/fGdSgUGg+xIyHZmcZiniSjGG5t0BBflA33a+mi+FekI5Y3VxLNtnS30PSmGYy06zgdk4Q4eWNQB5G5gcwS9oufYwBknoKJNSyAIJ7b4DMZPqil4vrMDITrRE45I0h+teGPirfmENZtqr6evZqHBiMsbBplS346zFUfI26FEBq3RqPDAGS22I4rUEO7kOlTqUxfYPu36nLqYNm+tjGXJAtn0hrWbPLl6ikHm7XwZ5F79+nZ92PQ6Ktvugl8NpI9fXMx0ieUJd27r+lbPdyVPweOGk2GtiyMjcNISDzmJb/U+TJbF16S30LOei1/6SVjfse58yD3HAowF03FpoH/ru6FJD00Jg7IG7vTDnRVSr5IJYvf5Vherdrtnv3/Ak+F+4bqv4uRu02Y6h2hkpqIGH7XwGP3kSpqpIOP1yI0e+zg/dyl6qE4y/jonChiLmo9PLaq/h+fiunD/oXM7bXW/TfzTRV4r8WwM9/CRYp036tT2fSP6uIj0bnk2nUzYzewt9ztHxw7YJVO4UFZwIaI5A718OnHJJIMv3Kxvu53qK+DIFpEjkuVXYaTjR76ysOF8AbOpNClg2nt0/1CrGxQc9516Vs7+r4gI1BeSahDVG/DFbhPEOrz/TuWPh0q/iZCAsHvVNhKd7Lpax8Hmda6eTzeagL3u+vTINQ4nejPp/Hu4txtE+V28F9FtUjjyyksv6Z0La7OCj9a8EdpagwVtO2A+1/g/KeNhM6KbadMkORlzT99qsbIKK4XiVdCitxB8dcCEX1EDhw0qk96p50qWLyE2Kl/J5P5qq/ui+UZgugzJtoeXM6HhS5Vx8M3qOyukavUzsDvtBDEuql2IPY4SAlLfdeTtXzIwlw2zP0lUQ0whyTOF6p8mQiG/yRekzX0NZUT0Zdd1C8LoOboznB3EyzzBX6TP/3jFwYsDMpmuBwbugU7OwWFDmcmJNpUIoniioc5A6mkcphOf2tKj4tcAIjYXkmn0s3DsS1ccGqA7+jsl/+kFXQVK6gYDYSIqhl18bpAubu63XHM0XEYUBEZI0wyh0WuFxCFZsRuGOr6CZyIAY8uXqau4EejuA0m1g+UOIcmITlDvR0+OC/WyTM8jXUG+wwrozIoPN48JwKnuJOy3rcHG5GZjd3O2GdSVQkrjn7PnkuQFMXYuDJ2Mri1CHFhMqeEhgMSeWCA7SyOAgMsBi5g5FVIx/czTSKN+qGVCEIE47XebPWCcD9w6Bj5Ot3ciXE51PkUpV9ZAAu/19RgZJz0NjRhB18QGV1BQ6k4YT30v/g2qO6heY/R6tNFWmgrwCd5vjbSAg0y2UmMhc9Nq82Nb2WsPeejrrulDk0Kn9rjtZYzCWSWa8Pg+NTMXMmE9TXcXXl/IFdx0AMvYOWWyJb/oCe8y9GB+3ph0VHPULxhU7aDC58EMdqmNOmZno2D54zTTfdh3SUEVEnBkH917C9z3EOQ8sGZ2m56slnDQy07DPbDIYraeHxwxpwYCWZm8OVPHMJdNQTnLFKF7i83NuDTuScyFoM2C5SN6mSg0b90PDGIa4olkS545d6qn7UzeFY9meK9SM2Mg4e9fLjnoGy4uFz9gxmfDxDDGfyRRxrUdc14LrtXBfAOsMHm3RNzcsCerH67oTj34BGmuiMfeLD0LSFaJEOUp3EQeBgMGop3zzbwRaUsXCfgzJVlqsrcy7Qc/+Jyrdx5Px3cSlXCuY4OYwHz/uQ1lKOh+N/Gc+oyhprOYJIs/01eJfJd2EQRhk/Zz1iHdWoJ+oshCJHpag5/gOpdeH5U9nz8FcCyn8tF/aicavYAOoBoUo0jhRMcUCOgIjZhDIvZkCFpFgq8T4r/JB6TAPJZ6tvT+WD52XHIylb8fry48tNFUk7eH+qUCnz/eSuVNEPtTafHJz71L4zMFh72JZMkWtp/e26E2xiG+rOa52TaRSo9Rtb4afdeUg/75kJ4HF/LDNc2SHBRogNUpfsg4VGozEbdSe6ClTV4nGnR6rH6ZY/QuVNMaKb3pOcQFTZPYbjzu8fqZRFhIjlFa790CHySYgFT+w7Ds8cFsMAnUsxBYJpfA7OGSKI2cfJNXVLzN+gj3EqNfPAHxuF6jXkblp+jD7QIOFAsi8wqIW+gfrur3MG7imhm8F9zZQjVg9DF+uqV52b77zoMobuhOdwE3cOJgfHMP3bmK45wRUYlCq5jQ2EnH983vKVbS2pC54qnwiOvAvP2c3JVtaHB8+ZxjyWUcVbwE0IQRCP8x0cnH6ION0qy84imu1+XUQZ6sbwUWKi/0VQOOep/W/JrI+uRX33xmJQYoJDUagNHJwlmzUkLa+vf13kMRRCBS5OnOnewA1tVZGukXSC65dA4bJjYAC4oNI8PWtSngy01fpHEjFk0zZQsXRqrAM6HEK9KMt71O0t0OzgPulIUjsoH8Q1DGovs040BiAR/l4V7Rqc3ePgkotIYBR3RiEq92bLjU2ZDymoQFPUG+ASUgMsKucca9uMJpRg6ayIO0Y6E0qWhgAGm3u+HVUvdRAQMydAfDzfHIKZ7GBZ3sOpVPWYZhzFd/GdzUYJ64RBa9nxeqrgVKtuuSMSnaBot7yqMTDe55oxQNHylbGILoifdL46Y2XM9eSG6a2qP7duoenZ8q0qexw0s3xNXfw0WUyTHSirxGLHTZDgY93Kd7MOQuGo00yDrEQaBov0FcUlngtrrrGW5ZBBz4cLxFyE7GUjEhBhKmva0ExfdjckJ7ITqfD710b7e033XFWkBRSlhhPBSa07mt0cLGvkIh9GSNut7fh1Bd/Jd8s9qAvrRH2nikwb2qC3XAacz4SYRnu73oSna1CPGDn/NpqHbIBYIoWwtGCNO63d4VDpZHokilhpUjVlvJjYdAqhdJMd9stMWsFf1uV33Qqc6BAiQlkD96jbW8B38F3yThmQOjfK+UgYkhBU0SmBE4CG4+WkjyieYZSgDvdOtBnXjMFRB3UdIGuy8ZTHuH6Oa+hUkUnBvw+DftlHKuKAoNLPsTFQvj+X56FjOMsJp/Aj6pYWcLtBw/a+T2rkQTkuPgcOnsfpuunex7Lqthbw2bAA5V1iGTr+k31O9a264zmiF/AsvGM3zXt1y6TQ8v4S9MX6ut6sO6U0yxN2fWuEOQH/qiZVjNZSfsdhEKFO26umhirfn4jaIO9VaAYm6TCniN36VrhcJGm6D7KjJFCJX930b5S8TsA9VOyoz3weouQnWWHDpUN8tliA+NVs72fx57OMJqRL0Q6KM3m/5a2Um9ogmQvPSw1X7oT+DRZTZKEfyHHC0aWobFjT3KngUEEr+BemSlGWlCKKnB0O2c5Gixlqefzu915j0P8Y/IfvSadAIdY73m38FWcMDkZdyStqtoNH563cPq0NOZvBZVEQLY8JRfPZNKedcNxfFGqDwZ/3D0ch28FO1vknjay7E3wPg7BfHEm2TZn3bKP4dcVou54PrueW4+pRhw/4jwzw7BdzwxD4ELtoisaihmKjYVHlJNJbQeN3Qaxtgxj7hu5EH0na/lL5whZWFKguZHl+25wuhs83b1s5VcCKPCU9FG7ls0SnlaKqZnnLuUic0Wu880rU4UGIuFHUbz9EW0XqKXVlbK0eXuIgcLAY4UgVKyYj0Ea29Y/+Xjbgn2z1rRf5PSChEAYFQW2MqcVcJfoGhzQeg8ijMYjqkHI4mI5Bj3B4/O8ZcOMoOlIdATrWP8AvkVlGBiG+r+lZPEQEgytIMPJe1oHcgE5n3YQjUFcSFgjpef6PLNemqWYdGQAX/T6crBfYSGXZ3aGyenqHasdmNtaO5yYumuV+VKLIlv8TdMbP0Lk/Q2dvi40NOegMosMpkuJQzNijLq4wsE2Oo/goTrBdPROH/wh+b6ePY2SDD+jF6tuavwSCUXI76yr32f5GrhFWWUcOIJuvkwXJpNBCVOWif5XVFWBen58uVdx6OAhHqep2XFcGMI9lWJb3ZIqV0aTtflhldwUGaeF0VslNHGxOsqmsIwS0tsAhsiyVlG/7m8ZuntsNuNsPKZ3zJmK10fopBhubfakFa/acnC4EG5mXssFVKAtn+KdcLK6KdA2+Dxy3iXWWgXH8b87Jmuq5gparvoP6gFO0bCTE1Pqxfx06FSSs4E/AdS9JzAyiSiwnTidb/ur6gNRjZBigHbo92vb/EroB68i6ss7kPBgGEdfIqeyXPxgAFUULX4eN1Gz3RyprRtCyLqcJdsdbi/LgeWZtdTd35lDFZgQQ1I9kYBgdQBvYFpX18kefuf/3IMqCmGMMMxjg/7qo7Glh3sqNb4BjeA/0TsjgY2NgaIUVoxDvuyvxi/bfSHYL1tEwYUmqgaHFxjVyKvvIAHyVm+M9AnC+hWuNVdaUwF270OkFynxx7kr1weZHrRBnNzIUIyti4EDWlzoF1nSnfFlH1pXPpwmN5z803XoftuA2TKliKJFhdhg/p1BZk4K7SqJTvkXrip1EzuAAwBz2YdKOC3voWfdTqXwUSRmWpS4qRREcyW80/4PlZKC5zLqKCMazYMr/akMsswXdDj4pncT5CQkURpuMnL+o2UJj5IBOHGc4jVLlca6cqQ9Gfa5EKDcf/bibTzjOt/aephcrP2XoRZxEWnJ4P58Jr/0/4flfO3997Ri+U90in/qxTqxbfI+Ebkzvn1WRIxMaOiszEhYZqiH3UKGyA9hhPHhOL51WkKSBUg3HC/vXV26jk6oeM2Vw38v0usp98lwVbZDwPn7Hvp91IqfJgA6FLyYHyu9Xj/mvgV7OhwxV/xqcxM/lN8BP2IDzn6eL1eXyTWZp9tZtadny2XjPZyQCYPu7OPiMjOM4ABH5DKMBR9QnF6/gFbyCZvTmyycI6+eCMti9DNZ3dduFdeT5uuUGuOauHWWIpX0oN5wqVf7xiLP9D0dw2zsoxgo63YX5eAN3hE9a3vWaHXwRg/JXXIulmf7XYWp+27CDfWJJQdlCbr/0sv0zty7AyDSnCRjVRvsvVMlzBw4M7XoMzI6xW2e0gzYYnp8ZruxmhXHPlni7iyMNl2ysvYFzQLTopruIY0aY6sAQEHlr6KjhHq9TpfnXIKli9Fi6GLkcxIt21A+ZKSxEo+nhyv/pW8Udmtsjk88frQ96VxlO+Et2zrIXarVL9uAZOxXHFiLfyIfD2mB5ibqlLT68eu+bjWL4nXQh2h/Xg8+5eFetvli+VBlNFyt3XLB69HiW1wa9e/rXVT1Yd37K8eXrBL6PG9N8pCx+0JRXc04LzQMz2R9hEFrWvbJ/uBKysrhnw9jwe8L2EvQl6ttnhWt1J1qWHtx3HPdLkp2mrepbNCe60MiFL1yIztbNg39XFwPPfC3EaG7RxkoAMfK3FCs9TbG43qF9x+q54NP9a6NR+k+ox+qeWutKT74raXp3c+0z66o53nfR1lObo+DcPdtwKl9hGTzjZ3SM+cdUnORLOdUzoVdd+l3aoH8L6nT8Jdtrx2fmav6fA4NKRalcEGq2/++a5T9gWP4PwRX3QqfcA8X/AziCj8Mf2URnjo2UznD8FWNXN+r5MEGHrn+kUtEGvP+lkjsiOej9y6X7MDh4FjtSJXcNDOo/SYzN9jctfLIpNMP5Itv/Eje9SuWDnX2F6pRD+xwIcE2ZA0Odq5LnDhwYsGsI0cBtyteAylfJwU/uwBH0nrk4HAPzEv9ZIvFs5/8YwGA+KtRneTv5+UXaCc6e6EC55bIeABzWt6b8p+oxggty1XekiuGTDGBeur++1Zp49CCM9FAYJB3/73TT+zTna1DPLc3bOJHDMFh+nWuDae2+d1gMTCzK3ttGkfdZ7oLMEDgF8jlVCDcssDt7z+C4/1Bi4fmk42l9TniOZnvndzpgji/gWi5YfudRhKjH8N9tPsVOhciMIPPbch5E5ukw8QfrUelgU/xXowQHBnWoD4wdtP3KYDIcVgPTSfknstXfRiW3cHBI3RBvaZXVAs0sX6hEWTU5xTUAMbh4AmJoD8UQBuhfVXJbGKb3uboREmzm5oIqWcAQED+96F9b4SzllM3d5oFJmN4XVfLcoZuBiaENuj9mIJADBDEi/w87Fsagv5S+DlejoGNN7tCUGbM5Q6JUfR04pQ+W2UY0/oGx09IJK/gE71/E/7Z1vC+0W6mvW+GH6FfVF1X4G5v/zzaGYZUXpYuhWF9GobK5146W0vqikuf3/UnTPQnccO9S7ozn+Fub/9FFxCFEPOec0I4HuU75nEe3vUZbfZAzZxVLN9feaPDvlE3/RlDJpAscDNO9Eh32IkzKnZrl/eJ9HWYVtewBA5ZXFuZyJTZR44MDi47YCWPhy522+JMPYwvBw5mhKLjoxYP3XvyScMh+cO2n+YcocHx/Ag67lZ/0qVvHgSIVpjv0VbSHHMD/yBZTGWZ7yg5Kmhlc0W5RhmYFf5YuRc+RGNkGsSItb1enD6dewcsOPT3/H9aNldtCj3C5AAAAAElFTkSuQmCC;" vertex="1" parent="1">
                    <mxGeometry x="-330" y="680" width="102" height="102" as="geometry"/>
                </mxCell>
                <mxCell id="29" style="edgeStyle=none;html=1;exitX=1;exitY=0.5;exitDx=0;exitDy=0;strokeColor=#4D4D4D;strokeWidth=3;entryX=0;entryY=0.5;entryDx=0;entryDy=0;" edge="1" parent="1" source="12" target="11">
                    <mxGeometry relative="1" as="geometry"/>
                </mxCell>
                <mxCell id="12" value="" style="shape=image;verticalLabelPosition=bottom;labelBackgroundColor=default;verticalAlign=top;aspect=fixed;imageAspect=0;image=data:image/png,iVBORw0KGgoAAAANSUhEUgAAAFwAAABcCAYAAAGU6OLOAAAAAXNSR0IArs4c6QAAAARnQU1BAACxjwv8YQUAAAAJcEhZcwAAFxEAABcRAcom8z8AABh+SURBVHhe7V0JVFRXmmYm6Swm0ahUgbtQEBeoKhQFBUooCtRJTzRLz3Z6zslMcro7mXSP2tGeJKd7utNmul2SERABTUzsjoljku6ZyW4SArKo2RdjVhMFWYpFFFyg6i137nfrveJV1S3qvaKA2D3fOd8R4b7//e+v++7yL7fieGjNtVeeyrF2Kv8Nj1O5NsKj22GvUJoMgtdQy7P5C4jSNC6ua4k14I8qhJq/IGKjyU+leVxc8vbCgMZT73Uzjru7jYhte0XhoJmA5HACiUva7qzCBf97a6agbawSUC8A45LKCrtwAQgEX9DZJwVeoKoEjt+ygKmhvQAIewH49NHnvWjU0SuFNO5vMFnYBUklBTu1F6k0lRTJ2gtYYxUpjy0PuSBsYy0slUWscWf1FAkNBw4nzlP+xAfJn39tS46tvz3HukH5VSh66ceu/aS1VJr44M6zcxtpqTQN7GzN+QtlmFCWz8naviM00P6DBzq3KF1GQ2DaUB+Sai40/sN7/QGfKCgeu9Pf0fyNHb9ZJqbc3xHSWDr/OTNjQGMQ0DbM39xNGyVo1NjhEoMv+KyN9WQSX1Lol8oaA9rGWoY0VBHccO2TCwS1obfGvE5pNghLVdFmtTEakQ8Tw3ekYPQXLPR/WOHozrN5leaRoaerhONFqowiJhB9Q3RUo2xeYlupiI2LS92zkkze5WJdMID0KVQ8885FkvhTN7HQjtR9zjckSL3v+3tbCGvMm+Om7PzrceqHMrXSNSg4fyGToO3rwbzsB23sJkLtRO4NMIYOqMJBCyWEA4nr+EK1/KxdINJAe0Bn9QtPLnNu0ApXKZ/rl89ckLgCtQS8h6184QBPOPhJ55fsPbqcPn6w0GX0PQQ+emWalyc4oM/zhKucWbqM3PXSLwT3uS7xi+4TYvbu74kwH2mcFCIUlBuDXk8AvYYnnEe5no52HMED1ZxXWQvLducqnkCVwQIJT1O9aHVYV9Pp4hjtRXJLru3A6Vx7mvKn6NDhsD/t7/Nh2OXIIO0Oe5ZySWQcWjL96maOoKHYsywjsllO5dg28i7WQyikiAnFNznW1byLjFIRFwhew2jYmhd0A+uu5dyGjNnzycVDdb5hUIH45Q8lkXY/7QyvJR0R9yuifW8nnfVDBLf8lcMv1LGpi0xe007ufvKs8hs6GlZfEdLnVTLBSaXObgif+GhRgOCTaTPYGmTmhsAxReXBLzy+Gxzkv6mkxnStfwEGfuOwSapw4Lcvn+MKVgnIA27uiOitNZ8NGLCSygtZl2qyzmIX8gRqeeVdymTBEU4+oKOiVji4/idLhVPORczWPIFaYtpjwmtDR0epDpNFkHCwLTuN2ZsnUEvTWnWZFx8inDSEET51Wx4THk97B0+oyhse6FCEBwpmwj+iZkl5NHQpDgIeQeYKBaet92ktHv8lfwVQa26kexbnPp7w6SUOdjFWjMErANUcAFcwJevnAE84aP7PJYoIH949yXYyDDKFt87M7YYy7K0iubJI4AlXaXo4W649+ZZwpr9X2vX+fwkTty4i47ctDxGqUq6NT1VE+5BcxhccjqRxMlcw+STMSpcnhMfFlQ6uOaR6jTl4iPQEWFKIHMHkCN0C60Hq78IvMV5+PiWk60mHE44rl+pHyu4VAYKnlbn8AqG9eMjcpDSNPbry7De359nbsejv0LFpoMsScnbZAkba/qn2Yts1iqiRhTvXthlKGl15RGIrfWj6IJ4jWSnjlVsNH8259lvOxXC3FIkwSrfD3qfc3jiactI3YgHCEz5aHHCG2Xfy8OXKlCtH08KRiE+gNdd+VFGPj7OLrJuG1X9zrGxF0pSRLGPx0LIyV25xzZNb8qeQVlcqaS2yUqZHRe93Nc5HLZLKCvbPosuhmhsXiFyleKQv1cn0mbK36UTAEjUSxKPfF4Xa6wPGVD1kawktZmu2bZgFfvODbGFIy1OFW1bmBSj70IvnyBU/Ct0Fq1QXP1inqJD7T4nCm+O4SoYjWx+qSN0TOBmA333QIbTmcJSmmwChrdWv9Ay6tMbCKFjRoTjhJ+3kC7fPcwZ4DyZw5+KwhJtFa+1gJm0vlE5na3zZtA9ffOewX+nv/DC8hSMRi7d/e65XkUSVr74qwOs7FJmvImm78xhPaZXYxFzI9O2S8NIp9yGOzd1chYzwemp5SZEonX6TriX4G59gMv89VU4OVjaY8buKyJnF6XLLily/4tjO8ZQxQmxH3lNWtLL3tCzU6H9h4dd6jadsMKdXuMjHGTNEdheKe/ae5SpjhFcpmzRAPFUR3nUYRPIOtXhKaeH8ZDoM8pTl8bk9D/o2tBRTOMroJTYkTd1+OxDhjcu5SvLoX+fyIh7haNnuIne+8IB/SMDGHKMETzkeMQJhaFRB9zuSWK1fad+C3bScKT79kSVXW6oGN/16GP9wFmnp1YxpFOuf6WUfP1469F8Qlr2a/i6VblK/6ghoTpx7vuclDfpeSD9rzW1MaRWp5fkZyTtcXCUjMaXcJdGHGPzcwwDbyYfqdwiTtmaS259YLPK2O0NRDrcVsv2++JqUXcVc5YyQDrFkZmk+23TPLisI+fveP87xB1Z0s97crKgZHpZK14Xgm8WCM+n27MTr03SPHiB5K4EM1E4aOlgYjKE2n0YZX1JM5Lp43bMjtt60P29VVIkO9MX9MLk8uv4PwpsRLiIQTHI0kXheM1uVW8cOlsqifalPhC7KwnFaqUsmDXxPCQifGqZwT01CunKL0UHyzqIJlgrXZjqJ9aQ+voLA7cCGVjqpFe3KkRC5wEyHtTQmDrHB3CC/ZVqhXD72aM+1p7XkWDcgMoLkDLookxFcp/8/RveuVW6HdTUC7krzsUNrZuY4+EZUPwl8Jv7lbxgiYAv3Rlue3d2da79FETU6aFuWsRjhZYSCeMoZIULZHQ77PkX0yOCznDnXdebZB6i1uEpES2wR8Sm48zK2KLeKHdy5th1nlg3fwkMRD4B8EsTolNsOD10Oe++wXBYGCZ/OiVzbrcrto8NI+An1kGVd5Ng2KmoYA9xfPKGjRbj/4AZU1NEHpKzxhI02YXlEeRW1hkZLrvXoWHSPcESfl1emXKmox8eJJbaVY+2h5RFJQYqKfHicmdwL9bJ58RzSlDaDNC9NY66MluJMqaVgltxaMJ3ryNTLFnB5+mZFzUBMqSh85tMCu36Hp0raD5vmTyfdv/qZJF64MOgYDIJ09nVJaJwmi/UTubH6SAwbc8NSdVpFoXQmKzB9dEhmzSNd6++JuNfUQrpwXPK+cTndUAym5emlt8Y0mIgA0D2iP3du798vGtpTq7DZNpsMHPs4QOnu8xL5l71nWY4YPF3Y5SOJYf87F5UWg/A2zpGMKk8+DrJ66u5Bv8r1Gl9hODYvsBChvdWvtBriHiqODhf0xhfOKVf44G28wZDyzCtQn3ATU3p+ef61Wp8K/OM/ujdH4Cms8twLf/QrDYdQcDZvOMJDC7e0Ft43LtO9D/XR1MUU13YTlaadLtKVbQ1NHaRszrP7X8Av3QKZ8GNjzk94srTKS/3NUrhsQB793SWpzNkbrDiYuTVf7FgapHj2fCJ2d/r940hD5CkXibA8UmJUCHXTdDv2ySG6DXx3yrg47BN5is/cUUjeLs4IGB6b7IP+cTjlh8qtjEQEBVRIpw9SxQ244mrNq+JSwigOmqtcct/iweGx64Gf+q0NHyFPISNEXrQKofo7fCU59NSaquAz4Sqtsvz2xf7hsf+tRvZSIooAxyZPGSNEVEOFt/pq/S9prelYXCTfOIbH8xgeEbTq7GAW/7xdYGM0TxkjRLatCm/dDAMBLFN/xCwVDI9/90Ce0EJnSfHsGdbHEf6IheKT/3XQT+5tSNFtcW+tWY6z6HAtJ1a5SGt2muT55jizOMo04PfmKWOESOdX4a3R71f01po641Ie1edWnlvilDxP7onpy4k4kgrhjcu4SvIo1poPsMUVT9Fgzka4/Pbl/qQvpMHxlNFLLA+Q9A1IYr8s1IznKskjXWxtiLPs1O/Iv35Lpn8cR+BpON0FgS8V4mf36PaZI6tRrkucj5nzEE9JHvGibqut8FsdVSNGw+Eg1jYDmpi+8MZfcpXkkbyrhFNmlzqX85QMR2TvIZaj3JPEr203pDzGfzWFFjj/8T96jawQ/YoDRvzd4KzSfP9LCqBOIFK3wfIANQZq2Q7wQcdXXlKnv2+DdEQZ9DUmlzrbeQqGo6XcRZbu/tuATcTxDoGFBDHa4CHUcCEsjN/d+8xgwgHw9Vm3+OXL1xmYdKi1jyQQ+ZDGRZdS6rQYDRVC+dllBZK226hA0RyyTrXW1eKpo88LWeULJLnOYIyzwSwqKg/CaIBWJfr8xvodAu8BgtHa5xYRE52IQFbDZEMbCASzPDWmDEXdQSRtd91gqYguQIXRBg+Qtfs2Eem3KGNBKi5KWpCWe9dL/y4gRRelLmj74D6bYDQ4Kx4yC4qqoUgqL2zmKWaUCMoiOIsgLYK12r9NMBCBU4kYkvxhwtBZobGMbQYzibLhpSRDAVq6aSBCDV1/R8KsbcvmGZlNDVIiDaFp+GFJlRYPm88rqkVGUolzXbQJCeE4pbSI9NUaSxoL8aPoQXJZ4dZYKY8X8ubHlohYZ/AU5BERZkUV46DrmHWWndENk1rihZQbJ+kb/mj3CJjWo0XSI8usw3lhYe3yZ9N0pXlgrBYPJ3yo3Do2SK4sOh7NOD9xW7EccfiDlWnXkBvMq5TbxRaWcmcaZlg92z1w1nYXOfrqzCGHPyQ/SofMIxukVTFr5/K51PpN4ZxJKtN2FEiknlOFdDiBkPepwo3m2Adl9cJSUbQiqaKwHi8xlsdIjcInklBaTAS6iGJKfpDILCvUmXuospvJuxMnKJdfuujOyhrf4bCtcOfZNrXn2etbc2093Y4McqFgIQuVI3iFqHanw07o3wOSHfAzfoe/oQ3a4hpcCxltVBZlg9th24x79BRlXvoGM4LWpelzUdjSkWc/CeOcp4Sx9GSMDJe4B+6Fe+Le7jx7E/IeuvIz5yrqXfpoyrWndTnsT+NB0evQG3nGGEsiiQW6QUfoijwnRf1LA7Qn3dSVZ/9qgD4EAvHfpth6JEJXdAroTj+A4y051pGZxoeL40tt6dTI73ucC1mqxqVk5HDEM+BZ8EydDtsHeEblcccOTbnWtcjawwT1p2DkcMSz4RnxrKfoMyuPP3qgSmzGaxfrJL5LgXhmPDv9eeTXtN8sta5RcktDFPlzI2wAWzRRmyjmiR1O0OVcZ579/J/60GGU6lAD28BGirmGh+al1gpMHP9v6PCEbWCjk7nWSsVsxtFus11Dd30nsYP7Vhg7x0pOLfVlEjRnzWPEz6ey00lzNn3obLoEHWP25NBJNdve9GFcscHjEV69KaXqn7IHLmT5Pj2uAUaK1IhN6TNZpWvrTU6p6741Uu/ex6WLjQclz9dfSUKnW0IGhHi2RxZ76M+dn0vCqWrJ+/kOyfvOP0ueaqvkeXGc7HnhCuJ5ZTLxvJo4qpReTyTe1xK9co0pRbHm0Jhd5rSnVBWRibuLyZo1S4Xzmb5jEEeSMHCzI0M+U7JZ1BZvDxdyf7MkHv+56D2YKPtqRA1G9qIkHLYS6pmqTXbFrHykVriSkytcArxm8AijPPmWn+eJp7OsMh1euMaKinSGR55l89J06dx/7xf1RBeBjj6JJSS91+RlxM/4nR7gHlLrHlGojZd85f/Gs2KNEAcFiY1mgdSbkxXzBmLWE/lXJZU5W4NjDlOqXGTJpnyRDi2SOzjz0ChhaNts0rbaRXtyS0AQXYuvO0Wy4dlelgWDADqIYDoLrq8bDLDjZ/xODbSDCMSjdvc4lREOtOeLwhG76DuabOQMj6C9UGtuJTWzrlLMPIik7YVPh0ubmFHhIqmlTukDl13q1h6FYIRZc0nzkjTJ8/mnXEugt+Zv6WYpFTDicLIvcS1kQBZSOXBQJQ9S30eit3ayFM2JHXoJf7r3oOlpxcw+UGMXRyppRw5WYqVLfnXVQqFXk+0ZkbRXY4zu2vBj7tBR96WHGqedJRNHk10UiZCJcnskAOFewYBOAo5JYWN87Hu7WEeN/i7r6cWKuRG+LGzUe4bAxF1F8mPfX4zJVMcKxlcucWb7wyG9Grnx6NFIxxoJQwcT98C9cE/tkS4qxK9/RY2OVLDYGx0G9+DIOgAnTaiFuTwDBxOTKbJrf3H3EiFSAQJ69ulfPxBibCT6IVkPrz3POCNJ3BP31p5yoYIlDRo48UIvEfjHeD6AJMPZ253rjaa8weiT6Arm9p/lCr2L0nFca4ixUbnUuqpQkgYGAroTUjkxGQ5V9THSxL2hg5pWqoKll+LcYAMppnqJynI6lq9nh8DoTQIOZsJOF3FtXCa6l1jltqBDkVAm1rfvdyHd6J6nzrLVBM8Qo0nooE1AViHhMBoDych6iVQsLxKX6YTZqTd/gMdpdAVjfaRA+iLfLnUuUQxOt+B0jS2rqeUqkGKO9PCxGEqCCR2gC3TSAifP+9LWDWRb6SAOd2Ap7tRoEc9nikQcujZjR6HUsDJD7MmyMj8HCiDVIgQVKEZQq914RhhNQgcUNajnQ6nAOVGswMHAWVF6yYohknAYu84JcygieTB+p0ve/zeZQt+CeaTZuUhSy1VUsLIVZePCM8JoUt04Ba/Rpf52iZXCcM4MHg59GXOmfmS0fRpt4i+PWME8fEeWcG7ObPmiUtikAgVOjk3dMSlyGi6hAwql1KPbVOAIN1/RVGz9LkgsYgVWSWUFO4OPih0OsYLB+Xb33DFfFO9dGzJpoowNx1rzjDCahA7akjoVwrE76JZff3mdXiKLixq8Km52acHqSDlr0RAlq6vWZQjS4cMh+2oUTqL4cTjb92iJe+Le2hMVVUg9dbR343TF2HsVWcocijYTthZfg1JZ7SnvseKU8nyS9UiRcLGnO8ToKJNFme1oGh33wj1/+1JgZTeAU+q9KNc1UGuslyjtpRNmb/sBJUOfTnhbeIeOxoIzUPsQ5iA7HDqK4mr4OkZyew/ZGLOn03tpDzpVgRNb2aGnI2BsELnutHcPRvlRfk97efdI9HKV129ZKO8/9hLXbVf7hYcZnvlVOAaLlpAFmZBd+3mo4wo40fTcwIXXL5fEEQpOYLKk6+9u9mURWljKR2YsV4lDM3Hq/4Jdq8SW3vZQRwYFnEo4yAHGwqEO0Wz/cQ2uhb/k1y/0cR1VwCc9XeKm5xweoeYqIo6QTxzVTL7JMkzme1JZ4VYjX9ITDVEEN/nhLGr41eJH7s+4PV4FvjYKXyOF7zPBsSCW+zpIAl07T6IbFhA/43d59G930Tb7375IupSvmgqHj9o/FWdU3CZu3TtDJIfCH/sXC4YMJTwklzmfNerMiobo8Sgbm7glU77j+fuEb3pOcXt9LADZdz5/v4DS5OseKSDVL1rEcN9GESsyZ1Wt+RnFrENjtIyuEsbH5Dphy0IyZ8dyac2B/xAOnnxbuOC9yC0HDQe0vejtl2pPviWupTLmVCyXIBOyUUcyo9Qlf/Ea7dlGqtKMEgU0PmM/q5hTH5JL6PAygnWEkYhiyWkleXT4WYwJl30hy6yyfGluxQrRvvMmGcTP+B3+hjZoi2uCCy2nlhURe0W+1PNmokTCfFdZTKhUK3nejPJs1+QS540pOPVoGOe6jjVNpcVk5aNLReFgvCwZLYA2QKRGoHBpoDr+RsV80QHR/OQdrk+Y4Q1+a89YkkWmti0nd/0+U5AbJslG6591E736fbrKqTN/wo3ORwtLWf7NiHtGWyQ+moSxcWLylv3pgtGabSPEdzGS9xLIQI35ZsVMsQedUB9iY/u3eJihPVv+w/+k0pXIyBibDR90rBYOmh5SzDLySC6nhn9i5beqx8+mTCgpkt99ZRZdicR42YehAz2arkCE+lE0dDBoj7/VUlXUN9Zj/PQyF7mh3Cm1VU8VedW4UZON0YlEOpLQN/Cm6TblscceU36ZOc5S6arAOM++8GAUjZ9QWkTyqvLE/oNm40ex8Agj4wx3Oj4LjabK1p1TximP+e1ESmnWeEtl0ZbkSpeHbaBidMBDMFm6Rkkx+YfHs0S5frIs8YynkzLGZTpcSIfNHsot8suTYvfNcaONpMrCLNr79yVXuLzw1cQipAdj46CK+/dmiDiswsiyjzmVjtAe/DEr+PfilALvoQT93058qQFBj+TK4lvoh/AU7f1uDEOYgPHNqMxFrCOojWXf7ufmhV32sWwndqYnJe25+FdsMLmlxoSn5EPmW2Q1GPDnDnY07i5nmqWiaBVdem5IKndV0g/gAN2uH0MODV2J9E8tdUkNLyYJtGf306VZBzXwMbHOfECoM1WJjab1QoN5tfxWQhr5JMgHPeaIi/s/kpFFTBJvTxYAAAAASUVORK5CYII=;" vertex="1" parent="1">
                    <mxGeometry x="-520" y="685" width="92" height="92" as="geometry"/>
                </mxCell>
                <mxCell id="23" style="edgeStyle=none;html=1;exitX=1;exitY=0.5;exitDx=0;exitDy=0;strokeColor=#4D4D4D;strokeWidth=3;entryX=0;entryY=0.5;entryDx=0;entryDy=0;" edge="1" parent="1" source="16" target="9">
                    <mxGeometry relative="1" as="geometry"/>
                </mxCell>
                <mxCell id="24" style="edgeStyle=none;html=1;exitX=1;exitY=0.5;exitDx=0;exitDy=0;strokeColor=#4D4D4D;strokeWidth=3;entryX=0;entryY=0.5;entryDx=0;entryDy=0;" edge="1" parent="1" source="16" target="21">
                    <mxGeometry relative="1" as="geometry"/>
                </mxCell>
                <mxCell id="25" style="edgeStyle=none;html=1;exitX=1;exitY=0.5;exitDx=0;exitDy=0;strokeColor=#4D4D4D;strokeWidth=3;entryX=0;entryY=0.5;entryDx=0;entryDy=0;" edge="1" parent="1" source="16" target="22">
                    <mxGeometry relative="1" as="geometry"/>
                </mxCell>
                <mxCell id="26" style="edgeStyle=none;html=1;exitX=0;exitY=0.5;exitDx=0;exitDy=0;strokeColor=#4D4D4D;strokeWidth=3;" edge="1" parent="1" source="16" target="8">
                    <mxGeometry relative="1" as="geometry"/>
                </mxCell>
                <mxCell id="16" value="" style="shape=image;verticalLabelPosition=bottom;labelBackgroundColor=default;verticalAlign=top;aspect=fixed;imageAspect=0;image=data:image/png,iVBORw0KGgoAAAANSUhEUgAAAGwAAABsCAMAAAHPv5dpAAAAAXNSR0IArs4c6QAAAARnQU1BAACxjwv8YQUAAAK+UExURQAAAAAAAAAAAAAAAAAAAAAAAAAAAAAAAAAAAAAAAAAAAAAAAAAAAAAAAAAAAAAAAAAAAAAAAAAAAAAAAAAAAAAAAAAAAAAAAAAAAAAAAAAAAAAAAAAAAAAAAAAAAAAAAAAAAAAAAAAAAAAAAAAAAAAAAAAAAAAAAAAAAAAAAAAAAAAAAAAAAAAAAAAAAAAAAAAAAAAAAAAAAAAAAAAAAAAAAAAAAAAAAAAAAAAAAAAAAAAAAAAAAAAAAAAAAAAAAAAAAAAAAAAAAAAAAAAAAAAAAAAAAAAAAAAAAAAAAAAAAAAAAAAAAAAAAAAAAAAAAAAAAAAAAAAAAAAAAAAAAAAAAAAAAAAAAAAAAAAAAAAAAAAAAAAAAAAAAAAAAAAAAAAAAAAAAAAAAAAAAAAAAAAAAAAAAAAAAAAAAAAAAAAAAAAAAAAAAAAAAAAAAAAAAAAAAAAAAAAAAAAAAAAAAAAAAAAAAAAAAAAAAAAAAAAAAAAAAAAAAAAAAAAAAAAAAAAAAAAAAAAAAAAAAAAAAAAAAAAAAAAAAAAAAAAAAAAAAAAAAAAAAAAAAAAAAAAAAAAAAAAAAAAAAAAAAAAAAAAAAAAAAAAAAAAAAAAAAAAAAAAAAAAAAAAAAAAAAAAAAAAAAAAAAAAAAAAAAAAAAAAAAAAAAAAAAAAAAAAAAAAAAAAAAAAAAAAAAAAAAAAAAAAAAAAAAAAAAAAAAAAAAAAAAAAAAAAAAAAAAAAAAAAAAAAAAAAAAAAAAAAAAAAAAAAAAAAAAAAAAAAAAAAAAAAAAAAAAAAAAAAAAAAAAAAAAAAAAAAAAAAAAAAAAAAAAAAAAAAAAAAAAAAAAAAAAAAAAAAAAAAAAAAAAAAAAAAAAAAAAAAAAAAAAAAAAAAAAAAAAAAAAAAAAAAAAAAAAAAAAAAAAAAAAAAAAAAAAEXXt9AAAADpdFJOUwABAgMEBQYHCAkKCwwNDg8QERITFBUWFxgZGhscHR4fICIjJCUmJygpKissLS4vMDEyMzQ1Njc4OTo7PD0+P0BBQkNFRkdISUpLTE1OT1FSVVZXWFlaW1xeX2BhYmNkZWZnaGlqa2xtbm9wcXJzdHV2d3h5enx9fn+AgYKDhoeIiYqMjY6QkZKUlZabnp+goaKjpKWmp6ipqqutrq+wsbKztLa3uru8vb6/wMHCw8TFxsfIycrLzM3Oz9DR0tPU1dbX2Nna29zd3t/g4eLj5OXm5+jp6uvs7e7v8PHy8/T19vf4+fr7/P3+pStIUQAAAAlwSFlzAAAXEQAAFxEByibzPwAADDRJREFUWEetmYl/VcUVgCcvLE8IEBCsikFE1gZkkbI9raHSBigUpeAChdCiVaq0Ci4ELVoFFBogNlTTKoFSoVBlkUILNaxlBwOCQCAJWwhw/oue7d47d3lL0O+XvHuWmTt3mXtmzoyJYBcQqlQD1OyDMQAVrDr20yxISUTsYGIAMfwnC6oJNIssXk/9GP8LuZJrkuOX/Eulz5+lQ+eBolbAFDrAL1lziotPWWErPrhkrsilKJ3tBVA+jB2DxEonasXFCAPFxhTCK3gznchTigXMbPWtAnPD03L51n9LpfAf/9qrQ37xMJ8bqCSFTnOEVVbIS+xIiMan8NOaigI8AqalWhykKl0A457CmGWoXiNhRzf6JS8dCZItxvN7FK9YbCaba/grrr16x07J/XH4G6lNxaZPg6EicT4WeD48zpXjQtF87VnaY+RrpwrhFd1OLmMS5QBPfvO6KMbcHHsO7965/UFSeEvbePwXLPVTh1IMZWyGyXwRYX6oxwDjTEPtcHwTU02hWjzkhIxaHMR4yimhVmIPd5MiAxVgDpOY73lJvY+E6/TzDqkkICT62yDDmyyNZKfLZXGyq6hBbB5NTD+A+onou6kWC644BH0PgFk5jr/mDrFYbCX7rqIXXShugVXc/O3UBPsALgK8ZsxJaFCTw2rWexq61yq/7+dafbbpGvJBltOV0FqvPmqPjhf4cEAUtdFH8gEJE+bR71tqVmosDT22y+dbS87+qhDGTFGpE7nMP1HqW/kpy0R1JT19kRMJFHurggCe6EYiz9GwmOu7u4F1h45yBSXxeLyEJTNZPQTMZJvwuVdLgPnqsc7nUTUrhs3iw0zN65BtzAnAa10UdZYIpkKd6YJtnqGGKZScNzMir8AD6kdxXBHeG3hFJXxordZBgZYKoWWEi/iYVRSs6OexW50A2+5mw14UsQ8iE8VO3MMGixyxL1c1gIYm7C42dWKFB1SP4mstM1p1Qk1Jwfdhsll6RioYM57VdFDJ/1kygtLc1WJJyl4a9uBpfFDvch2O2U8as4bO4gZ5/uKJ82oA+naby+3sz0GHPo8LA1B2qw3uwfRza9Fb+VDl2XS+ESRRDEDsIcVGpiGGRx7Y2QQjNpvTVbtT3BxOCJKp137FVq/aELrEn/5dNYA3yPu0yPeSvEhkEiMeiaoAOHCb7SpDDJVptaoEuYnOZ1S2WSDf6/OqBuEeqLIFnQ35saohuFpLVWy4GtKCNfzCUvEgF9qgGsEGhzZq9LiqHuZtNQr5bDOmGZSrxQPWG9Od3JfU4IHGGvz/Cv938jzHIYdHeLJfBpimRh/kT05kLCHm4Jd7XQv5uQsnFk6Ej2QC4LwCC+bvx59uBwEWG7POfeSpaYYjKnY0EufRT2NIMptJAV1ZHpygsDNHTWkoxEEXh8fhdH/DTQ2P/ePCPSAIwAyOHzRq8PhxP0aNqepMis52A+xSbyQFsL619DHiysD3VKJJcmF90pfgH2AweTiloqClQoTGJZwSWWgpH8OgIh/ntMLhMaYnBrlvYJ/JLaIOzrQv3VOtpV3uUR/yBBt6oLSPpTu2iR3ZzQYbdcA7qpuu13eoZDo7I/MyNXjotbRTNYDOqin2e7wpRnzHaggzSEvYT2a0Wg6rHsVgLVOnOqGmG3oMsJDL6OsZxYoQFXtt/kiF/sIilycmFtezIRUfUkGWGnYXteJqrKUDkzL33fLk2L3Z1GDBUSLpGGDexQFdh67k8LC9+g2UtBZlyPgLV0zMveCtWZgAxGK5P1CdptY/g5XcYl+qk0OBDas1B+jq3edWchHfUwO8gr41xjxF8lxjXmNjHaWS8Yhqw9WAJ8bsY+8WRzEvi2Q9Y6SSpxc9enCiQpxH54ALIsuAhp8WYNrCsDmKZuweRknTSRazd5K5KctJqzkfRhUpI1DQuQHeFyFKEE7TGa4GR5s6BVNWgz3idarBQ04PTV1NZ5Hx+AlSbnQn5V4S5Zbdaju703N8VjXE8p5h2RwgWfMTtiPOe1MVYKyl/QhFWRmSLypc7TnVYR0qt6sMi4x5S0UppgpsEZW6nLLK9FYJQU/WApVDdEBvxFBeq9OFx1UP0h59vEDlRypF5tIMVStQ2eJ5qYVz62ioWkeVbchuPeQg7MYpRpCfcDVjOrnTUh93sDNwd/2tcL+BLQNVS4KMdvZaFRsARg6srKzurDaLT89Wzu+r3+hnakPeFotwRY0ebdUjqBHJSyQSHP/P9R/rhkGP1+Gb3k9ylXIsqEblEplxIrneOp1STt8HV8tXiwebsds0cDbj4wgtWbLfyVlcpvHkFI6Ts8w3aHanN0BfNY23avPAD64f1RFKpsWJdiVfqAHBLqNLmn7885IQWioEVtv0Hy0TgNYjtFSIvGJj7pJiAa7j+J56YomFZOnOoQzHMTxfGihqLAY42A1r7Kc4QJkhrXClJ4sKr6A07SUnjcwIno5z5vqaBtBbp9k8muYTszQZRl6d963PG0UW9a9ZKMTwpgFWUHr6EgpVaVeIMmcChnHOPvCdIAfzu/MMAd9Nt94SnDDRMObhf0CGLykVxXzC+VN0FhpF2WReSM2gIyUhb04xr9zcFZ0CRnIdE0Ps78VzUiaHEcjXunFmRKi+8SoVeDVilrtj5ud8TJrAJiFFaDguJThORZNxY4Mmd6SDFb48vigpofnEpgeN6b8JhYMldkjz4MX8jpMjA5wNhlfksps+KTvLumms7XNITXBYl+xyupX9V00ONRSikywh2FRwMZuDk/y7NdLjD/VRVWj5FM+hfIQGihD5PE65bKIVtiBtEomo/HsAPVqPS+HBzIXGUaTc6mXVYylMNIKsMdVaFblBAy4S9SH4xnri3FD1NIph57S6i3+dSaG1e4ulk2b8JiNenJTozRNmZahOWhRr7mLRQiZNt8pnOK9XCtVEbAjuBRLtOvXfof5bZhmtN/PJvKe0vX8nf86fdGmx0SzRlCobB3gfzlTVmPZJZ8eNZp/MmzmVtFjrmInnk03hG00ln6+Zr7fd1Bm/A6cZh2gD4g/4oZ36U9ny5cuXBKMQnP3rB2gXyv78ZX3E+HOVErHYRvzMqMvn8Ybi49SCklW0QGKhRKClKK3hCOHk0S7/CgWOF9Xj8XvMztbhcSn7+7KtdkGRTB54302oexRTzY9Y7EKu0NL8VncjwaHDEXU5fHWf4Q0mgI8wtX3U2WdBaPIV08V4m4Vyj6HGttzGdo+h/JhseCO1T0TSuFhDX4EdsUtpi1QINZaep7SqMUOWqIk4QGmy0pl31ZAq3yyw0Y1tpmzXo5muGcAZ3s8gulqBvkqXEITGNXbyV8EZZNxpDPvmxxQ+dbdG+RaN3fx3L63mYjVGPGSazrb707e5M3yKgZXPbNphcDg6m0NZ9gheKSLSNFZfdey4cCxiJgdwQdJx4uEjVVUn3I9+54gmajeml7OleKqtWphQY1taqIeIP+Z0Kw9v/fwJtTBfe0/4ZevL860NhxoLfNRtQl8Z/E5dwYnTRUl7ZE3QYaP92DE18rPVd+PYkcPLsnOasycU6QAo4cqZq2mJsG+zxzG1udRtU8/aXD6l7I4G2bzZeSsW++e6SX7fUrVlSI2OT633qSElpbwa6yFJT8Y4jZn1akiJ7BE7DG7s2Ok29n01pMGLtxlugtu4jZlnIz+4ELL0TrSaWFS8q56WgzPFa8z4lzLCNNTvLi6aKNsDFtamxMkXZqRkuj2wtXlOrQ4vnNTTILL6G2KkupnTw9Q6YLAKaRns5CAJ3stzsPdYXEZbccTPKl/AjOa2VVo4RB3n5gHc/SeLet6Gr8VpRTq68KXWRm308EQhmhwv6fw16eOx33zCnpR8gj2BNn6sF1/j30yLYpkWRXqS3hzTjcwa28BRkbdDhPCGX4B7dmtJ5NTUnr2mXyHp/dCqp58736dSV6b36jnF2j/dTXPeVAyrhj0Vpfnt3W1Rh5ojRWMCMZ/IHVN0NJjtQ3n7/NKKPVDt9Oh0JF0HOVnlEhHbhe9w0SU9jW2sAPv9+tFtTL6zvZsB13qb1iPXYe8v0JM0ltxdeqYM2KUj6q0zFc9SNwO/2vNyxjNuLDqt853z9xszg77pqVrl1mldOE5S8Ck0KtQOd3cqUXqE+mGDtNFyXGHUQsytMgczEc7Q804AnOCllGzMgFIvp38HPOQtQ2SOMf8Hzig0+mYTAuUAAAAASUVORK5CYII=;" vertex="1" parent="1">
                    <mxGeometry x="450" y="302" width="108" height="108" as="geometry"/>
                </mxCell>
                <mxCell id="19" style="edgeStyle=none;html=1;exitX=0.5;exitY=0;exitDx=0;exitDy=0;strokeColor=#FF3333;strokeWidth=3;" edge="1" parent="1" source="17" target="3">
                    <mxGeometry relative="1" as="geometry"/>
                </mxCell>
                <mxCell id="20" style="edgeStyle=none;html=1;exitX=1;exitY=0.5;exitDx=0;exitDy=0;entryX=0;entryY=0.5;entryDx=0;entryDy=0;strokeColor=#FF3333;strokeWidth=3;" edge="1" parent="1" source="17" target="8">
                    <mxGeometry relative="1" as="geometry"/>
                </mxCell>
                <mxCell id="27" style="edgeStyle=none;html=1;exitX=0.5;exitY=1;exitDx=0;exitDy=0;strokeColor=#4D4D4D;strokeWidth=3;" edge="1" parent="1" source="17" target="18">
                    <mxGeometry relative="1" as="geometry"/>
                </mxCell>
                <mxCell id="17" value="" style="shape=image;verticalLabelPosition=bottom;labelBackgroundColor=default;verticalAlign=top;aspect=fixed;imageAspect=0;image=data:image/png,iVBORw0KGgoAAAANSUhEUgAAAGwAAABsCAMAAAHPv5dpAAAAAXNSR0IArs4c6QAAAARnQU1BAACxjwv8YQUAAAK+UExURQAAAAAAAAAAAAAAAAAAAAAAAAAAAAAAAAAAAAAAAAAAAAAAAAAAAAAAAAAAAAAAAAAAAAAAAAAAAAAAAAAAAAAAAAAAAAAAAAAAAAAAAAAAAAAAAAAAAAAAAAAAAAAAAAAAAAAAAAAAAAAAAAAAAAAAAAAAAAAAAAAAAAAAAAAAAAAAAAAAAAAAAAAAAAAAAAAAAAAAAAAAAAAAAAAAAAAAAAAAAAAAAAAAAAAAAAAAAAAAAAAAAAAAAAAAAAAAAAAAAAAAAAAAAAAAAAAAAAAAAAAAAAAAAAAAAAAAAAAAAAAAAAAAAAAAAAAAAAAAAAAAAAAAAAAAAAAAAAAAAAAAAAAAAAAAAAAAAAAAAAAAAAAAAAAAAAAAAAAAAAAAAAAAAAAAAAAAAAAAAAAAAAAAAAAAAAAAAAAAAAAAAAAAAAAAAAAAAAAAAAAAAAAAAAAAAAAAAAAAAAAAAAAAAAAAAAAAAAAAAAAAAAAAAAAAAAAAAAAAAAAAAAAAAAAAAAAAAAAAAAAAAAAAAAAAAAAAAAAAAAAAAAAAAAAAAAAAAAAAAAAAAAAAAAAAAAAAAAAAAAAAAAAAAAAAAAAAAAAAAAAAAAAAAAAAAAAAAAAAAAAAAAAAAAAAAAAAAAAAAAAAAAAAAAAAAAAAAAAAAAAAAAAAAAAAAAAAAAAAAAAAAAAAAAAAAAAAAAAAAAAAAAAAAAAAAAAAAAAAAAAAAAAAAAAAAAAAAAAAAAAAAAAAAAAAAAAAAAAAAAAAAAAAAAAAAAAAAAAAAAAAAAAAAAAAAAAAAAAAAAAAAAAAAAAAAAAAAAAAAAAAAAAAAAAAAAAAAAAAAAAAAAAAAAAAAAAAAAAAAAAAAAAAAAAAAAAAAAAAAAAAAAAAAAAAAAAAAAAAAAAAAAAAAAAAAAAAAAAAAAAAAAAAAAAAAAAAAEXXt9AAAADpdFJOUwABAgMEBQYHCAkKCwwNDg8QERITFBUWFxgZGhscHR4fICIjJCUmJygpKissLS4vMDEyMzQ1Njc4OTo7PD0+P0BBQkNFRkdISUpLTE1OT1FSVVZXWFlaW1xeX2BhYmNkZWZnaGlqa2xtbm9wcXJzdHV2d3h5enx9fn+AgYKDhoeIiYqMjY6QkZKUlZabnp+goaKjpKWmp6ipqqutrq+wsbKztLa3uru8vb6/wMHCw8TFxsfIycrLzM3Oz9DR0tPU1dbX2Nna29zd3t/g4eLj5OXm5+jp6uvs7e7v8PHy8/T19vf4+fr7/P3+pStIUQAAAAlwSFlzAAAXEQAAFxEByibzPwAADDRJREFUWEetmYl/VcUVgCcvLE8IEBCsikFE1gZkkbI9raHSBigUpeAChdCiVaq0Ci4ELVoFFBogNlTTKoFSoVBlkUILNaxlBwOCQCAJWwhw/oue7d47d3lL0O+XvHuWmTt3mXtmzoyJYBcQqlQD1OyDMQAVrDr20yxISUTsYGIAMfwnC6oJNIssXk/9GP8LuZJrkuOX/Eulz5+lQ+eBolbAFDrAL1lziotPWWErPrhkrsilKJ3tBVA+jB2DxEonasXFCAPFxhTCK3gznchTigXMbPWtAnPD03L51n9LpfAf/9qrQ37xMJ8bqCSFTnOEVVbIS+xIiMan8NOaigI8AqalWhykKl0A457CmGWoXiNhRzf6JS8dCZItxvN7FK9YbCaba/grrr16x07J/XH4G6lNxaZPg6EicT4WeD48zpXjQtF87VnaY+RrpwrhFd1OLmMS5QBPfvO6KMbcHHsO7965/UFSeEvbePwXLPVTh1IMZWyGyXwRYX6oxwDjTEPtcHwTU02hWjzkhIxaHMR4yimhVmIPd5MiAxVgDpOY73lJvY+E6/TzDqkkICT62yDDmyyNZKfLZXGyq6hBbB5NTD+A+onou6kWC644BH0PgFk5jr/mDrFYbCX7rqIXXShugVXc/O3UBPsALgK8ZsxJaFCTw2rWexq61yq/7+dafbbpGvJBltOV0FqvPmqPjhf4cEAUtdFH8gEJE+bR71tqVmosDT22y+dbS87+qhDGTFGpE7nMP1HqW/kpy0R1JT19kRMJFHurggCe6EYiz9GwmOu7u4F1h45yBSXxeLyEJTNZPQTMZJvwuVdLgPnqsc7nUTUrhs3iw0zN65BtzAnAa10UdZYIpkKd6YJtnqGGKZScNzMir8AD6kdxXBHeG3hFJXxordZBgZYKoWWEi/iYVRSs6OexW50A2+5mw14UsQ8iE8VO3MMGixyxL1c1gIYm7C42dWKFB1SP4mstM1p1Qk1Jwfdhsll6RioYM57VdFDJ/1kygtLc1WJJyl4a9uBpfFDvch2O2U8as4bO4gZ5/uKJ82oA+naby+3sz0GHPo8LA1B2qw3uwfRza9Fb+VDl2XS+ESRRDEDsIcVGpiGGRx7Y2QQjNpvTVbtT3BxOCJKp137FVq/aELrEn/5dNYA3yPu0yPeSvEhkEiMeiaoAOHCb7SpDDJVptaoEuYnOZ1S2WSDf6/OqBuEeqLIFnQ35saohuFpLVWy4GtKCNfzCUvEgF9qgGsEGhzZq9LiqHuZtNQr5bDOmGZSrxQPWG9Od3JfU4IHGGvz/Cv938jzHIYdHeLJfBpimRh/kT05kLCHm4Jd7XQv5uQsnFk6Ej2QC4LwCC+bvx59uBwEWG7POfeSpaYYjKnY0EufRT2NIMptJAV1ZHpygsDNHTWkoxEEXh8fhdH/DTQ2P/ePCPSAIwAyOHzRq8PhxP0aNqepMis52A+xSbyQFsL619DHiysD3VKJJcmF90pfgH2AweTiloqClQoTGJZwSWWgpH8OgIh/ntMLhMaYnBrlvYJ/JLaIOzrQv3VOtpV3uUR/yBBt6oLSPpTu2iR3ZzQYbdcA7qpuu13eoZDo7I/MyNXjotbRTNYDOqin2e7wpRnzHaggzSEvYT2a0Wg6rHsVgLVOnOqGmG3oMsJDL6OsZxYoQFXtt/kiF/sIilycmFtezIRUfUkGWGnYXteJqrKUDkzL33fLk2L3Z1GDBUSLpGGDexQFdh67k8LC9+g2UtBZlyPgLV0zMveCtWZgAxGK5P1CdptY/g5XcYl+qk0OBDas1B+jq3edWchHfUwO8gr41xjxF8lxjXmNjHaWS8Yhqw9WAJ8bsY+8WRzEvi2Q9Y6SSpxc9enCiQpxH54ALIsuAhp8WYNrCsDmKZuweRknTSRazd5K5KctJqzkfRhUpI1DQuQHeFyFKEE7TGa4GR5s6BVNWgz3idarBQ04PTV1NZ5Hx+AlSbnQn5V4S5Zbdaju703N8VjXE8p5h2RwgWfMTtiPOe1MVYKyl/QhFWRmSLypc7TnVYR0qt6sMi4x5S0UppgpsEZW6nLLK9FYJQU/WApVDdEBvxFBeq9OFx1UP0h59vEDlRypF5tIMVStQ2eJ5qYVz62ioWkeVbchuPeQg7MYpRpCfcDVjOrnTUh93sDNwd/2tcL+BLQNVS4KMdvZaFRsARg6srKzurDaLT89Wzu+r3+hnakPeFotwRY0ebdUjqBHJSyQSHP/P9R/rhkGP1+Gb3k9ylXIsqEblEplxIrneOp1STt8HV8tXiwebsds0cDbj4wgtWbLfyVlcpvHkFI6Ts8w3aHanN0BfNY23avPAD64f1RFKpsWJdiVfqAHBLqNLmn7885IQWioEVtv0Hy0TgNYjtFSIvGJj7pJiAa7j+J56YomFZOnOoQzHMTxfGihqLAY42A1r7Kc4QJkhrXClJ4sKr6A07SUnjcwIno5z5vqaBtBbp9k8muYTszQZRl6d963PG0UW9a9ZKMTwpgFWUHr6EgpVaVeIMmcChnHOPvCdIAfzu/MMAd9Nt94SnDDRMObhf0CGLykVxXzC+VN0FhpF2WReSM2gIyUhb04xr9zcFZ0CRnIdE0Ps78VzUiaHEcjXunFmRKi+8SoVeDVilrtj5ud8TJrAJiFFaDguJThORZNxY4Mmd6SDFb48vigpofnEpgeN6b8JhYMldkjz4MX8jpMjA5wNhlfksps+KTvLumms7XNITXBYl+xyupX9V00ONRSikywh2FRwMZuDk/y7NdLjD/VRVWj5FM+hfIQGihD5PE65bKIVtiBtEomo/HsAPVqPS+HBzIXGUaTc6mXVYylMNIKsMdVaFblBAy4S9SH4xnri3FD1NIph57S6i3+dSaG1e4ulk2b8JiNenJTozRNmZahOWhRr7mLRQiZNt8pnOK9XCtVEbAjuBRLtOvXfof5bZhmtN/PJvKe0vX8nf86fdGmx0SzRlCobB3gfzlTVmPZJZ8eNZp/MmzmVtFjrmInnk03hG00ln6+Zr7fd1Bm/A6cZh2gD4g/4oZ36U9ny5cuXBKMQnP3rB2gXyv78ZX3E+HOVErHYRvzMqMvn8Ybi49SCklW0QGKhRKClKK3hCOHk0S7/CgWOF9Xj8XvMztbhcSn7+7KtdkGRTB54302oexRTzY9Y7EKu0NL8VncjwaHDEXU5fHWf4Q0mgI8wtX3U2WdBaPIV08V4m4Vyj6HGttzGdo+h/JhseCO1T0TSuFhDX4EdsUtpi1QINZaep7SqMUOWqIk4QGmy0pl31ZAq3yyw0Y1tpmzXo5muGcAZ3s8gulqBvkqXEITGNXbyV8EZZNxpDPvmxxQ+dbdG+RaN3fx3L63mYjVGPGSazrb707e5M3yKgZXPbNphcDg6m0NZ9gheKSLSNFZfdey4cCxiJgdwQdJx4uEjVVUn3I9+54gmajeml7OleKqtWphQY1taqIeIP+Z0Kw9v/fwJtTBfe0/4ZevL860NhxoLfNRtQl8Z/E5dwYnTRUl7ZE3QYaP92DE18rPVd+PYkcPLsnOasycU6QAo4cqZq2mJsG+zxzG1udRtU8/aXD6l7I4G2bzZeSsW++e6SX7fUrVlSI2OT633qSElpbwa6yFJT8Y4jZn1akiJ7BE7DG7s2Ok29n01pMGLtxlugtu4jZlnIz+4ELL0TrSaWFS8q56WgzPFa8z4lzLCNNTvLi6aKNsDFtamxMkXZqRkuj2wtXlOrQ4vnNTTILL6G2KkupnTw9Q6YLAKaRns5CAJ3stzsPdYXEZbccTPKl/AjOa2VVo4RB3n5gHc/SeLet6Gr8VpRTq68KXWRm308EQhmhwv6fw16eOx33zCnpR8gj2BNn6sF1/j30yLYpkWRXqS3hzTjcwa28BRkbdDhPCGX4B7dmtJ5NTUnr2mXyHp/dCqp58736dSV6b36jnF2j/dTXPeVAyrhj0Vpfnt3W1Rh5ojRWMCMZ/IHVN0NJjtQ3n7/NKKPVDt9Oh0JF0HOVnlEhHbhe9w0SU9jW2sAPv9+tFtTL6zvZsB13qb1iPXYe8v0JM0ltxdeqYM2KUj6q0zFc9SNwO/2vNyxjNuLDqt853z9xszg77pqVrl1mldOE5S8Ck0KtQOd3cqUXqE+mGDtNFyXGHUQsytMgczEc7Q804AnOCllGzMgFIvp38HPOQtQ2SOMf8Hzig0+mYTAuUAAAAASUVORK5CYII=;" vertex="1" parent="1">
                    <mxGeometry x="-140" y="302" width="108" height="108" as="geometry"/>
                </mxCell>
                <mxCell id="28" style="edgeStyle=none;html=1;strokeColor=#4D4D4D;strokeWidth=3;entryX=0.5;entryY=0;entryDx=0;entryDy=0;exitX=0.5;exitY=1;exitDx=0;exitDy=0;" edge="1" parent="1" source="18" target="10">
                    <mxGeometry relative="1" as="geometry">
                        <mxPoint x="-24" y="600" as="sourcePoint"/>
                    </mxGeometry>
                </mxCell>
                <mxCell id="18" value="" style="shape=image;verticalLabelPosition=bottom;labelBackgroundColor=default;verticalAlign=top;aspect=fixed;imageAspect=0;image=data:image/png,iVBORw0KGgoAAAANSUhEUgAAAFwAAABcCAYAAAGU6OLOAAAAAXNSR0IArs4c6QAAAARnQU1BAACxjwv8YQUAAAAJcEhZcwAAFxEAABcRAcom8z8AAA82SURBVHhe7V0JdBXVGSbLW5K85OVlIQECAbSgLCGeInCoJFG02oo9VQGLirhgcYtSERBLCSDW4ym21lMFcTlu2Da2KAcKLqC4IChFNkEwLEFFogJFloBsf7//ztzJzHvz3puXN28J5DvnO/9d//vPP3fuvTPvzrw2emRmZt4EQZLp6emnOD0YKD8/f7AaFkhLS2uE4MqmCMgoKCi4GUK2GACzCqMhZIWAfFMtOij5ubm5l6uRUGRI2YY8Hg99smkbtUlJJcbdEyZTG4eLziptZ14hv10nUbDysl8JOaBysKgwcPBlgRVcLle9GglFhpQaAhL8EH0FBieasrCwsA+kEegK/gWDwiyToGCFGjbAtDDTrELQwioNMCusAdfCTpb62mYU0Aoz7h93J91z2w005sZrRFxClAREYa83RybS5g2rqE+Ps0V89Yp3hFSKNtMMCS3DDBEVdjqdtWpQQN+0GYPCrLAp3W73QkjLoJSUFK4YDmNArZHU1NQPOTEcZIWQ8BvbNIY7ElkwLLxe75UYlAQxEl8H60VdXAiGM6mHZeVBwHOCplwoy87OppycHBHO9eVR7149ZSN01k+6U2lpRy0uy0kJ6hGonMnwte0gJMOT6RJSn8/D6qrlb4swQ83Tw6i88qKL6e7quzQl942fQFUVF2jxkaNuohHXDFfiGPB79TxXhPv37y/L6GFQ7g+zCpEgQcrRnXj25+5ExcXFpVaJ7ng111MZGg6HYyOELBzAjIyMpyEjAyy2MpfqGRGsVoqsAYypb0JYK2xUHr4ORsO1EM1VHrqeDcqZ5rBJOTMQkSivqalJl8MtE11zGpLtUW4GXJnxVS4TmkXcPDwBKWCq3IOJgicLDjOrqqq0MHPwYCyP1bBugqCsrCwZFjBXjsW5HPilfOzJOYa4XjI4XPfFZ0KCAkHdIivoce2t1bR21fsi/Yv6L+mqn/cX6fMWL6XZsx6PXHnVoJ8Z4qGkJeVjx46losJ8kdGzdxlNmzpVFhKcOXOmFtZNbdSnT5kMCwS1vLlU1yoCZso1oJ+vhjDPtIBwylvWFaoBkwVfbc1WDgRXrkIUwNU3wmyWN2O7du06Ye49yfX0JzgAuLzPgpAWNIeRA+vuZyDMlDWb8M5YyNgAI+pjEIYG0anYtUdNeMSfKKsRcYMeSbOb5qgAj1wLoTWAuyB+1BIVMNM+BGEwXBIH8BFk9NBdrpJRI9gtoJ5Rn4FEGS7Z7ANItOGS6LJ3QlpHLAwvLCz0QOh1WiKujRchrSEWhkcIrW1Mb0FvagOQaMN1c7G54bW1tWlm0yEM34RsrXL79u07+peLlmVlZVlsgxlCGq7PTDADEM7jWqY/gqUzbr95hMgr6qA8mfeHLydTqe9QHjExVq98z6Dzy511WhwMgGXDJSU4vLl+lwgfP3aEJoy/l4qL2mrleverEHnHjh7U0pgnRSpR144oqxq+edNaIRlchqG7YWAGICrDJQdeUEEvvvyKmkNUX7ee+lZeKsIH9jUYyh49cUqk9+jWWTOcn3dznh62GN54/ISqTsGsv0wX6YoJgUhPVepVXHK5mmJE//JzlEZVwz9d+a4SB7/dd0Ckbdu6UUsDAxCxxxPEAIQznJ/AHYTQK4kb0faJAQMG5CEcgLCGB0PST0DB0GINx2lcBSEq4iDibrjapiBs2SoSraC0tLQYQquMo97F6fEA2voCQmsby43unG4ZuHAyIDQFiWCPHj1ML17LgBcWQ5gqt5tOp3MZpD3g1RwW9HNx538IUdMGw9Htdm/3er0XIhx7dO/ePTvYo4XmEhfbj5CxA3sZwrRxOzhkyJBMyJggoDH2Phj2YRATQ5p8GCS36QQQo1cupH3ABTIXQmsAF+eXnN5cqEOawWhJW43XTwDwGEs7oOn0Z9euXb2QtkBTitFgnEiJHgZj/ZmXl5cDGTU0hegmFSIlSqhnLiTt6DaaMhheKVKihBXDmdEarymKt+FMn8/X7D6vKUmE4Tw41NTUpCIcMTQliTCcqY5sEUNTkCjDmQ6H4z3IiKBVtstw6OEbAoNhFhkRtIp2Gc7weDyD9BsZJLFqHIaV5y2Ysd9CMb3RVF1d7YK0jJgYbgVYPhu29I0aNcrN6VaRMMNLSkp6QbQ8wzt06FAGcZoajoVNB/3DdiY/2EeWVhGLrOH+ZaIlZkZuwxRhDW/OuGong00wVjyuZSaKOJsB3dCy4XzkvHmJNzoxHbrHX8w+5eVUUTGI8vPyDOkKU6iq6kKqRL5/XmaWR+jLyszQ0jDUGTZKmV0/lg1v17FUPLOWmDyxWqQ/+Ke/qilGyHoffLJGTWnCW//5t5Zf93WDmkqE1ZJSZ/VmJa4+Y4/KcPY4e2bWi38XSu8fdzulpDlFmJGWqtzGlZWfJ+IcHjdlhgifPHaY0lKwpnC5RZwxeuRVosxn23aqKUSNh/aLtKUr1om4LYZLPv7sS0IpG57mzBBhxsL58+iSwRcZykqI33rUtN79ld+FTh47JOLS8Lp6RY4cPoTeWblehGNmOMc/XrtRxPVY+HqtyJPQ109zNp0ljkvD9eVfe2OZkLYa/tjTLwil0nCmOyOT7hl7L22p2ybyGJwuUeBtuvA6duutJJ46JuJ6w8fVPCzCElEbnqYbQbarF1P16N9QfqeetOSNhZSi5jEluE8/8UKtCDfsqtfy9x04LNKm/+E+Edcbrq/PiNrw/KJiVVUTON1Xcq4aM2LRa3M1hfsONqqpTfh213Ytf+OOr0SajPuKSkScEbXh6Q4HMm6kB37/AF0x5HKtMDM1zUHDrxlBM2bMoNvG3EqeTLchn9ntnB704IyHaNrUGurSuZMhr6xPuWGjJbPv+f0Mabb08USwxRpu9jNJWMMx/T6iLnTiTm4X65R5CAfAisdDQauI09lXpMQJdhoe0A9jiVbDWw23CNsMx5I36n21kQCj3QAIrX1+G4bTrUKr6HA4louUOAHD5HwIrX1Oswx0j8MQWuWioqIunB5rlJeXF0Jo7aYpu+qtQ30nW1PAdLlc/8rNzS3jRwtmjxyaS34cAsf0gv6X/dv0er1VkJEBivz3rMSVOOs7IJsHp9O5HsJUcSwJo7dDRgecrsGp6nufsSb6NI9iVyAcX/DuCHhrEQ70ZKIWcGbkp3bo+u/n5+efj3jLBpzcFZfCOgRNDzbZyB0Bc9wcvoFEvOWgsrLSjV6zBkHTA0t2suOxJvjAzu0PMUPbtm3LMG6FHB95XMMJmcdvQmG67YOpsTNkKUtcFSIcKXnKDkV+rYDHbgxrhtcNwhG2rrB9x49d6NKlS5H/AkxP5H2DE9IV4YQCw1zE2w3h+JVJ53gcyN8gTA2O97I9FHDiqyFM7QxHTLLL7dqsFDXQC7Q9znrymIjLPq43eKEAp/l/dStisuMTPsbDsUHvLNCr4vooIBT4NUZeDiIYNRM6xp+JDpdkx8e9x5/JDpfk5eTQoUP5RYbYo9XhTXS73bMhY4tWhxuJYeZHLBZ6IxwbtBSHZ2dnD4GtpnbaTT6xWEZejLD9aCkOZ/AdMWxay46PlOxEllBjiejpGyDtB4xoMQ63Exg2KuHUBgSDHfvOSH+hsoQz1eEMr9f702DzQqvDYwD+zRXHGOzYWx1uNxLl8E8hgjXKP16ftoja4T6fbzTumj7HuHQYDHhz1IyoJr70ZkacjB9RptG/ThKyERPg17yXa9iwYWmw3RKicrjL5UrIL8TJRjj+FO8fQDgsou3hphXPRMLpljZk2O7wguL29MX2nbR79+4ANjQ00J2/vSGgTsXFl9K8+Qvou+/3KHt7ddi7Zw+t+OgDeujBqVRaov0Fg8Y0VyaNm/QHWrNuAx3z+/jP0SOHadXK5WhzVEA9wXQnvbvyv9Sg2dhAX+3c3vTRHx1fXbBE2L8b/Gj5MtzUGPPhLEuTve0OL4TD63bsVIzDQRxuPKIevgL97vcRo+9QU5uwZfMmWrxoES1e/AZt3PS5mqrglpFDtbrOTA99si5w6/+mz9bTkiVLDTvqJZYummfYuM5fUdK/cKHHpN+NbioHypcwGPxpqKRxuD/lawYS0uHunDzatVf5RJTEdVc2ffzYnwMHVVBZL6XnOTKyaOvX36q1FDwyfWJAHeas5+eqJRSs+2QZYYZT8kM4nLF00auanhbjcPlCioS+h8+c9Zyaao4f9u+jNxcvpOtHDDPovOLaW9USCrZuWt3kRD+6c/Jp1579akkFVQPPU/L9HP7mgn/SL64cpsYU7G2op1yvhxa887Ga0oIdzszI9tGUaTNoG4ahcPjzHyeLOleNulNNUbBxzUcGnXo6MrNpxzffqSUVXFbZV8n3c/hq9QNtJWefS4eOHldTGafowMGDajjJHT7nJeWlHokH7rtDpHtyC2jo1b8OKC+Z7nTRhCnT1VoKdn9TT6kpOEk5Pvr+gPF9m5uuv9pUz9gpxreb6us2kCtdfZbh73D1U37MVKeb1m7eruYYkRQOLyhuR9vq62nRwvn06KMzafbTz9L2r3arJkqcoLLunUX53PbdaM9h+elFog3r1tBTs5+kiRMngBNpzrPP0f8ONPUqxvixt2ntte98Nu354ZCao+DA/r30zFNP0qRJk+j5l+bS0eNN+hm76j8nX472MfyQDpd86uVX1dwmJIXD84va0dEgH1/c+/23NG3yeO19UaYjI5tqHn6UNm7eopYyx84dW2nSfXeJV+D07Ul2711Ory9cRMdPGJ0rcaTxMNW+8gJ16VQcWB8O17/PumH1h4FlwOvH3K2WUMCfDE3aIeVMYVwcnhqH3/taCl0uV+zvND0ezy0pEfyEdLpSfcvFEqIdUgSgpATOv4CfJ6BSZTjiJAX9Yg7y7wEH6csnG/k44eSKiL+oCdji8EjR+gNEq8PjhlaHxxmtDo8zktHhtnwgM1lRUlLSO+4Odzb9B6OBOBG8xLLrU6pJiezs7JF8nAgGEKsf/hc2+5GVlXVdsEb5ZqqgoOCXCJ92yMvL6w+nBv0BPSMjI3Z/LIZe/gqEacNMvrzy8/MvQrjFgx3tcDhCvhWH/LchY4vMzMzHIUwN0JOvBu756vaEFkH0ZMsbOV0u1z8g4wN+5xLG8b9OmBpzOhNX8R6fz8cfFY0/+vXrl4MJ8zn0DlPjThfy8aFH1/K7qognD9Dzu/DHfDGRvMLjH/+lBF+myEp68lACuxth9xZ0olc9Hs/tzXnuYkSbNv8Hjj2d2KusUuAAAAAASUVORK5CYII=;" vertex="1" parent="1">
                    <mxGeometry x="-132" y="512" width="92" height="92" as="geometry"/>
                </mxCell>
                <mxCell id="21" value="" style="shape=image;verticalLabelPosition=bottom;labelBackgroundColor=default;verticalAlign=top;aspect=fixed;imageAspect=0;image=data:image/png,iVBORw0KGgoAAAANSUhEUgAAAF0AAABcCAMAAAFM9HnCAAAAAXNSR0IArs4c6QAAAARnQU1BAACxjwv8YQUAAAELUExURQAAAAAAAAAAAAAAAAAAAAAAAAAAAAAAAAAAAAAAAAAAAAAAAAAAAAAAAAAAAAAAAAAAAAAAAAAAAAAAAAAAAAAAAAAAAAAAAAAAAAAAAAAAAAAAAAAAAAAAAAAAAAAAAAAAAAAAAAAAAAAAAAAAAAAAAAAAAAAAAAAAAAAAAAAAAAAAAAAAAAAAAAAAAAAAAAAAAAAAAAAAAAAAAAAAAAAAAAAAAAAAAAAAAAAAAAAAAAAAAAAAAAAAAAAAAAAAAAAAAAAAAAAAAAAAAAAAAAAAAAAAAAAAAAAAAAAAAAAAAAAAAAAAAAAAAAAAAAAAAAAAAAAAAAAAAAAAAAAAAAAAAAAAAAAAAAAAAOHKN1wAAABYdFJOUwABBQYICRAREhQVFhkbHB0eHyAhJCUmJygpKywuLzAxMjM5TFNUW11pc3R1dnd5eomKl5ucqq61try/w8bIyc7P0NLT1dbb3Obo6uvv8PHy8/T19vf5+v4r/UrcAAAACXBIWXMAABcRAAAXEQHKJvM/AAACfUlEQVRYR+3Z/1sSMRwHcDAoOhQr+0YhkFYKofbV4qxA0c4yS4tq//9f0sbeHne7fcbdeRQ+7vXDPdvtzecZY557IKdyR1dndFU6ec7vPOX8zj6nf83omqzDRvKyEyTHZVbtiLn5HTE3vyPmpn+NkKyTl3OTHa4k+1IJNwXHxdvgYVeWkPjAJ4gMtCAy4JuhgS4aXDc4QMFqSLgn0O3fCP8yZMZY7iPW9YNyX2wNQc2vY7nXlftPxPbhHiv3x8LtHbHDuJ2Y+bHL0B7iUxSGuDe2sqq3gnGFw7z2s6i2x/Rb0GGB/RvgmvKDw7C9CXkNY/4HVuPMacb1j1H3zNeM6wc/UeFnxvU1bF666PkytkxUGYl/C0+bCAwrBphrxACBsB7bwvMpZIv1EQjrsQJaIQUyXkQrpGiIP8J0fQ1j/MERHoBwVDXGNTKMVz38dwfvnjHexDv01c2TwRHBl+ncnQ5OGtC5bow3MGXfsjF+bQ3nFVi7muXcNUzxhFvs/gHOTnBw9z/OXcPGbdzGpx9HQ0HE+3i0ROwiENbBaMQGAhdCfkM9dk8y7Gi+QiGUyTUl7cY/sTk9xgJfF0zUZayvPz/qiOqudr9pFd101SsvXpo9X+CptNUb37CslONlnkpbvVCtPTSpVcXRM231eNJWv7K4dMtkaXGOp9JWb55ifSkndZ5KW/3m6+03JtuvbvDUbK57PGmrT3e/17+wPybsc42nLuO633n33uztbZ5KW715gk+P8v08f01z85UFk8r8eZ4E8djqFFudYqtTbHWKrU6x1SmzV137hbZWIXl1b7PVjqe16SWqXtrDcSW+QfDH/0moHz0pxI+h05TL/QWt4fGDaY0clQAAAABJRU5ErkJggg==;" vertex="1" parent="1">
                    <mxGeometry x="706" y="310" width="93" height="92" as="geometry"/>
                </mxCell>
                <mxCell id="22" value="" style="shape=image;verticalLabelPosition=bottom;labelBackgroundColor=default;verticalAlign=top;aspect=fixed;imageAspect=0;image=data:image/png,iVBORw0KGgoAAAANSUhEUgAAAF0AAABcCAMAAAFM9HnCAAAAAXNSR0IArs4c6QAAAARnQU1BAACxjwv8YQUAAAELUExURQAAAAAAAAAAAAAAAAAAAAAAAAAAAAAAAAAAAAAAAAAAAAAAAAAAAAAAAAAAAAAAAAAAAAAAAAAAAAAAAAAAAAAAAAAAAAAAAAAAAAAAAAAAAAAAAAAAAAAAAAAAAAAAAAAAAAAAAAAAAAAAAAAAAAAAAAAAAAAAAAAAAAAAAAAAAAAAAAAAAAAAAAAAAAAAAAAAAAAAAAAAAAAAAAAAAAAAAAAAAAAAAAAAAAAAAAAAAAAAAAAAAAAAAAAAAAAAAAAAAAAAAAAAAAAAAAAAAAAAAAAAAAAAAAAAAAAAAAAAAAAAAAAAAAAAAAAAAAAAAAAAAAAAAAAAAAAAAAAAAAAAAAAAAAAAAAAAAOHKN1wAAABYdFJOUwABBQYICRAREhQVFhkbHB0eHyAhJCUmJygpKywuLzAxMjM5TFNUW11pc3R1dnd5eomKl5ucqq61try/w8bIyc7P0NLT1dbb3Obo6uvv8PHy8/T19vf5+v4r/UrcAAAACXBIWXMAABcRAAAXEQHKJvM/AAACfUlEQVRYR+3Z/1sSMRwHcDAoOhQr+0YhkFYKofbV4qxA0c4yS4tq//9f0sbeHne7fcbdeRQ+7vXDPdvtzecZY557IKdyR1dndFU6ec7vPOX8zj6nf83omqzDRvKyEyTHZVbtiLn5HTE3vyPmpn+NkKyTl3OTHa4k+1IJNwXHxdvgYVeWkPjAJ4gMtCAy4JuhgS4aXDc4QMFqSLgn0O3fCP8yZMZY7iPW9YNyX2wNQc2vY7nXlftPxPbhHiv3x8LtHbHDuJ2Y+bHL0B7iUxSGuDe2sqq3gnGFw7z2s6i2x/Rb0GGB/RvgmvKDw7C9CXkNY/4HVuPMacb1j1H3zNeM6wc/UeFnxvU1bF666PkytkxUGYl/C0+bCAwrBphrxACBsB7bwvMpZIv1EQjrsQJaIQUyXkQrpGiIP8J0fQ1j/MERHoBwVDXGNTKMVz38dwfvnjHexDv01c2TwRHBl+ncnQ5OGtC5bow3MGXfsjF+bQ3nFVi7muXcNUzxhFvs/gHOTnBw9z/OXcPGbdzGpx9HQ0HE+3i0ROwiENbBaMQGAhdCfkM9dk8y7Gi+QiGUyTUl7cY/sTk9xgJfF0zUZayvPz/qiOqudr9pFd101SsvXpo9X+CptNUb37CslONlnkpbvVCtPTSpVcXRM231eNJWv7K4dMtkaXGOp9JWb55ifSkndZ5KW/3m6+03JtuvbvDUbK57PGmrT3e/17+wPybsc42nLuO633n33uztbZ5KW715gk+P8v08f01z85UFk8r8eZ4E8djqFFudYqtTbHWKrU6x1SmzV137hbZWIXl1b7PVjqe16SWqXtrDcSW+QfDH/0moHz0pxI+h05TL/QWt4fGDaY0clQAAAABJRU5ErkJggg==;" vertex="1" parent="1">
                    <mxGeometry x="706" y="420" width="93" height="92" as="geometry"/>
                </mxCell>
                <mxCell id="31" value="スキャン結果" style="text;html=1;align=left;verticalAlign=middle;resizable=0;points=[];autosize=1;fontColor=#000000;fontStyle=1;fontSize=24;fontFamily=Helvetica;" vertex="1" parent="1">
                    <mxGeometry x="152" y="262" width="170" height="40" as="geometry"/>
                </mxCell>
                <mxCell id="32" value="スキャン" style="text;html=1;align=left;verticalAlign=middle;resizable=0;points=[];autosize=1;fontColor=#000000;fontStyle=1;fontSize=24;fontFamily=Helvetica;" vertex="1" parent="1">
                    <mxGeometry x="450" y="262" width="120" height="40" as="geometry"/>
                </mxCell>
                <mxCell id="33" value="マッチング" style="text;html=1;align=left;verticalAlign=middle;resizable=0;points=[];autosize=1;fontColor=#FF3333;fontStyle=1;fontSize=24;fontFamily=Helvetica;" vertex="1" parent="1">
                    <mxGeometry x="-60" y="280" width="140" height="40" as="geometry"/>
                </mxCell>
                <mxCell id="34" value="SSH" style="text;html=1;align=left;verticalAlign=middle;resizable=0;points=[];autosize=1;fontColor=#000000;fontStyle=1;fontSize=24;fontFamily=Helvetica;" vertex="1" parent="1">
                    <mxGeometry x="620" y="362" width="70" height="40" as="geometry"/>
                </mxCell>
                <mxCell id="35" value="HTTPS" style="text;html=1;align=left;verticalAlign=middle;resizable=0;points=[];autosize=1;fontColor=#000000;fontStyle=1;fontSize=24;fontFamily=Helvetica;" vertex="1" parent="1">
                    <mxGeometry x="580.76" y="110" width="100" height="40" as="geometry"/>
                </mxCell>
                <mxCell id="36" value="脆弱性情報" style="text;html=1;align=left;verticalAlign=middle;resizable=0;points=[];autosize=1;fontColor=#000000;fontStyle=1;fontSize=24;fontFamily=Helvetica;" vertex="1" parent="1">
                    <mxGeometry x="690" y="2" width="140" height="40" as="geometry"/>
                </mxCell>
                <mxCell id="37" value="取得" style="text;html=1;align=left;verticalAlign=middle;resizable=0;points=[];autosize=1;fontColor=#000000;fontStyle=1;fontSize=24;fontFamily=Helvetica;" vertex="1" parent="1">
                    <mxGeometry x="475" y="2" width="70" height="40" as="geometry"/>
                </mxCell>
                <mxCell id="38" value="DB" style="text;html=1;align=left;verticalAlign=middle;resizable=0;points=[];autosize=1;fontColor=#000000;fontStyle=1;fontSize=24;fontFamily=Helvetica;" vertex="1" parent="1">
                    <mxGeometry x="211" y="2" width="60" height="40" as="geometry"/>
                </mxCell>
                <mxCell id="39" value="API" style="text;html=1;align=left;verticalAlign=middle;resizable=0;points=[];autosize=1;fontColor=#000000;fontStyle=1;fontSize=24;fontFamily=Helvetica;" vertex="1" parent="1">
                    <mxGeometry x="-110" y="2" width="60" height="40" as="geometry"/>
                </mxCell>
                <mxCell id="40" value="マッチング結果" style="text;html=1;align=left;verticalAlign=middle;resizable=0;points=[];autosize=1;fontColor=#000000;fontStyle=1;fontSize=24;fontFamily=Helvetica;" vertex="1" parent="1">
                    <mxGeometry x="-40" y="560" width="190" height="40" as="geometry"/>
                </mxCell>
                <mxCell id="41" value="可視化" style="text;html=1;align=left;verticalAlign=middle;resizable=0;points=[];autosize=1;fontColor=#000000;fontStyle=1;fontSize=24;fontFamily=Helvetica;" vertex="1" parent="1">
                    <mxGeometry x="5" y="734" width="100" height="40" as="geometry"/>
                </mxCell>
                <mxCell id="42" value="" style="shape=image;verticalLabelPosition=bottom;labelBackgroundColor=default;verticalAlign=top;aspect=fixed;imageAspect=0;image=data:image/png,iVBORw0KGgoAAAANSUhEUgAAAGwAAABsCAMAAAHPv5dpAAAAAXNSR0IArs4c6QAAAARnQU1BAACxjwv8YQUAAAK+UExURQAAAAAAAAAAAAAAAAAAAAAAAAAAAAAAAAAAAAAAAAAAAAAAAAAAAAAAAAAAAAAAAAAAAAAAAAAAAAAAAAAAAAAAAAAAAAAAAAAAAAAAAAAAAAAAAAAAAAAAAAAAAAAAAAAAAAAAAAAAAAAAAAAAAAAAAAAAAAAAAAAAAAAAAAAAAAAAAAAAAAAAAAAAAAAAAAAAAAAAAAAAAAAAAAAAAAAAAAAAAAAAAAAAAAAAAAAAAAAAAAAAAAAAAAAAAAAAAAAAAAAAAAAAAAAAAAAAAAAAAAAAAAAAAAAAAAAAAAAAAAAAAAAAAAAAAAAAAAAAAAAAAAAAAAAAAAAAAAAAAAAAAAAAAAAAAAAAAAAAAAAAAAAAAAAAAAAAAAAAAAAAAAAAAAAAAAAAAAAAAAAAAAAAAAAAAAAAAAAAAAAAAAAAAAAAAAAAAAAAAAAAAAAAAAAAAAAAAAAAAAAAAAAAAAAAAAAAAAAAAAAAAAAAAAAAAAAAAAAAAAAAAAAAAAAAAAAAAAAAAAAAAAAAAAAAAAAAAAAAAAAAAAAAAAAAAAAAAAAAAAAAAAAAAAAAAAAAAAAAAAAAAAAAAAAAAAAAAAAAAAAAAAAAAAAAAAAAAAAAAAAAAAAAAAAAAAAAAAAAAAAAAAAAAAAAAAAAAAAAAAAAAAAAAAAAAAAAAAAAAAAAAAAAAAAAAAAAAAAAAAAAAAAAAAAAAAAAAAAAAAAAAAAAAAAAAAAAAAAAAAAAAAAAAAAAAAAAAAAAAAAAAAAAAAAAAAAAAAAAAAAAAAAAAAAAAAAAAAAAAAAAAAAAAAAAAAAAAAAAAAAAAAAAAAAAAAAAAAAAAAAAAAAAAAAAAAAAAAAAAAAAAAAAAAAAAAAAAAAAAAAAAAAAAAAAAAAAAAAAAAAAAAAAAAAAAAAAAAAAAAAAAAAAAAAAAAAAAEXXt9AAAADpdFJOUwABAgMEBQYHCAkKCwwNDg8QERITFBUWFxgZGhscHR4fICIjJCUmJygpKissLS4vMDEyMzQ1Njc4OTo7PD0+P0BBQkNFRkdISUpLTE1OT1FSVVZXWFlaW1xeX2BhYmNkZWZnaGlqa2xtbm9wcXJzdHV2d3h5enx9fn+AgYKDhoeIiYqMjY6QkZKUlZabnp+goaKjpKWmp6ipqqutrq+wsbKztLa3uru8vb6/wMHCw8TFxsfIycrLzM3Oz9DR0tPU1dbX2Nna29zd3t/g4eLj5OXm5+jp6uvs7e7v8PHy8/T19vf4+fr7/P3+pStIUQAAAAlwSFlzAAAXEQAAFxEByibzPwAADDRJREFUWEetmYl/VcUVgCcvLE8IEBCsikFE1gZkkbI9raHSBigUpeAChdCiVaq0Ci4ELVoFFBogNlTTKoFSoVBlkUILNaxlBwOCQCAJWwhw/oue7d47d3lL0O+XvHuWmTt3mXtmzoyJYBcQqlQD1OyDMQAVrDr20yxISUTsYGIAMfwnC6oJNIssXk/9GP8LuZJrkuOX/Eulz5+lQ+eBolbAFDrAL1lziotPWWErPrhkrsilKJ3tBVA+jB2DxEonasXFCAPFxhTCK3gznchTigXMbPWtAnPD03L51n9LpfAf/9qrQ37xMJ8bqCSFTnOEVVbIS+xIiMan8NOaigI8AqalWhykKl0A457CmGWoXiNhRzf6JS8dCZItxvN7FK9YbCaba/grrr16x07J/XH4G6lNxaZPg6EicT4WeD48zpXjQtF87VnaY+RrpwrhFd1OLmMS5QBPfvO6KMbcHHsO7965/UFSeEvbePwXLPVTh1IMZWyGyXwRYX6oxwDjTEPtcHwTU02hWjzkhIxaHMR4yimhVmIPd5MiAxVgDpOY73lJvY+E6/TzDqkkICT62yDDmyyNZKfLZXGyq6hBbB5NTD+A+onou6kWC644BH0PgFk5jr/mDrFYbCX7rqIXXShugVXc/O3UBPsALgK8ZsxJaFCTw2rWexq61yq/7+dafbbpGvJBltOV0FqvPmqPjhf4cEAUtdFH8gEJE+bR71tqVmosDT22y+dbS87+qhDGTFGpE7nMP1HqW/kpy0R1JT19kRMJFHurggCe6EYiz9GwmOu7u4F1h45yBSXxeLyEJTNZPQTMZJvwuVdLgPnqsc7nUTUrhs3iw0zN65BtzAnAa10UdZYIpkKd6YJtnqGGKZScNzMir8AD6kdxXBHeG3hFJXxordZBgZYKoWWEi/iYVRSs6OexW50A2+5mw14UsQ8iE8VO3MMGixyxL1c1gIYm7C42dWKFB1SP4mstM1p1Qk1Jwfdhsll6RioYM57VdFDJ/1kygtLc1WJJyl4a9uBpfFDvch2O2U8as4bO4gZ5/uKJ82oA+naby+3sz0GHPo8LA1B2qw3uwfRza9Fb+VDl2XS+ESRRDEDsIcVGpiGGRx7Y2QQjNpvTVbtT3BxOCJKp137FVq/aELrEn/5dNYA3yPu0yPeSvEhkEiMeiaoAOHCb7SpDDJVptaoEuYnOZ1S2WSDf6/OqBuEeqLIFnQ35saohuFpLVWy4GtKCNfzCUvEgF9qgGsEGhzZq9LiqHuZtNQr5bDOmGZSrxQPWG9Od3JfU4IHGGvz/Cv938jzHIYdHeLJfBpimRh/kT05kLCHm4Jd7XQv5uQsnFk6Ej2QC4LwCC+bvx59uBwEWG7POfeSpaYYjKnY0EufRT2NIMptJAV1ZHpygsDNHTWkoxEEXh8fhdH/DTQ2P/ePCPSAIwAyOHzRq8PhxP0aNqepMis52A+xSbyQFsL619DHiysD3VKJJcmF90pfgH2AweTiloqClQoTGJZwSWWgpH8OgIh/ntMLhMaYnBrlvYJ/JLaIOzrQv3VOtpV3uUR/yBBt6oLSPpTu2iR3ZzQYbdcA7qpuu13eoZDo7I/MyNXjotbRTNYDOqin2e7wpRnzHaggzSEvYT2a0Wg6rHsVgLVOnOqGmG3oMsJDL6OsZxYoQFXtt/kiF/sIilycmFtezIRUfUkGWGnYXteJqrKUDkzL33fLk2L3Z1GDBUSLpGGDexQFdh67k8LC9+g2UtBZlyPgLV0zMveCtWZgAxGK5P1CdptY/g5XcYl+qk0OBDas1B+jq3edWchHfUwO8gr41xjxF8lxjXmNjHaWS8Yhqw9WAJ8bsY+8WRzEvi2Q9Y6SSpxc9enCiQpxH54ALIsuAhp8WYNrCsDmKZuweRknTSRazd5K5KctJqzkfRhUpI1DQuQHeFyFKEE7TGa4GR5s6BVNWgz3idarBQ04PTV1NZ5Hx+AlSbnQn5V4S5Zbdaju703N8VjXE8p5h2RwgWfMTtiPOe1MVYKyl/QhFWRmSLypc7TnVYR0qt6sMi4x5S0UppgpsEZW6nLLK9FYJQU/WApVDdEBvxFBeq9OFx1UP0h59vEDlRypF5tIMVStQ2eJ5qYVz62ioWkeVbchuPeQg7MYpRpCfcDVjOrnTUh93sDNwd/2tcL+BLQNVS4KMdvZaFRsARg6srKzurDaLT89Wzu+r3+hnakPeFotwRY0ebdUjqBHJSyQSHP/P9R/rhkGP1+Gb3k9ylXIsqEblEplxIrneOp1STt8HV8tXiwebsds0cDbj4wgtWbLfyVlcpvHkFI6Ts8w3aHanN0BfNY23avPAD64f1RFKpsWJdiVfqAHBLqNLmn7885IQWioEVtv0Hy0TgNYjtFSIvGJj7pJiAa7j+J56YomFZOnOoQzHMTxfGihqLAY42A1r7Kc4QJkhrXClJ4sKr6A07SUnjcwIno5z5vqaBtBbp9k8muYTszQZRl6d963PG0UW9a9ZKMTwpgFWUHr6EgpVaVeIMmcChnHOPvCdIAfzu/MMAd9Nt94SnDDRMObhf0CGLykVxXzC+VN0FhpF2WReSM2gIyUhb04xr9zcFZ0CRnIdE0Ps78VzUiaHEcjXunFmRKi+8SoVeDVilrtj5ud8TJrAJiFFaDguJThORZNxY4Mmd6SDFb48vigpofnEpgeN6b8JhYMldkjz4MX8jpMjA5wNhlfksps+KTvLumms7XNITXBYl+xyupX9V00ONRSikywh2FRwMZuDk/y7NdLjD/VRVWj5FM+hfIQGihD5PE65bKIVtiBtEomo/HsAPVqPS+HBzIXGUaTc6mXVYylMNIKsMdVaFblBAy4S9SH4xnri3FD1NIph57S6i3+dSaG1e4ulk2b8JiNenJTozRNmZahOWhRr7mLRQiZNt8pnOK9XCtVEbAjuBRLtOvXfof5bZhmtN/PJvKe0vX8nf86fdGmx0SzRlCobB3gfzlTVmPZJZ8eNZp/MmzmVtFjrmInnk03hG00ln6+Zr7fd1Bm/A6cZh2gD4g/4oZ36U9ny5cuXBKMQnP3rB2gXyv78ZX3E+HOVErHYRvzMqMvn8Ybi49SCklW0QGKhRKClKK3hCOHk0S7/CgWOF9Xj8XvMztbhcSn7+7KtdkGRTB54302oexRTzY9Y7EKu0NL8VncjwaHDEXU5fHWf4Q0mgI8wtX3U2WdBaPIV08V4m4Vyj6HGttzGdo+h/JhseCO1T0TSuFhDX4EdsUtpi1QINZaep7SqMUOWqIk4QGmy0pl31ZAq3yyw0Y1tpmzXo5muGcAZ3s8gulqBvkqXEITGNXbyV8EZZNxpDPvmxxQ+dbdG+RaN3fx3L63mYjVGPGSazrb707e5M3yKgZXPbNphcDg6m0NZ9gheKSLSNFZfdey4cCxiJgdwQdJx4uEjVVUn3I9+54gmajeml7OleKqtWphQY1taqIeIP+Z0Kw9v/fwJtTBfe0/4ZevL860NhxoLfNRtQl8Z/E5dwYnTRUl7ZE3QYaP92DE18rPVd+PYkcPLsnOasycU6QAo4cqZq2mJsG+zxzG1udRtU8/aXD6l7I4G2bzZeSsW++e6SX7fUrVlSI2OT633qSElpbwa6yFJT8Y4jZn1akiJ7BE7DG7s2Ok29n01pMGLtxlugtu4jZlnIz+4ELL0TrSaWFS8q56WgzPFa8z4lzLCNNTvLi6aKNsDFtamxMkXZqRkuj2wtXlOrQ4vnNTTILL6G2KkupnTw9Q6YLAKaRns5CAJ3stzsPdYXEZbccTPKl/AjOa2VVo4RB3n5gHc/SeLet6Gr8VpRTq68KXWRm308EQhmhwv6fw16eOx33zCnpR8gj2BNn6sF1/j30yLYpkWRXqS3hzTjcwa28BRkbdDhPCGX4B7dmtJ5NTUnr2mXyHp/dCqp58736dSV6b36jnF2j/dTXPeVAyrhj0Vpfnt3W1Rh5ojRWMCMZ/IHVN0NJjtQ3n7/NKKPVDt9Oh0JF0HOVnlEhHbhe9w0SU9jW2sAPv9+tFtTL6zvZsB13qb1iPXYe8v0JM0ltxdeqYM2KUj6q0zFc9SNwO/2vNyxjNuLDqt853z9xszg77pqVrl1mldOE5S8Ck0KtQOd3cqUXqE+mGDtNFyXGHUQsytMgczEc7Q804AnOCllGzMgFIvp38HPOQtQ2SOMf8Hzig0+mYTAuUAAAAASUVORK5CYII=;" vertex="1" parent="1">
                    <mxGeometry x="430" y="530" width="70" height="70" as="geometry"/>
                </mxCell>
                <mxCell id="43" value="" style="shape=image;verticalLabelPosition=bottom;labelBackgroundColor=default;verticalAlign=top;aspect=fixed;imageAspect=0;image=data:image/png,iVBORw0KGgoAAAANSUhEUgAAAFwAAABcCAYAAAGU6OLOAAAAAXNSR0IArs4c6QAAAARnQU1BAACxjwv8YQUAAAAJcEhZcwAAFxEAABcRAcom8z8AAA82SURBVHhe7V0JdBXVGSbLW5K85OVlIQECAbSgLCGeInCoJFG02oo9VQGLirhgcYtSERBLCSDW4ym21lMFcTlu2Da2KAcKLqC4IChFNkEwLEFFogJFloBsf7//ztzJzHvz3puXN28J5DvnO/9d//vPP3fuvTPvzrw2emRmZt4EQZLp6emnOD0YKD8/f7AaFkhLS2uE4MqmCMgoKCi4GUK2GACzCqMhZIWAfFMtOij5ubm5l6uRUGRI2YY8Hg99smkbtUlJJcbdEyZTG4eLziptZ14hv10nUbDysl8JOaBysKgwcPBlgRVcLle9GglFhpQaAhL8EH0FBieasrCwsA+kEegK/gWDwiyToGCFGjbAtDDTrELQwioNMCusAdfCTpb62mYU0Aoz7h93J91z2w005sZrRFxClAREYa83RybS5g2rqE+Ps0V89Yp3hFSKNtMMCS3DDBEVdjqdtWpQQN+0GYPCrLAp3W73QkjLoJSUFK4YDmNArZHU1NQPOTEcZIWQ8BvbNIY7ElkwLLxe75UYlAQxEl8H60VdXAiGM6mHZeVBwHOCplwoy87OppycHBHO9eVR7149ZSN01k+6U2lpRy0uy0kJ6hGonMnwte0gJMOT6RJSn8/D6qrlb4swQ83Tw6i88qKL6e7quzQl942fQFUVF2jxkaNuohHXDFfiGPB79TxXhPv37y/L6GFQ7g+zCpEgQcrRnXj25+5ExcXFpVaJ7ng111MZGg6HYyOELBzAjIyMpyEjAyy2MpfqGRGsVoqsAYypb0JYK2xUHr4ORsO1EM1VHrqeDcqZ5rBJOTMQkSivqalJl8MtE11zGpLtUW4GXJnxVS4TmkXcPDwBKWCq3IOJgicLDjOrqqq0MHPwYCyP1bBugqCsrCwZFjBXjsW5HPilfOzJOYa4XjI4XPfFZ0KCAkHdIivoce2t1bR21fsi/Yv6L+mqn/cX6fMWL6XZsx6PXHnVoJ8Z4qGkJeVjx46losJ8kdGzdxlNmzpVFhKcOXOmFtZNbdSnT5kMCwS1vLlU1yoCZso1oJ+vhjDPtIBwylvWFaoBkwVfbc1WDgRXrkIUwNU3wmyWN2O7du06Ye49yfX0JzgAuLzPgpAWNIeRA+vuZyDMlDWb8M5YyNgAI+pjEIYG0anYtUdNeMSfKKsRcYMeSbOb5qgAj1wLoTWAuyB+1BIVMNM+BGEwXBIH8BFk9NBdrpJRI9gtoJ5Rn4FEGS7Z7ANItOGS6LJ3QlpHLAwvLCz0QOh1WiKujRchrSEWhkcIrW1Mb0FvagOQaMN1c7G54bW1tWlm0yEM34RsrXL79u07+peLlmVlZVlsgxlCGq7PTDADEM7jWqY/gqUzbr95hMgr6qA8mfeHLydTqe9QHjExVq98z6Dzy511WhwMgGXDJSU4vLl+lwgfP3aEJoy/l4qL2mrleverEHnHjh7U0pgnRSpR144oqxq+edNaIRlchqG7YWAGICrDJQdeUEEvvvyKmkNUX7ee+lZeKsIH9jUYyh49cUqk9+jWWTOcn3dznh62GN54/ISqTsGsv0wX6YoJgUhPVepVXHK5mmJE//JzlEZVwz9d+a4SB7/dd0Ckbdu6UUsDAxCxxxPEAIQznJ/AHYTQK4kb0faJAQMG5CEcgLCGB0PST0DB0GINx2lcBSEq4iDibrjapiBs2SoSraC0tLQYQquMo97F6fEA2voCQmsby43unG4ZuHAyIDQFiWCPHj1ML17LgBcWQ5gqt5tOp3MZpD3g1RwW9HNx538IUdMGw9Htdm/3er0XIhx7dO/ePTvYo4XmEhfbj5CxA3sZwrRxOzhkyJBMyJggoDH2Phj2YRATQ5p8GCS36QQQo1cupH3ABTIXQmsAF+eXnN5cqEOawWhJW43XTwDwGEs7oOn0Z9euXb2QtkBTitFgnEiJHgZj/ZmXl5cDGTU0hegmFSIlSqhnLiTt6DaaMhheKVKihBXDmdEarymKt+FMn8/X7D6vKUmE4Tw41NTUpCIcMTQliTCcqY5sEUNTkCjDmQ6H4z3IiKBVtstw6OEbAoNhFhkRtIp2Gc7weDyD9BsZJLFqHIaV5y2Ysd9CMb3RVF1d7YK0jJgYbgVYPhu29I0aNcrN6VaRMMNLSkp6QbQ8wzt06FAGcZoajoVNB/3DdiY/2EeWVhGLrOH+ZaIlZkZuwxRhDW/OuGong00wVjyuZSaKOJsB3dCy4XzkvHmJNzoxHbrHX8w+5eVUUTGI8vPyDOkKU6iq6kKqRL5/XmaWR+jLyszQ0jDUGTZKmV0/lg1v17FUPLOWmDyxWqQ/+Ke/qilGyHoffLJGTWnCW//5t5Zf93WDmkqE1ZJSZ/VmJa4+Y4/KcPY4e2bWi38XSu8fdzulpDlFmJGWqtzGlZWfJ+IcHjdlhgifPHaY0lKwpnC5RZwxeuRVosxn23aqKUSNh/aLtKUr1om4LYZLPv7sS0IpG57mzBBhxsL58+iSwRcZykqI33rUtN79ld+FTh47JOLS8Lp6RY4cPoTeWblehGNmOMc/XrtRxPVY+HqtyJPQ109zNp0ljkvD9eVfe2OZkLYa/tjTLwil0nCmOyOT7hl7L22p2ybyGJwuUeBtuvA6duutJJ46JuJ6w8fVPCzCElEbnqYbQbarF1P16N9QfqeetOSNhZSi5jEluE8/8UKtCDfsqtfy9x04LNKm/+E+Edcbrq/PiNrw/KJiVVUTON1Xcq4aM2LRa3M1hfsONqqpTfh213Ytf+OOr0SajPuKSkScEbXh6Q4HMm6kB37/AF0x5HKtMDM1zUHDrxlBM2bMoNvG3EqeTLchn9ntnB704IyHaNrUGurSuZMhr6xPuWGjJbPv+f0Mabb08USwxRpu9jNJWMMx/T6iLnTiTm4X65R5CAfAisdDQauI09lXpMQJdhoe0A9jiVbDWw23CNsMx5I36n21kQCj3QAIrX1+G4bTrUKr6HA4louUOAHD5HwIrX1Oswx0j8MQWuWioqIunB5rlJeXF0Jo7aYpu+qtQ30nW1PAdLlc/8rNzS3jRwtmjxyaS34cAsf0gv6X/dv0er1VkJEBivz3rMSVOOs7IJsHp9O5HsJUcSwJo7dDRgecrsGp6nufsSb6NI9iVyAcX/DuCHhrEQ70ZKIWcGbkp3bo+u/n5+efj3jLBpzcFZfCOgRNDzbZyB0Bc9wcvoFEvOWgsrLSjV6zBkHTA0t2suOxJvjAzu0PMUPbtm3LMG6FHB95XMMJmcdvQmG67YOpsTNkKUtcFSIcKXnKDkV+rYDHbgxrhtcNwhG2rrB9x49d6NKlS5H/AkxP5H2DE9IV4YQCw1zE2w3h+JVJ53gcyN8gTA2O97I9FHDiqyFM7QxHTLLL7dqsFDXQC7Q9znrymIjLPq43eKEAp/l/dStisuMTPsbDsUHvLNCr4vooIBT4NUZeDiIYNRM6xp+JDpdkx8e9x5/JDpfk5eTQoUP5RYbYo9XhTXS73bMhY4tWhxuJYeZHLBZ6IxwbtBSHZ2dnD4GtpnbaTT6xWEZejLD9aCkOZ/AdMWxay46PlOxEllBjiejpGyDtB4xoMQ63Exg2KuHUBgSDHfvOSH+hsoQz1eEMr9f702DzQqvDYwD+zRXHGOzYWx1uNxLl8E8hgjXKP16ftoja4T6fbzTumj7HuHQYDHhz1IyoJr70ZkacjB9RptG/ThKyERPg17yXa9iwYWmw3RKicrjL5UrIL8TJRjj+FO8fQDgsou3hphXPRMLpljZk2O7wguL29MX2nbR79+4ANjQ00J2/vSGgTsXFl9K8+Qvou+/3KHt7ddi7Zw+t+OgDeujBqVRaov0Fg8Y0VyaNm/QHWrNuAx3z+/jP0SOHadXK5WhzVEA9wXQnvbvyv9Sg2dhAX+3c3vTRHx1fXbBE2L8b/Gj5MtzUGPPhLEuTve0OL4TD63bsVIzDQRxuPKIevgL97vcRo+9QU5uwZfMmWrxoES1e/AZt3PS5mqrglpFDtbrOTA99si5w6/+mz9bTkiVLDTvqJZYummfYuM5fUdK/cKHHpN+NbioHypcwGPxpqKRxuD/lawYS0uHunDzatVf5RJTEdVc2ffzYnwMHVVBZL6XnOTKyaOvX36q1FDwyfWJAHeas5+eqJRSs+2QZYYZT8kM4nLF00auanhbjcPlCioS+h8+c9Zyaao4f9u+jNxcvpOtHDDPovOLaW9USCrZuWt3kRD+6c/Jp1579akkFVQPPU/L9HP7mgn/SL64cpsYU7G2op1yvhxa887Ga0oIdzszI9tGUaTNoG4ahcPjzHyeLOleNulNNUbBxzUcGnXo6MrNpxzffqSUVXFbZV8n3c/hq9QNtJWefS4eOHldTGafowMGDajjJHT7nJeWlHokH7rtDpHtyC2jo1b8OKC+Z7nTRhCnT1VoKdn9TT6kpOEk5Pvr+gPF9m5uuv9pUz9gpxreb6us2kCtdfZbh73D1U37MVKeb1m7eruYYkRQOLyhuR9vq62nRwvn06KMzafbTz9L2r3arJkqcoLLunUX53PbdaM9h+elFog3r1tBTs5+kiRMngBNpzrPP0f8ONPUqxvixt2ntte98Nu354ZCao+DA/r30zFNP0qRJk+j5l+bS0eNN+hm76j8nX472MfyQDpd86uVX1dwmJIXD84va0dEgH1/c+/23NG3yeO19UaYjI5tqHn6UNm7eopYyx84dW2nSfXeJV+D07Ul2711Ory9cRMdPGJ0rcaTxMNW+8gJ16VQcWB8O17/PumH1h4FlwOvH3K2WUMCfDE3aIeVMYVwcnhqH3/taCl0uV+zvND0ezy0pEfyEdLpSfcvFEqIdUgSgpATOv4CfJ6BSZTjiJAX9Yg7y7wEH6csnG/k44eSKiL+oCdji8EjR+gNEq8PjhlaHxxmtDo8zktHhtnwgM1lRUlLSO+4Odzb9B6OBOBG8xLLrU6pJiezs7JF8nAgGEKsf/hc2+5GVlXVdsEb5ZqqgoOCXCJ92yMvL6w+nBv0BPSMjI3Z/LIZe/gqEacNMvrzy8/MvQrjFgx3tcDhCvhWH/LchY4vMzMzHIUwN0JOvBu756vaEFkH0ZMsbOV0u1z8g4wN+5xLG8b9OmBpzOhNX8R6fz8cfFY0/+vXrl4MJ8zn0DlPjThfy8aFH1/K7qognD9Dzu/DHfDGRvMLjH/+lBF+myEp68lACuxth9xZ0olc9Hs/tzXnuYkSbNv8Hjj2d2KusUuAAAAAASUVORK5CYII=;" vertex="1" parent="1">
                    <mxGeometry x="430" y="618" width="70" height="70" as="geometry"/>
                </mxCell>
                <mxCell id="44" value="" style="shape=image;verticalLabelPosition=bottom;labelBackgroundColor=default;verticalAlign=top;aspect=fixed;imageAspect=0;image=data:image/png,iVBORw0KGgoAAAANSUhEUgAAAF0AAABcCAMAAAFM9HnCAAAAAXNSR0IArs4c6QAAAARnQU1BAACxjwv8YQUAAAELUExURQAAAAAAAAAAAAAAAAAAAAAAAAAAAAAAAAAAAAAAAAAAAAAAAAAAAAAAAAAAAAAAAAAAAAAAAAAAAAAAAAAAAAAAAAAAAAAAAAAAAAAAAAAAAAAAAAAAAAAAAAAAAAAAAAAAAAAAAAAAAAAAAAAAAAAAAAAAAAAAAAAAAAAAAAAAAAAAAAAAAAAAAAAAAAAAAAAAAAAAAAAAAAAAAAAAAAAAAAAAAAAAAAAAAAAAAAAAAAAAAAAAAAAAAAAAAAAAAAAAAAAAAAAAAAAAAAAAAAAAAAAAAAAAAAAAAAAAAAAAAAAAAAAAAAAAAAAAAAAAAAAAAAAAAAAAAAAAAAAAAAAAAAAAAAAAAAAAAOHKN1wAAABYdFJOUwABBQYICRAREhQVFhkbHB0eHyAhJCUmJygpKywuLzAxMjM5TFNUW11pc3R1dnd5eomKl5ucqq61try/w8bIyc7P0NLT1dbb3Obo6uvv8PHy8/T19vf5+v4r/UrcAAAACXBIWXMAABcRAAAXEQHKJvM/AAACfUlEQVRYR+3Z/1sSMRwHcDAoOhQr+0YhkFYKofbV4qxA0c4yS4tq//9f0sbeHne7fcbdeRQ+7vXDPdvtzecZY557IKdyR1dndFU6ec7vPOX8zj6nf83omqzDRvKyEyTHZVbtiLn5HTE3vyPmpn+NkKyTl3OTHa4k+1IJNwXHxdvgYVeWkPjAJ4gMtCAy4JuhgS4aXDc4QMFqSLgn0O3fCP8yZMZY7iPW9YNyX2wNQc2vY7nXlftPxPbhHiv3x8LtHbHDuJ2Y+bHL0B7iUxSGuDe2sqq3gnGFw7z2s6i2x/Rb0GGB/RvgmvKDw7C9CXkNY/4HVuPMacb1j1H3zNeM6wc/UeFnxvU1bF666PkytkxUGYl/C0+bCAwrBphrxACBsB7bwvMpZIv1EQjrsQJaIQUyXkQrpGiIP8J0fQ1j/MERHoBwVDXGNTKMVz38dwfvnjHexDv01c2TwRHBl+ncnQ5OGtC5bow3MGXfsjF+bQ3nFVi7muXcNUzxhFvs/gHOTnBw9z/OXcPGbdzGpx9HQ0HE+3i0ROwiENbBaMQGAhdCfkM9dk8y7Gi+QiGUyTUl7cY/sTk9xgJfF0zUZayvPz/qiOqudr9pFd101SsvXpo9X+CptNUb37CslONlnkpbvVCtPTSpVcXRM231eNJWv7K4dMtkaXGOp9JWb55ifSkndZ5KW/3m6+03JtuvbvDUbK57PGmrT3e/17+wPybsc42nLuO633n33uztbZ5KW715gk+P8v08f01z85UFk8r8eZ4E8djqFFudYqtTbHWKrU6x1SmzV137hbZWIXl1b7PVjqe16SWqXtrDcSW+QfDH/0moHz0pxI+h05TL/QWt4fGDaY0clQAAAABJRU5ErkJggg==;" vertex="1" parent="1">
                    <mxGeometry x="430" y="707" width="70.76" height="70" as="geometry"/>
                </mxCell>
                <mxCell id="45" value="・・・プログラム" style="text;html=1;align=left;verticalAlign=middle;resizable=0;points=[];autosize=1;fontColor=#000000;fontStyle=1;fontSize=24;fontFamily=Helvetica;" vertex="1" parent="1">
                    <mxGeometry x="500" y="545" width="220" height="40" as="geometry"/>
                </mxCell>
                <mxCell id="46" value="・・・JSONファイル" style="text;html=1;align=left;verticalAlign=middle;resizable=0;points=[];autosize=1;fontColor=#000000;fontStyle=1;fontSize=24;fontFamily=Helvetica;" vertex="1" parent="1">
                    <mxGeometry x="500.76" y="633" width="260" height="40" as="geometry"/>
                </mxCell>
                <mxCell id="47" value="・・・スキャン対象サーバ" style="text;html=1;align=left;verticalAlign=middle;resizable=0;points=[];autosize=1;fontColor=#000000;fontStyle=1;fontSize=24;fontFamily=Helvetica;" vertex="1" parent="1">
                    <mxGeometry x="500.76" y="722" width="310" height="40" as="geometry"/>
                </mxCell>
                <mxCell id="48" value="ブラウザ" style="text;html=1;align=left;verticalAlign=middle;resizable=0;points=[];autosize=1;fontColor=#000000;fontStyle=1;fontSize=24;fontFamily=Helvetica;" vertex="1" parent="1">
                    <mxGeometry x="-520" y="640" width="120" height="40" as="geometry"/>
                </mxCell>
            </root>
        </mxGraphModel>
    </diagram>
</mxfile>